<svg width="10" height="10" viewBox="0 0 10 10" fill="none" xmlns="http://www.w3.org/2000/svg">
<path id="XMLID_27_" d="M1.05755 9.81856L8.76104 2.11509L8.76104 5.00003C8.76101 5.34215 9.03839 5.61952 9.38054 5.61952C9.55158 5.61949 9.70648 5.55016 9.81859 5.43805C9.9307 5.32594 10 5.17104 10 5L10 0.619492C10 0.277375 9.72265 7.79815e-07 9.38051 7.79815e-07L4.99999 0C4.6579 0 4.38052 0.277374 4.38049 0.619491C4.38046 0.961609 4.65784 1.23898 4.99999 1.23898L7.88494 1.23898L0.181441 8.94246C-0.0604804 9.18438 -0.0604804 9.57664 0.181441 9.81856C0.423363 10.0605 0.815624 10.0605 1.05755 9.81856Z"/>
</svg>
