<svg width="14" height="13" viewBox="0 0 14 13" fill="none" xmlns="http://www.w3.org/2000/svg">
<path id="calendar (3) 1 (Traced)" fill-rule="evenodd" clip-rule="evenodd" d="M0.868559 0.0393599C0.579232 0.11687 0.307759 0.344824 0.160125 0.634279C0.0234754 0.902168 0.00220263 1.08857 0.00165197 2.0227L0.00115928 2.87929H6.98762H13.9741L13.965 1.96512L13.9559 1.05094L13.8622 0.85443C13.6777 0.46728 13.2406 0.137198 12.7855 0.0413754C12.6516 0.0131872 12.3817 0.000835 11.891 0.000489485L11.1882 0L11.188 0.655039C11.1879 1.01532 11.175 1.356 11.1593 1.41212C11.1436 1.46827 11.0854 1.55787 11.03 1.61122C10.9472 1.69089 10.9018 1.71047 10.7761 1.72049C10.6504 1.73051 10.6053 1.72064 10.5243 1.66535C10.3049 1.51577 10.3053 1.51756 10.2948 0.717779L10.2853 0H6.80968H3.33408L3.3328 0.626246C3.3313 1.37742 3.31698 1.47008 3.18155 1.60463C2.99151 1.79342 2.65671 1.75524 2.51485 1.52862C2.45317 1.43012 2.4497 1.39176 2.44106 0.712625L2.43196 0L1.71651 0.00192911C1.24654 0.00322479 0.955591 0.0160665 0.868559 0.0393599ZM0.0078251 7.91085L0.0156502 12.0498L0.0906554 12.2412C0.233188 12.6048 0.459479 12.8323 0.793843 12.9483C0.935565 12.9974 1.24095 13 6.86987 13H12.7967L12.9906 12.9334C13.3863 12.7976 13.7277 12.5124 13.8922 12.1805L13.9849 11.9935L13.9925 7.88266L14 3.77187H7H0L0.0078251 7.91085ZM4.08483 5.4207C4.12314 5.44025 4.18183 5.4928 4.21524 5.53745C4.27141 5.61257 4.27669 5.66279 4.28535 6.20519C4.29387 6.73913 4.28958 6.80328 4.23736 6.92055C4.13607 7.14804 4.11027 7.15504 3.37375 7.15504C2.46114 7.15504 2.49465 7.18881 2.49404 6.26822C2.4934 5.34863 2.45506 5.38689 3.37755 5.38586C3.82796 5.38534 4.03561 5.39556 4.08483 5.4207ZM7.53367 5.4207C7.57199 5.44025 7.63068 5.4928 7.66409 5.53748C7.72037 5.61272 7.7255 5.66239 7.73391 6.21412C7.74399 6.87474 7.72414 6.99213 7.58506 7.09469C7.50759 7.15181 7.46794 7.15504 6.84089 7.15504C5.90701 7.15504 5.94349 7.19109 5.94288 6.26822C5.94225 5.34863 5.9039 5.38689 6.8264 5.38586C7.27681 5.38534 7.48446 5.39556 7.53367 5.4207ZM11.0442 5.42795C11.2037 5.50987 11.2172 5.57604 11.2172 6.27685C11.2172 7.19987 11.2629 7.15504 10.3216 7.15504C9.68512 7.15504 9.66399 7.15317 9.57345 7.08902C9.44051 6.99481 9.42063 6.8864 9.42045 6.25434C9.42025 5.64793 9.4381 5.55764 9.58009 5.4467C9.65663 5.38687 9.68706 5.38427 10.3096 5.38427C10.8336 5.38427 10.9757 5.39271 11.0442 5.42795ZM4.13731 9.35174C4.26982 9.44563 4.29013 9.55458 4.29031 10.172C4.29048 10.7586 4.2744 10.84 4.13253 10.9701C4.05437 11.0418 4.0517 11.0421 3.40294 11.0508C2.78745 11.0591 2.74653 11.0563 2.65509 11.0002C2.49957 10.9047 2.48949 10.8482 2.49928 10.1276C2.50801 9.48312 2.50873 9.47673 2.57896 9.4025C2.61794 9.36132 2.68967 9.31569 2.73836 9.30106C2.78705 9.28643 3.10077 9.27699 3.43552 9.2801C4.01904 9.28548 4.04799 9.28845 4.13731 9.35174ZM7.5679 9.3363C7.71443 9.43524 7.72484 9.48994 7.72484 10.161C7.72484 10.5031 7.71469 10.819 7.70232 10.863C7.68994 10.9071 7.63778 10.9685 7.58639 10.9997C7.50092 11.0514 7.43806 11.0563 6.84669 11.0564C5.89654 11.0565 5.93544 11.0964 5.94819 10.1359C5.95688 9.48257 5.95749 9.47678 6.0278 9.40253C6.06678 9.36132 6.13851 9.31569 6.1872 9.30106C6.23589 9.28643 6.54962 9.27699 6.88436 9.2801C7.41108 9.28497 7.50307 9.29251 7.5679 9.3363ZM10.9585 9.30023C11.0154 9.31595 11.0937 9.36227 11.1324 9.40316L11.2027 9.4775V10.18V10.8824L11.1223 10.9622L11.042 11.0421H10.3349H9.62782L9.55255 10.9718C9.43126 10.8586 9.41486 10.7464 9.42521 10.1011C9.43871 9.2596 9.42187 9.27546 10.3042 9.2731C10.6071 9.2723 10.9015 9.2845 10.9585 9.30023Z" fill="#999DB4"/>
</svg>
