<svg width="62" height="62" viewBox="0 0 62 62" fill="none" xmlns="http://www.w3.org/2000/svg">
<g id="ecology 2">
<g id="Group">
<path id="Vector" d="M58.6094 30.1523H45.4102V27.3517H46.5C48.2658 27.3497 49.9587 26.6474 51.2073 25.3988C52.4559 24.1502 53.1582 22.4573 53.1602 20.6915V18.754C53.1602 18.5292 53.0709 18.3136 52.9119 18.1546C52.7529 17.9957 52.5373 17.9064 52.3125 17.9064H50.375C49.4363 17.9068 48.5085 18.1063 47.6526 18.4918C46.7968 18.8773 46.0325 19.44 45.4102 20.1427V19.0611L46.5315 17.9393C47.15 17.3209 47.6407 16.5867 47.9754 15.7787C48.3102 14.9707 48.4825 14.1046 48.4825 13.23C48.4825 12.3553 48.3102 11.4893 47.9754 10.6812C47.6407 9.87318 47.15 9.139 46.5315 8.52062L45.1617 7.15081C44.9998 6.99765 44.7854 6.9123 44.5625 6.9123C44.3396 6.9123 44.1252 6.99765 43.9633 7.15081L42.5935 8.52062C41.975 9.139 41.4843 9.87318 41.1496 10.6812C40.8148 11.4893 40.6425 12.3553 40.6425 13.23C40.6425 14.1046 40.8148 14.9707 41.1496 15.7787C41.4843 16.5867 41.975 17.3209 42.5935 17.9393L43.7148 19.0611V20.1427C43.0925 19.44 42.3282 18.8773 41.4724 18.4918C40.6165 18.1063 39.6887 17.9068 38.75 17.9064H36.8125C36.5877 17.9064 36.3721 17.9957 36.2131 18.1546C36.0541 18.3136 35.9648 18.5292 35.9648 18.754V20.6915C35.9668 22.4573 36.6691 24.1502 37.9177 25.3988C39.1663 26.6474 40.8592 27.3497 42.625 27.3517H43.7148V30.1523H18.2852V27.3517H19.375C21.1408 27.3496 22.8336 26.6473 24.0822 25.3987C25.3308 24.1501 26.0331 22.4573 26.0352 20.6915V18.754C26.035 18.5292 25.9457 18.3137 25.7867 18.1548C25.6278 17.9958 25.4123 17.9065 25.1875 17.9064H23.25C22.3113 17.9068 21.3835 18.1063 20.5276 18.4918C19.6718 18.8773 18.9075 19.44 18.2852 20.1427V19.0611L19.407 17.9393C20.6542 16.6893 21.3546 14.9957 21.3546 13.23C21.3546 11.4642 20.6542 9.77057 19.407 8.52062L18.0367 7.15081C17.958 7.07204 17.8646 7.00956 17.7618 6.96692C17.659 6.92429 17.5488 6.90234 17.4375 6.90234C17.3262 6.90234 17.216 6.92429 17.1132 6.96692C17.0104 7.00956 16.917 7.07204 16.8383 7.15081L15.468 8.52062C14.2209 9.77057 13.5204 11.4642 13.5204 13.23C13.5204 14.9957 14.2209 16.6893 15.468 17.9393L16.5898 19.0611V20.1427C15.9675 19.44 15.2032 18.8773 14.3474 18.4918C13.4915 18.1063 12.5637 17.9068 11.625 17.9064H9.6875C9.46273 17.9065 9.2472 17.9958 9.08826 18.1548C8.92932 18.3137 8.83997 18.5292 8.83984 18.754V20.6915C8.84177 22.4573 9.54408 24.1502 10.7927 25.3988C12.0413 26.6474 13.7342 27.3497 15.5 27.3517H16.5898V30.1523H3.39062C3.16585 30.1525 2.95032 30.2418 2.79138 30.4007C2.63244 30.5597 2.5431 30.7752 2.54297 31C2.54297 38.5473 5.54111 45.7854 10.8778 51.1221C16.2146 56.4589 23.4527 59.457 31 59.457C38.5473 59.457 45.7854 56.4589 51.1222 51.1221C56.4589 45.7854 59.457 38.5473 59.457 31C59.457 30.7752 59.3677 30.5596 59.2088 30.4006C59.0498 30.2416 58.8342 30.1523 58.6094 30.1523ZM50.375 19.6017H51.4648V20.6915C51.4634 22.0078 50.9399 23.2698 50.0091 24.2006C49.0783 25.1314 47.8163 25.6549 46.5 25.6564H45.4102V24.5665C45.4116 23.2502 45.9351 21.9882 46.8659 21.0574C47.7967 20.1266 49.0587 19.6031 50.375 19.6017ZM42.3378 13.2302C42.3359 12.578 42.4634 11.9319 42.7129 11.3293C42.9623 10.7267 43.3287 10.1796 43.7909 9.71945L44.5625 8.94881L45.3331 9.71945C45.7945 10.1805 46.1605 10.728 46.4101 11.3305C46.6598 11.9331 46.7884 12.5789 46.7884 13.2312C46.7884 13.8834 46.6598 14.5293 46.4101 15.1318C46.1605 15.7344 45.7945 16.2818 45.3331 16.7429L44.5625 17.5111L43.7919 16.7405C43.3294 16.2805 42.9628 15.7335 42.7132 15.131C42.4637 14.5284 42.336 13.8824 42.3378 13.2302ZM37.6602 20.6896V19.5997H38.75C40.0663 19.6011 41.3283 20.1247 42.2591 21.0555C43.1899 21.9862 43.7134 23.2482 43.7148 24.5646V25.6544H42.625C41.309 25.653 40.0473 25.1297 39.1166 24.1994C38.1858 23.269 37.6621 22.0075 37.6602 20.6915V20.6896ZM23.25 19.6017H24.3398V20.6915C24.3384 22.0078 23.8149 23.2698 22.8841 24.2006C21.9533 25.1314 20.6913 25.6549 19.375 25.6564H18.2852V24.5665C18.2866 23.2502 18.8101 21.9882 19.7409 21.0574C20.6717 20.1266 21.9337 19.6031 23.25 19.6017ZM15.2128 13.2302C15.2108 12.578 15.3383 11.9319 15.5877 11.3293C15.8371 10.7267 16.2036 10.1795 16.6659 9.71945L17.4375 8.94881L18.2081 9.71945C18.6695 10.1805 19.0355 10.728 19.2851 11.3305C19.5348 11.9331 19.6634 12.5789 19.6634 13.2312C19.6634 13.8834 19.5348 14.5293 19.2851 15.1318C19.0355 15.7344 18.6695 16.2818 18.2081 16.7429L17.4375 17.5111L16.6669 16.7405C16.2044 16.2806 15.8377 15.7336 15.5881 15.131C15.3385 14.5285 15.2109 13.8824 15.2128 13.2302ZM10.5352 20.6896V19.5997H11.625C12.9413 19.6011 14.2033 20.1247 15.1341 21.0555C16.0649 21.9862 16.5884 23.2482 16.5898 24.5646V25.6544H15.5C14.184 25.653 12.9223 25.1297 11.9916 24.1994C11.0608 23.269 10.5371 22.0075 10.5352 20.6915V20.6896ZM4.25136 31.8476H35.2761L34.7215 34.4221C34.6509 34.7528 34.4834 35.055 34.2405 35.2902C33.9976 35.5254 33.6902 35.683 33.3575 35.743L29.7295 36.4041C28.8751 36.5608 28.1011 37.0079 27.5387 37.6698L24.2522 41.5472C23.9179 41.9429 23.6688 42.4032 23.5205 42.8994C23.3722 43.3956 23.3277 43.9171 23.39 44.4312L23.6806 46.7964C23.7701 47.5356 24.0785 48.2312 24.566 48.794L27.1332 51.7661C27.3673 52.0367 27.5104 52.374 27.5424 52.7304C27.5743 53.0867 27.4936 53.4441 27.3115 53.752L25.3086 57.1461C19.4855 55.8706 14.2537 52.6907 10.4402 48.1091C6.62662 43.5275 4.44893 37.8054 4.25136 31.8476ZM31 57.7617C29.6889 57.7615 28.3795 57.6653 27.0824 57.474L28.7704 54.6128C29.1328 53.9994 29.2935 53.2877 29.2297 52.578C29.1659 51.8684 28.8809 51.1968 28.4149 50.6579L25.8477 47.6857C25.5808 47.3768 25.4122 46.9953 25.3633 46.5901L25.0727 44.2249C25.0385 43.9429 25.0628 43.6569 25.1442 43.3848C25.2255 43.1127 25.3621 42.8603 25.5455 42.6434L28.8319 38.7684C29.1395 38.4049 29.5631 38.1589 30.0312 38.0719L33.6592 37.4112C34.3224 37.2917 34.935 36.9774 35.4189 36.5085C35.9029 36.0396 36.2362 35.4372 36.3766 34.7781L37.0087 31.8462H48.5169C48.4731 32.1353 48.3681 32.4117 48.2089 32.657L47.1297 34.2937C46.8734 34.6811 46.7025 35.1185 46.6284 35.5771C46.5543 36.0356 46.5788 36.5046 46.7 36.9529L46.9747 37.9672C47.1352 38.5533 47.4824 39.0711 47.9636 39.4422C48.4449 39.8132 49.034 40.0173 49.6417 40.0234L51.3113 40.0365C51.7929 40.0403 52.2666 40.1589 52.6932 40.3823L55.4672 41.8354C53.3651 46.5713 49.9352 50.5962 45.5927 53.4228C41.2502 56.2494 36.1814 57.7565 31 57.7617ZM56.1032 40.2564L53.4789 38.8812C52.8131 38.5332 52.0741 38.3485 51.3229 38.3421L49.6538 38.3291C49.416 38.3267 49.1854 38.2468 48.9971 38.1017C48.8087 37.9565 48.6728 37.7539 48.6099 37.5245L48.3353 36.5107C48.2767 36.2948 48.2648 36.069 48.3004 35.8481C48.336 35.6273 48.4182 35.4166 48.5416 35.23L49.6247 33.5938C49.9689 33.0713 50.1771 32.4711 50.2302 31.8476H57.7486C57.6583 34.7211 57.1026 37.5608 56.1032 40.2564Z" fill="#009E3B"/>
<path id="Vector_2" d="M31.0016 13.3703C31.7296 13.3703 32.4414 13.1544 33.0468 12.7499C33.6521 12.3454 34.124 11.7705 34.4026 11.0978C34.6812 10.4252 34.7541 9.68498 34.6121 8.97089C34.47 8.2568 34.1194 7.60086 33.6046 7.08603C33.0898 6.5712 32.4338 6.22059 31.7197 6.07855C31.0056 5.93651 30.2655 6.00941 29.5928 6.28803C28.9201 6.56666 28.3452 7.03849 27.9407 7.64387C27.5362 8.24925 27.3203 8.96098 27.3203 9.68906C27.3211 10.6652 27.7092 11.601 28.3994 12.2913C29.0896 12.9815 30.0255 13.3695 31.0016 13.3703ZM31.0016 7.70313C31.3943 7.70313 31.7783 7.8196 32.1049 8.03782C32.4315 8.25604 32.686 8.5662 32.8363 8.92908C32.9866 9.29196 33.026 9.69127 32.9493 10.0765C32.8727 10.4617 32.6836 10.8156 32.4058 11.0933C32.1281 11.3711 31.7742 11.5602 31.389 11.6368C31.0038 11.7135 30.6045 11.6741 30.2416 11.5238C29.8787 11.3735 29.5685 11.119 29.3503 10.7924C29.1321 10.4658 29.0156 10.0818 29.0156 9.68906C29.0156 9.16236 29.2249 8.65723 29.5973 8.28479C29.9697 7.91236 30.4749 7.70313 31.0016 7.70313Z" fill="#009E3B"/>
<path id="Vector_3" d="M31 5.04719C31.2248 5.04719 31.4404 4.95788 31.5994 4.79891C31.7583 4.63995 31.8477 4.42434 31.8477 4.19953V3.39062C31.8477 3.16581 31.7583 2.95021 31.5994 2.79124C31.4404 2.63228 31.2248 2.54297 31 2.54297C30.7752 2.54297 30.5596 2.63228 30.4006 2.79124C30.2416 2.95021 30.1523 3.16581 30.1523 3.39062V4.19953C30.1523 4.42434 30.2416 4.63995 30.4006 4.79891C30.5596 4.95788 30.7752 5.04719 31 5.04719Z" fill="#009E3B"/>
<path id="Vector_4" d="M30.1523 15.1758V15.9847C30.1523 16.2095 30.2416 16.4251 30.4006 16.5841C30.5596 16.743 30.7752 16.8323 31 16.8323C31.2248 16.8323 31.4404 16.743 31.5994 16.5841C31.7583 16.4251 31.8477 16.2095 31.8477 15.9847V15.1758C31.8477 14.951 31.7583 14.7354 31.5994 14.5764C31.4404 14.4174 31.2248 14.3281 31 14.3281C30.7752 14.3281 30.5596 14.4174 30.4006 14.5764C30.2416 14.7354 30.1523 14.951 30.1523 15.1758Z" fill="#009E3B"/>
<path id="Vector_5" d="M25.1232 7.27338L25.8236 7.67784C25.9201 7.73437 26.0268 7.77128 26.1375 7.78642C26.2483 7.80156 26.3609 7.79465 26.469 7.76608C26.5771 7.7375 26.6784 7.68783 26.7672 7.61993C26.856 7.55203 26.9305 7.46723 26.9864 7.37042C27.0423 7.2736 27.0785 7.16669 27.0929 7.05584C27.1073 6.94498 27.0997 6.83237 27.0704 6.72448C27.0411 6.6166 26.9908 6.51558 26.9223 6.42723C26.8538 6.33888 26.7685 6.26495 26.6713 6.2097L25.9709 5.80476C25.8745 5.7491 25.768 5.71298 25.6576 5.69846C25.5472 5.68394 25.4351 5.69131 25.3275 5.72014C25.22 5.74897 25.1192 5.7987 25.0308 5.8665C24.9425 5.93429 24.8684 6.01881 24.8128 6.11524C24.7571 6.21167 24.721 6.31812 24.7065 6.42851C24.6919 6.5389 24.6993 6.65107 24.7281 6.75862C24.757 6.86616 24.8067 6.96697 24.8745 7.05529C24.9423 7.14362 25.0268 7.21773 25.1232 7.27338Z" fill="#009E3B"/>
<path id="Vector_6" d="M35.3291 13.1649L36.03 13.5693C36.1265 13.6281 36.2338 13.6669 36.3455 13.6837C36.4572 13.7004 36.5712 13.6946 36.6806 13.6666C36.7901 13.6387 36.8928 13.5891 36.9829 13.5209C37.0729 13.4526 37.1484 13.3671 37.2049 13.2693C37.2614 13.1714 37.2978 13.0633 37.3119 12.9512C37.326 12.8391 37.3176 12.7253 37.2871 12.6166C37.2566 12.5078 37.2047 12.4062 37.1344 12.3178C37.0641 12.2293 36.9768 12.1559 36.8777 12.1017L36.1768 11.6967C35.9822 11.5861 35.7517 11.5569 35.5357 11.6156C35.3197 11.6742 35.1357 11.8159 35.0237 12.0098C34.9118 12.2036 34.8811 12.4339 34.9383 12.6503C34.9955 12.8667 35.136 13.0516 35.3291 13.1649Z" fill="#009E3B"/>
<path id="Vector_7" d="M25.9709 13.5676L26.6713 13.1627C26.7685 13.1074 26.8538 13.0335 26.9223 12.9451C26.9908 12.8568 27.0411 12.7558 27.0704 12.6479C27.0997 12.54 27.1073 12.4274 27.0929 12.3165C27.0785 12.2057 27.0423 12.0988 26.9864 12.0019C26.9305 11.9051 26.856 11.8203 26.7672 11.7524C26.6784 11.6845 26.5771 11.6349 26.469 11.6063C26.3609 11.5777 26.2483 11.5708 26.1375 11.5859C26.0268 11.6011 25.9201 11.638 25.8236 11.6945L25.1232 12.099C24.9285 12.2114 24.7864 12.3965 24.7281 12.6137C24.6699 12.8309 24.7004 13.0624 24.8128 13.2571C24.9252 13.4519 25.1103 13.594 25.3275 13.6522C25.5447 13.7104 25.7761 13.68 25.9709 13.5676Z" fill="#009E3B"/>
<path id="Vector_8" d="M36.1768 7.67595L36.8777 7.27101C36.9768 7.2168 37.0641 7.14332 37.1344 7.05489C37.2047 6.96646 37.2566 6.86488 37.2871 6.75609C37.3176 6.64731 37.326 6.53354 37.3119 6.42145C37.2978 6.30936 37.2614 6.20123 37.2049 6.1034C37.1484 6.00557 37.0729 5.92003 36.9829 5.85179C36.8928 5.78355 36.7901 5.734 36.6806 5.70605C36.5712 5.67809 36.4572 5.6723 36.3455 5.68901C36.2338 5.70572 36.1265 5.7446 36.03 5.80336L35.3291 6.20781C35.136 6.32101 34.9955 6.506 34.9383 6.72241C34.8811 6.93881 34.9118 7.16906 35.0237 7.36291C35.1357 7.55675 35.3197 7.69846 35.5357 7.75711C35.7517 7.81576 35.9822 7.78658 36.1768 7.67595Z" fill="#009E3B"/>
</g>
</g>
</svg>
