<svg width="46" height="46" viewBox="0 0 46 46" fill="none" xmlns="http://www.w3.org/2000/svg">
<circle cx="23" cy="23" r="22.5" stroke="#009E3B"/>
<path fill-rule="evenodd" clip-rule="evenodd" d="M23.7745 12.0065C25.8977 12.2252 27.7153 13.052 29.194 14.4718C29.6662 14.9252 30.0362 15.363 30.1436 15.5953C30.2608 15.849 30.2574 16.1646 30.1349 16.4147L30.0469 16.5944L30.225 16.9092C30.7013 17.7506 31.0243 18.7103 31.1827 19.7541C31.2311 20.0733 31.2538 20.4276 31.2679 21.0842L31.287 21.9791L31.3709 21.9959C31.9678 22.1153 32.5273 22.3662 32.9166 22.6892C33.374 23.0685 33.7241 23.6068 33.9115 24.2192C33.9932 24.4858 34 24.5505 34 25.056C34 25.5591 33.9929 25.6271 33.9132 25.8872C33.542 27.0981 32.6076 27.9072 31.3388 28.116C31.2379 28.1326 31.2179 28.1514 31.1852 28.2604C31.123 28.4678 30.8997 28.7683 30.7038 28.9084C29.9785 29.4272 28.9805 29.1327 28.6256 28.2952L28.5505 28.118L28.5415 25.1529C28.5355 23.1963 28.5438 22.1349 28.5659 22.0322C28.6549 21.6175 28.9494 21.2464 29.331 21.0679C29.5151 20.9818 29.5982 20.963 29.8414 20.9525C30.125 20.9403 30.2215 20.9595 30.5482 21.0933C30.6076 21.1176 30.609 21.1006 30.5908 20.5893C30.5524 19.512 30.2808 18.4628 29.7907 17.4979C29.5205 16.9661 29.558 17.0002 29.2424 16.9992C28.8651 16.998 28.6776 16.9046 28.3814 16.5706C28.2614 16.4353 28.0725 16.2266 27.9616 16.1068C27.7822 15.913 27.7599 15.8743 27.7599 15.7562C27.7599 15.489 28.0542 15.3417 28.2748 15.4986C28.3238 15.5334 28.4931 15.7097 28.6509 15.8902C29.0482 16.3448 29.0393 16.3377 29.2101 16.3369C29.4341 16.3358 29.5671 16.1998 29.5671 15.972C29.5671 15.8191 29.4141 15.6286 28.8125 15.032C28.1303 14.3557 27.5731 13.9498 26.7515 13.531C24.2665 12.2641 21.2517 12.3528 18.833 13.7639C18.0589 14.2154 17.2506 14.8891 16.7087 15.5342C16.4466 15.8461 16.4172 15.9057 16.4471 16.0645C16.4773 16.2253 16.6275 16.3376 16.8123 16.3376C16.9513 16.3376 16.9702 16.3268 17.1077 16.1684C17.456 15.7671 18.1536 15.1024 18.4783 14.8626C19.5107 14.1002 20.5622 13.6623 21.9189 13.43C22.3019 13.3645 23.7874 13.3754 24.194 13.4468C25.1048 13.6067 25.9229 13.8909 26.6871 14.3129C27.1078 14.5453 27.2113 14.6456 27.2113 14.821C27.2113 14.9279 27.1914 14.9765 27.117 15.0508C26.9733 15.1943 26.87 15.1778 26.4774 14.9486C25.0476 14.1139 23.3265 13.8267 21.6729 14.1468C20.1113 14.4492 18.6854 15.2999 17.6628 16.5393C17.4963 16.741 17.4155 16.8094 17.2439 16.8938C17.0558 16.9863 16.9999 16.9984 16.759 16.9992L16.4868 17L16.3771 17.1926C15.796 18.2126 15.4641 19.3986 15.41 20.6483C15.3929 21.0444 15.3968 21.1137 15.4353 21.098C15.4604 21.0877 15.5801 21.0477 15.7013 21.0091C16.3428 20.8045 17.0248 21.1005 17.3292 21.7156L17.4494 21.9585V25.056V28.1535L17.3292 28.3965C17.1822 28.6936 16.9675 28.904 16.666 29.0467C16.465 29.1418 16.4241 29.1493 16.1102 29.1493C15.8264 29.1493 15.7456 29.1375 15.6131 29.0764C15.526 29.0363 15.4493 29.0091 15.4425 29.0158C15.4194 29.0389 15.5553 29.5997 15.6352 29.8112C16.1207 31.0959 17.2205 32.0116 18.5574 32.2445C18.7653 32.2807 19.1253 32.2918 20.0847 32.2918C21.2517 32.2918 21.3414 32.2879 21.3587 32.2354C21.5189 31.7495 21.9302 31.3883 22.4317 31.2934C22.6611 31.2499 23.3419 31.2513 23.583 31.2957C23.8586 31.3465 24.1033 31.4757 24.3091 31.6792C25.0575 32.4189 24.7055 33.683 23.6765 33.9507C23.4554 34.0082 22.6014 34.0182 22.3743 33.9659C21.9591 33.8703 21.5832 33.5636 21.4185 33.1861L21.3262 32.9746L19.9848 32.9599C18.7641 32.9466 18.6153 32.9391 18.3304 32.8761C16.216 32.4086 14.7548 30.634 14.7548 28.5333V28.1353L14.6661 28.1174C13.8473 27.9522 13.3612 27.7053 12.8795 27.2102C12.2717 26.5852 12 25.9199 12 25.056C12 24.3883 12.1424 23.9025 12.4936 23.3719C12.998 22.6097 13.6799 22.179 14.6788 21.9915C14.7473 21.9786 14.7481 21.9692 14.7639 20.9871C14.7811 19.9143 14.809 19.6555 14.9834 18.9527C15.1627 18.2301 15.4351 17.5377 15.7825 16.9211L15.9713 16.5861L15.8875 16.4377C15.8144 16.3083 15.8036 16.252 15.8036 15.9992C15.8036 15.6444 15.8552 15.524 16.1644 15.1567C17.4202 13.665 19.2445 12.5711 21.1333 12.1771C21.7559 12.0473 22.0892 12.014 22.8709 12.0035C23.2969 11.9978 23.7035 11.9992 23.7745 12.0065ZM29.6936 21.628C29.525 21.6785 29.3447 21.8345 29.2732 21.9918C29.2165 22.1164 29.2135 22.2717 29.2135 25.056C29.2135 28.3521 29.198 28.1404 29.4548 28.3518C29.7711 28.6123 30.2459 28.5439 30.4854 28.2036L30.5836 28.0641L30.5932 25.1258C30.6001 23.0315 30.5925 22.1519 30.5668 22.0636C30.5466 21.9941 30.4702 21.8792 30.3931 21.8021C30.203 21.6123 29.9536 21.5502 29.6936 21.628ZM15.7384 21.7027C15.6488 21.7552 15.5622 21.843 15.5061 21.9386C15.4207 22.0837 15.4158 22.1149 15.4003 22.6096C15.3827 23.173 15.3712 23.2099 15.1905 23.2854C15.057 23.3411 14.9303 23.3094 14.8351 23.1965C14.7663 23.1147 14.7548 23.0689 14.7548 22.8751V22.6492L14.6177 22.6719C14.2492 22.7329 13.8117 22.9477 13.4572 23.2417C13.1303 23.5128 12.7984 24.0725 12.7061 24.5081C12.642 24.8107 12.6436 25.3514 12.7094 25.618C12.8593 26.2253 13.2326 26.7516 13.751 27.0866C13.9937 27.2433 14.3794 27.4007 14.6177 27.4402L14.7548 27.4629V25.846V24.2292L14.8491 24.135C14.9523 24.032 15.0785 24.0132 15.2236 24.0793C15.4018 24.1603 15.4002 24.1426 15.4002 26.0941C15.4002 27.1632 15.413 27.9371 15.4316 28.0021C15.5369 28.3687 15.9266 28.5896 16.2892 28.4882C16.3686 28.466 16.4985 28.3907 16.5779 28.3209C16.831 28.0985 16.8201 28.2447 16.8201 25.0398C16.8201 21.8899 16.8298 22.0305 16.5974 21.8038C16.362 21.5742 16.0255 21.5346 15.7384 21.7027ZM31.2774 25.0575V27.4602L31.3984 27.4391C31.9716 27.3395 32.5735 26.9492 32.925 26.4493C33.8756 25.0973 33.2188 23.2078 31.6324 22.731C31.4993 22.691 31.365 22.6575 31.3339 22.6566C31.2806 22.6549 31.2774 22.7901 31.2774 25.0575ZM22.2688 32.0515C21.8303 32.3595 21.8693 33.0197 22.3403 33.2597C22.4495 33.3154 22.5313 33.3232 23 33.3232C23.4631 33.3232 23.5511 33.315 23.6548 33.2617C24.1844 32.9896 24.1789 32.2485 23.6454 31.9973C23.532 31.9439 23.4491 31.9376 22.9623 31.945L22.4083 31.9534L22.2688 32.0515Z" fill="#009E3B"/>
</svg>
