<svg width="21" height="21" viewBox="0 0 21 21" fill="none" xmlns="http://www.w3.org/2000/svg">
<g id="instagram" clip-path="url(#clip0_54_342)">
<path id="Vector" d="M1.31225 1.4312C-0.338003 3.14533 -0.000252895 4.96621 -0.000252895 10.498C-0.000252895 15.0917 -0.801753 19.6968 3.393 20.781C4.70287 21.1178 16.3089 21.1178 17.617 20.7792C19.3635 20.3286 20.7845 18.912 20.9787 16.4418C21.0059 16.0971 21.0059 4.90495 20.9779 4.55321C20.7714 1.92208 19.1517 0.405704 17.0176 0.0985794C16.5285 0.0277044 16.4305 0.00670442 13.921 0.00232942C5.01962 0.00670442 3.06837 -0.389671 1.31225 1.4312Z" fill="url(#paint0_linear_54_342)"/>
<path id="Vector_2" d="M10.4981 2.74576C7.32096 2.74576 4.30396 2.46314 3.15159 5.42064C2.67559 6.64214 2.74471 8.22852 2.74471 10.5C2.74471 12.4933 2.68084 14.3666 3.15159 15.5785C4.30134 18.5378 7.34284 18.2543 10.4963 18.2543C13.5387 18.2543 16.6756 18.571 17.842 15.5785C18.3188 14.3448 18.2488 12.782 18.2488 10.5C18.2488 7.47077 18.416 5.51514 16.9468 4.04689C15.4593 2.55939 13.4477 2.74576 10.4946 2.74576H10.4981ZM9.80334 4.14314C16.4306 4.13264 17.2741 3.39589 16.8086 13.6308C16.6432 17.2506 13.887 16.8534 10.499 16.8534C4.32146 16.8534 4.14384 16.6766 4.14384 10.4965C4.14384 4.24464 4.63384 4.14664 9.80334 4.14139V4.14314ZM14.6368 5.43026C14.1232 5.43026 13.7067 5.84676 13.7067 6.36039C13.7067 6.87401 14.1232 7.29051 14.6368 7.29051C15.1505 7.29051 15.567 6.87401 15.567 6.36039C15.567 5.84676 15.1505 5.43026 14.6368 5.43026ZM10.4981 6.51789C8.29921 6.51789 6.51684 8.30114 6.51684 10.5C6.51684 12.6989 8.29921 14.4813 10.4981 14.4813C12.697 14.4813 14.4785 12.6989 14.4785 10.5C14.4785 8.30114 12.697 6.51789 10.4981 6.51789ZM10.4981 7.91526C13.915 7.91526 13.9193 13.0848 10.4981 13.0848C7.08209 13.0848 7.07684 7.91526 10.4981 7.91526Z" fill="white"/>
</g>
<defs>
<linearGradient id="paint0_linear_54_342" x1="1.35251" y1="19.661" x2="20.8698" y2="2.76906" gradientUnits="userSpaceOnUse">
<stop stop-color="#FFDD55"/>
<stop offset="0.5" stop-color="#FF543E"/>
<stop offset="1" stop-color="#C837AB"/>
</linearGradient>
<clipPath id="clip0_54_342">
<rect width="21" height="21" fill="white"/>
</clipPath>
</defs>
</svg>
