<svg width="16" height="16" viewBox="0 0 16 16" fill="none" xmlns="http://www.w3.org/2000/svg">
<g id="Group 103751">
<g id="Group 103738">
<g id="Group 103578">
<path id="telephone (1) 1 (Traced)" fill-rule="evenodd" clip-rule="evenodd" d="M8.26113 0.0189243C8.26113 0.0363755 8.22593 0.292544 8.1829 0.58815C8.13987 0.883755 8.10466 1.15053 8.10466 1.18099C8.10466 1.22583 8.1506 1.24363 8.34719 1.27497C9.30774 1.42793 10.4598 1.88103 11.2951 2.43437C11.809 2.77482 12.1344 3.03831 12.5598 3.45836C13.6623 4.54705 14.3865 5.86411 14.7218 7.39033C14.7808 7.65885 14.7991 7.70236 14.8507 7.69804C15.0059 7.68503 15.9775 7.51971 15.9969 7.50304C16.0089 7.49263 15.9851 7.32847 15.9439 7.1382C15.3531 4.40829 13.5428 2.0901 11.0412 0.860206C10.248 0.470183 9.44828 0.201285 8.69886 0.0725287C8.53557 0.0444755 8.37028 0.0137953 8.33154 0.00431919C8.2928 -0.00512567 8.26113 0.00144195 8.26113 0.0189243ZM2.45166 1.55759C2.15052 1.62017 2.01252 1.72735 1.20853 2.5231C0.780497 2.94677 0.382851 3.36635 0.324865 3.45551C-0.237072 4.31972 -0.0689007 5.75215 0.820834 7.67999C1.81678 9.83802 3.60852 12.0157 5.66378 13.5662C6.87402 14.4792 8.31671 15.2656 9.51287 15.6643C10.5013 15.9939 11.4308 16.0871 12.0227 15.9159C12.4656 15.7879 12.564 15.7133 13.4463 14.8358C14.1889 14.0972 14.2755 14.0001 14.3674 13.8034C14.4538 13.6183 14.4687 13.5511 14.4687 13.3481C14.4687 13.1454 14.4537 13.0776 14.3677 12.8928C14.2741 12.692 14.1816 12.591 13.1336 11.5464C12.2103 10.626 11.9689 10.402 11.8286 10.335C11.5915 10.2218 11.367 10.1836 11.1636 10.2219C10.8262 10.2855 10.7003 10.3793 9.91599 11.151C9.50949 11.551 9.15293 11.8782 9.12361 11.8782C9.04769 11.8782 8.31017 11.4984 8.02568 11.3128C6.92021 10.5916 5.664 9.36906 4.86035 8.23233C4.58393 7.84134 4.4545 7.62442 4.26975 7.24253C4.15549 7.00631 4.12783 6.9199 4.14476 6.852C4.15878 6.79587 4.42133 6.50858 4.88272 6.04453C5.52286 5.40072 5.6092 5.30161 5.69544 5.11149C5.85949 4.74993 5.82466 4.40522 5.5883 4.05088C5.5284 3.96106 4.99632 3.40647 4.40591 2.81842C3.44194 1.85833 3.31167 1.7397 3.12901 1.65554C2.90538 1.55253 2.65228 1.5159 2.45166 1.55759ZM8.09512 3.27428C8.05181 3.5007 7.93762 4.40347 7.95064 4.41648C7.9589 4.42474 8.07791 4.45463 8.2151 4.48291C9.81923 4.81345 11.1007 6.06151 11.4852 7.6678C11.5176 7.80318 11.5483 7.91734 11.5534 7.92143C11.5679 7.93319 12.7358 7.72941 12.7532 7.71208C12.7726 7.69269 12.7189 7.42758 12.6374 7.14014C12.0726 5.1489 10.3941 3.62086 8.35022 3.2375L8.11077 3.19259L8.09512 3.27428Z"/>
</g>
</g>
</g>
</svg>
