<svg width="62" height="62" viewBox="0 0 62 62" fill="none" xmlns="http://www.w3.org/2000/svg">
<g id="charity 1" clip-path="url(#clip0_54_201)">
<path id="Vector" d="M44.3795 7.08603C41.2413 4.12911 35.864 3.45426 30.9994 8.31888C26.1419 3.45903 20.7575 4.12911 17.6193 7.08364C13.9637 10.5246 13.8993 16.2811 17.4238 19.8056L30.9994 33.3836L44.575 19.808C48.0995 16.2835 48.0351 10.527 44.3795 7.08603ZM42.8891 18.1196L30.9994 30.0117L19.1097 18.122C16.5295 15.5395 16.5796 11.3402 19.2552 8.82203C20.395 7.74418 21.9212 7.1528 23.5522 7.1528C26.967 7.1528 28.5027 9.19403 30.9994 11.6907C33.4293 9.2608 34.9936 7.1528 38.4465 7.1528C40.0776 7.1528 41.6038 7.74418 42.746 8.81964C45.4144 11.333 45.4764 15.5323 42.8891 18.1196Z" fill="#009E3B"/>
<path id="Vector_2" d="M57.925 7.15625C55.8241 7.15625 54.081 8.7301 53.8711 10.819L52.3617 25.7253C51.6344 25.8802 50.9667 26.2332 50.4492 26.7506L38.4045 37.9631C36.7472 39.4726 35.7862 41.6259 35.7695 43.8769V57.2332H50.0772V50.9473C50.0772 49.9768 50.485 49.0325 51.2242 48.3314L60.2738 39.1983C61.3874 38.0728 62.0003 36.5824 62.0003 35.0014V11.2316C62.0003 8.98525 60.1713 7.15625 57.925 7.15625ZM59.6157 35.0014C59.6157 35.9505 59.2485 36.8447 58.5784 37.5219L49.5574 46.6264C48.3722 47.7472 47.6926 49.321 47.6926 50.9473V54.8486H38.1541V43.8913C38.1661 42.3103 38.8409 40.796 40.0213 39.7229L52.1041 28.4699C52.4285 28.1456 52.872 27.9859 53.3418 28.0336C53.6017 28.0574 53.9761 28.1504 54.2956 28.4699C54.5889 28.7633 54.7511 29.1543 54.7511 29.5669C54.7511 29.9794 54.5865 30.3705 54.3361 30.6232L45.0338 39.06L46.6362 40.8246L55.9815 32.3473C56.7255 31.6033 57.1357 30.6161 57.1357 29.5645C57.1357 28.5129 56.7279 27.5256 55.9839 26.784C55.6215 26.4168 55.1994 26.1354 54.7368 25.9423L56.2415 11.0623C56.3297 10.1943 57.0546 9.54087 57.925 9.54087C58.8574 9.54087 59.6157 10.2992 59.6157 11.2316V35.0014Z" fill="#009E3B"/>
<path id="Vector_3" d="M23.5958 37.9631L11.5511 26.7506C11.0336 26.2332 10.3659 25.8779 9.63861 25.7253L8.12915 10.819C7.91931 8.7301 6.17615 7.15625 4.07531 7.15625C1.829 7.15625 0 8.98525 0 11.2316V35.0014C0 36.5824 0.612846 38.0728 1.72646 39.1959L10.7761 48.329C11.5153 49.0301 11.9231 49.9768 11.9231 50.9473V57.2332H26.2308V43.8769C26.2165 41.6259 25.2531 39.4749 23.5958 37.9631ZM23.8462 54.8486H14.3077V50.9473C14.3077 49.3234 13.6281 47.7472 12.4429 46.6264L3.42192 37.5219C2.75185 36.8447 2.38462 35.9505 2.38462 35.0014V11.2316C2.38462 10.2992 3.14292 9.54087 4.07531 9.54087C4.94569 9.54087 5.67061 10.1942 5.75885 11.0575L7.26354 25.9375C6.80092 26.133 6.37885 26.4144 6.01638 26.7793C5.27477 27.5209 4.86461 28.5081 4.86461 29.5597C4.86461 30.6113 5.27477 31.5986 6.01877 32.3426L15.3641 40.8199L16.9665 39.0552L7.66415 30.6185C7.41138 30.3657 7.24923 29.977 7.24923 29.5621C7.24923 29.1472 7.41138 28.7585 7.70469 28.4652C8.02185 28.1456 8.39861 28.0526 8.65854 28.0288C9.13069 27.9835 9.57185 28.1409 9.89615 28.4652L21.979 39.7182C23.1594 40.7913 23.8342 42.3055 23.8462 43.8865V54.8486Z" fill="#009E3B"/>
</g>
<defs>
<clipPath id="clip0_54_201">
<rect width="62" height="62" fill="white"/>
</clipPath>
</defs>
</svg>
