<svg width="12" height="12" viewBox="0 0 12 12" fill="none" xmlns="http://www.w3.org/2000/svg">
<g id="email (1) 1" clip-path="url(#clip0_54_67)">
<g id="Group">
<g id="Group_2">
<path id="Vector" d="M7.77414 6.5L6.76912 7.50842C6.36156 7.91741 5.64447 7.92622 5.2281 7.50842L4.22303 6.5L0.613281 10.1215C0.747648 10.1836 0.895797 10.2207 1.0533 10.2207H10.9439C11.1014 10.2207 11.2495 10.1836 11.3838 10.1215L7.77414 6.5Z" />
</g>
</g>
<g id="Group_3">
<g id="Group_4">
<path id="Vector_2" d="M10.9439 1.78125H1.05325C0.89575 1.78125 0.747602 1.81833 0.613281 1.88046L4.47055 5.75053C4.47081 5.75079 4.47112 5.75084 4.47137 5.75109C4.47163 5.75135 4.47168 5.7517 4.47168 5.7517L5.72589 7.01006C5.85911 7.14328 6.13806 7.14328 6.27128 7.01006L7.52523 5.75191C7.52523 5.75191 7.52554 5.75135 7.5258 5.75109C7.5258 5.75109 7.52636 5.75079 7.52662 5.75053L11.3838 1.88044C11.2495 1.81828 11.1014 1.78125 10.9439 1.78125Z" />
</g>
</g>
<g id="Group_5">
<g id="Group_6">
<path id="Vector_3" d="M0.112172 2.375C0.0426562 2.51558 0 2.67163 0 2.83878V9.16691C0 9.33406 0.0426094 9.49011 0.112148 9.63069L3.72816 6.00296L0.112172 2.375Z" />
</g>
</g>
<g id="Group_7">
<g id="Group_8">
<path id="Vector_4" d="M11.8894 2.37109L8.27344 5.9991L11.8894 9.62688C11.9589 9.4863 12.0016 9.33025 12.0016 9.16305V2.83492C12.0016 2.66772 11.9589 2.51167 11.8894 2.37109Z" />
</g>
</g>
</g>
<defs>
<clipPath id="clip0_54_67">
<rect width="12" height="12" />
</clipPath>
</defs>
</svg>
