<svg width="62" height="62" viewBox="0 0 62 62" fill="none" xmlns="http://www.w3.org/2000/svg">
<g id="good-feedback 1" clip-path="url(#clip0_54_195)">
<path id="Vector" d="M39.1455 6.11527C38.8799 5.3165 38.2093 4.73163 37.396 4.5911L34.4066 4.0734L33.0033 1.25447C32.6158 0.481533 31.8491 0 31.0007 0C30.1524 0 29.3856 0.481533 28.9981 1.2555L27.5949 4.07443L24.6065 4.59213C23.7922 4.73267 23.1205 5.3165 22.856 6.1163C22.5822 6.93677 22.7785 7.83163 23.3665 8.45473L25.5158 10.7301L25.0591 13.8983C24.933 14.7684 25.2947 15.6209 26.0015 16.1221C26.3838 16.3938 26.8312 16.5313 27.2797 16.5313C27.6279 16.5313 27.9782 16.4486 28.2996 16.2802L30.9997 14.8738L33.6998 16.2802C34.4376 16.6666 35.319 16.6036 35.999 16.1221C36.7068 15.6209 37.0674 14.7674 36.9414 13.8983L36.4846 10.7301L38.634 8.45473C39.2219 7.83163 39.4183 6.93677 39.1444 6.1163L39.1455 6.11527ZM37.1336 7.03493L34.6412 9.67407C34.4242 9.90347 34.3239 10.2186 34.3694 10.5307L34.8985 14.1928C34.9191 14.3396 34.8396 14.4119 34.8055 14.4367C34.7331 14.4853 34.6835 14.4615 34.6556 14.4481L31.4781 12.7916C31.1795 12.6366 30.822 12.6366 30.5233 12.7916L27.3458 14.4481C27.3179 14.4625 27.2673 14.4853 27.196 14.4367C27.1619 14.4119 27.0834 14.3385 27.103 14.1928L27.6321 10.5307C27.6775 10.2186 27.5773 9.90347 27.3603 9.67407L24.8679 7.03493C24.7739 6.9347 24.8007 6.81483 24.8162 6.76833C24.8431 6.6867 24.8906 6.6402 24.9588 6.6278L28.4639 6.0202C28.7873 5.96337 29.0653 5.7567 29.2131 5.4622L30.8499 2.1762C30.8633 2.14933 30.9046 2.06667 31.0007 2.06667C31.0968 2.06667 31.1392 2.1483 31.1516 2.17517L32.7884 5.4622C32.9362 5.7567 33.2131 5.96337 33.5376 6.0202L37.0437 6.6278C37.1098 6.6402 37.1573 6.6867 37.1852 6.76833C37.2018 6.81483 37.2276 6.9347 37.1336 7.03493Z" fill="#009E3B"/>
<path id="Vector_2" d="M20.5429 14.3809C20.2773 13.5821 19.6067 12.9973 18.7934 12.8567L15.804 12.339L14.4007 9.52009C14.0153 8.74716 13.2486 8.26562 12.3992 8.26562C11.5498 8.26562 10.7841 8.74716 10.3966 9.52113L8.99331 12.3401L6.00491 12.8578C5.19064 12.9983 4.51897 13.5821 4.25444 14.3819C3.98061 15.2024 4.17694 16.0973 4.76491 16.7204L6.91424 18.9958L6.45751 22.164C6.33144 23.034 6.69311 23.8865 7.39991 24.3877C7.78224 24.6595 8.22967 24.7969 8.67814 24.7969C9.02637 24.7969 9.37667 24.7142 9.69804 24.5458L12.3981 23.1394L15.0982 24.5458C15.8371 24.9323 16.7185 24.8692 17.3974 24.3877C18.1052 23.8865 18.4659 23.033 18.3398 22.164L17.8831 18.9958L20.0324 16.7204C20.6204 16.0973 20.8167 15.2014 20.5429 14.3809ZM18.531 15.3006L16.0386 17.9397C15.8216 18.1691 15.7213 18.4843 15.7668 18.7963L16.2959 22.4585C16.3165 22.6052 16.237 22.6775 16.2029 22.7023C16.1305 22.7509 16.0809 22.7282 16.053 22.7137L12.8755 21.0573C12.5769 20.9023 12.2194 20.9023 11.9207 21.0573L8.74324 22.7137C8.71534 22.7292 8.66574 22.7509 8.59341 22.7023C8.55931 22.6775 8.48077 22.6042 8.50041 22.4585L9.02947 18.7963C9.07494 18.4843 8.97471 18.1691 8.75771 17.9397L6.26531 15.3006C6.17127 15.2003 6.19814 15.0805 6.21364 15.034C6.24051 14.9523 6.28804 14.9058 6.35624 14.8934L9.86131 14.2858C10.1847 14.229 10.4627 14.0223 10.6105 13.7278L12.2473 10.4418C12.2607 10.415 12.302 10.3323 12.3981 10.3323C12.4942 10.3323 12.5366 10.4139 12.549 10.4408L14.1858 13.7278C14.3336 14.0223 14.6105 14.229 14.935 14.2858L18.4411 14.8934C18.5072 14.9058 18.5547 14.9523 18.5826 15.034C18.5992 15.0805 18.625 15.2003 18.531 15.3006Z" fill="#009E3B"/>
<path id="Vector_3" d="M57.746 14.3809C57.4804 13.5821 56.8098 12.9973 55.9966 12.8567L53.0071 12.339L51.6039 9.52009C51.2184 8.74716 50.4517 8.26562 49.6023 8.26562C48.7529 8.26562 47.9872 8.74716 47.5997 9.52113L46.1964 12.3401L43.208 12.8578C42.3938 12.9983 41.7221 13.5821 41.4576 14.3819C41.1837 15.2024 41.3801 16.0973 41.968 16.7204L44.1174 18.9958L43.6606 22.164C43.5346 23.034 43.8962 23.8865 44.603 24.3877C44.9854 24.6595 45.4328 24.7969 45.8813 24.7969C46.2295 24.7969 46.5798 24.7142 46.9012 24.5458L49.6013 23.1394L52.3014 24.5458C53.0392 24.9323 53.9216 24.8692 54.6005 24.3877C55.3084 23.8865 55.669 23.033 55.5429 22.164L55.0862 18.9958L57.2355 16.7204C57.8235 16.0973 58.0198 15.2014 57.746 14.3809ZM55.7341 15.3006L53.2417 17.9397C53.0247 18.1691 52.9245 18.4843 52.9699 18.7963L53.499 22.4585C53.5197 22.6052 53.4401 22.6775 53.406 22.7023C53.3337 22.7509 53.2841 22.7282 53.2562 22.7137L50.0787 21.0573C49.78 20.9023 49.4225 20.9023 49.1239 21.0573L45.9464 22.7137C45.9195 22.7292 45.8678 22.7509 45.7965 22.7023C45.7624 22.6775 45.6839 22.6042 45.7035 22.4585L46.2326 18.7963C46.2781 18.4843 46.1778 18.1691 45.9608 17.9397L43.4684 15.3006C43.3744 15.2003 43.4013 15.0805 43.4168 15.034C43.4436 14.9523 43.4912 14.9058 43.5594 14.8934L47.0644 14.2858C47.3879 14.229 47.6658 14.0223 47.8136 13.7278L49.4504 10.4418C49.4638 10.415 49.5052 10.3323 49.6013 10.3323C49.6974 10.3323 49.7397 10.4139 49.7521 10.4408L51.3889 13.7278C51.5367 14.0223 51.8136 14.229 52.1381 14.2858L55.6442 14.8934C55.7103 14.9058 55.7579 14.9523 55.7858 15.034C55.8023 15.0805 55.8281 15.2003 55.7341 15.3006Z" fill="#009E3B"/>
<path id="Vector_4" d="M31 24.8008C13.9066 24.8008 0 38.7074 0 55.8008C0 56.9405 0.9269 57.8674 2.06667 57.8674H14.4667C15.6064 57.8674 16.5333 56.9405 16.5333 55.8008C16.5333 47.8234 23.0227 41.3341 31 41.3341C35.8928 41.3341 40.4157 43.81 43.0807 47.8648C38.472 49.4943 34.8988 50.8098 32.2679 51.8431C31.8597 51.7387 31.4402 51.6674 31 51.6674C28.1511 51.6674 25.8333 53.9852 25.8333 56.8341C25.8333 59.683 28.1511 62.0008 31 62.0008C33.0346 62.0008 34.782 60.8083 35.6242 59.094C38.3243 57.6236 41.7901 55.6272 45.2765 53.5812C45.3902 54.3128 45.4667 55.0526 45.4667 55.8008C45.4667 56.9405 46.3936 57.8674 47.5333 57.8674H59.9333C61.0731 57.8674 62 56.9405 62 55.8008C62 38.7074 48.0934 24.8008 31 24.8008ZM41.9296 43.4101C39.2078 41.0065 35.7399 39.534 32.0333 39.3026V26.8933C39.2315 27.1475 45.7674 30.0408 50.7015 34.6381L41.9296 43.4101ZM14.4667 55.8008H2.06667C2.06667 48.1944 5.02097 41.269 9.83733 36.0992L18.6186 44.8805C16.0435 47.7966 14.4667 51.6137 14.4667 55.8008ZM20.0797 43.4194L11.2985 34.6381C16.2326 30.0418 22.7674 27.1485 29.9667 26.8933V39.3191C26.1867 39.5547 22.753 41.0582 20.0797 43.4194ZM52.9635 46.6155C48.0045 49.5832 41.1349 53.6669 36.1274 56.4559C36.0323 55.1673 35.4836 54.0048 34.6136 53.1513C38.7727 51.5651 44.8074 49.4148 52.9635 46.6155ZM30.999 59.9341C29.2898 59.9341 27.899 58.5432 27.899 56.8341C27.899 55.125 29.2898 53.7341 30.999 53.7341C32.7081 53.7341 34.099 55.125 34.099 56.8341C34.099 58.5432 32.7081 59.9341 30.999 59.9341ZM47.5323 55.8008C47.5323 54.6703 47.4124 53.5502 47.1861 52.4569C49.6155 51.0226 51.9839 49.6101 54.0289 48.3876C54.9578 47.8245 55.2999 46.7074 54.8442 45.7309C54.3905 44.7606 53.3262 44.3039 52.3011 44.6573C49.6754 45.5584 47.276 46.3912 45.0792 47.1621C44.577 46.3447 44.0097 45.5821 43.3866 44.8753L52.1606 36.1013C56.977 41.2711 59.9313 48.1965 59.9313 55.8028H47.5313L47.5323 55.8008Z" fill="#009E3B"/>
</g>
<defs>
<clipPath id="clip0_54_195">
<rect width="62" height="62" fill="white"/>
</clipPath>
</defs>
</svg>
