<svg width="12" height="12" viewBox="0 0 12 12" fill="none" xmlns="http://www.w3.org/2000/svg">
<g id="maps-and-flags 1">
<g id="Group">
<g id="Group_2">
<path id="Vector" d="M5.99829 0C3.60192 0 1.65234 1.94958 1.65234 4.34592C1.65234 7.31986 5.54154 11.6858 5.70712 11.8702C5.86266 12.0434 6.1342 12.0431 6.28945 11.8702C6.45504 11.6858 10.3442 7.31986 10.3442 4.34592C10.3442 1.94958 8.39463 0 5.99829 0ZM5.99829 6.53248C4.79262 6.53248 3.81176 5.55159 3.81176 4.34592C3.81176 3.14025 4.79264 2.15939 5.99829 2.15939C7.20394 2.15939 8.1848 3.14027 8.1848 4.34595C8.1848 5.55162 7.20394 6.53248 5.99829 6.53248Z"/>
</g>
</g>
</g>
</svg>
