<svg width="30" height="30" viewBox="0 0 30 30" fill="none" xmlns="http://www.w3.org/2000/svg">
<g id="headphones 2">
<g id="Group">
<g id="Group_2">
<path id="Vector" d="M7.96875 12.3047C6.5148 12.3047 5.33203 13.4875 5.33203 14.9414V22.0898C5.33203 23.5438 6.5148 24.7266 7.96875 24.7266C9.4227 24.7266 10.6055 23.5438 10.6055 22.0898V14.9414C10.6055 13.4875 9.4227 12.3047 7.96875 12.3047Z" />
</g>
</g>
<g id="Group_3">
<g id="Group_4">
<path id="Vector_2" d="M3.57422 14.9395C3.57422 14.686 3.60768 14.441 3.6491 14.1992C2.58984 14.5416 1.81641 15.5255 1.81641 16.6973V20.3301C1.81641 21.5019 2.58984 22.4858 3.6491 22.8282C3.60768 22.5864 3.57422 22.3415 3.57422 22.0879V14.9395Z" />
</g>
</g>
<g id="Group_5">
<g id="Group_6">
<path id="Vector_3" d="M22.0312 12.3047C20.5773 12.3047 19.3945 13.4875 19.3945 14.9414V22.0898C19.3945 23.5438 20.5773 24.7266 22.0312 24.7266C22.2955 24.7266 22.5458 24.6757 22.7866 24.603C22.4595 25.6876 21.4632 26.4844 20.2734 26.4844H17.4748C17.1108 25.4636 16.1443 24.7266 15 24.7266C13.5461 24.7266 12.3633 25.9093 12.3633 27.3633C12.3633 28.8172 13.5461 30 15 30C16.1443 30 17.1108 29.263 17.4748 28.2422H20.2734C22.6965 28.2422 24.668 26.2707 24.668 23.8477V22.0898V14.9414C24.668 13.4875 23.4852 12.3047 22.0312 12.3047Z" />
</g>
</g>
<g id="Group_7">
<g id="Group_8">
<path id="Vector_4" d="M26.3516 14.2031C26.393 14.4449 26.4264 14.6899 26.4264 14.9434V22.0918C26.4264 22.3454 26.393 22.5903 26.3516 22.8321C27.4108 22.4897 28.1843 21.5058 28.1843 20.334V16.7012C28.1843 15.5294 27.4108 14.5455 26.3516 14.2031Z" />
</g>
</g>
<g id="Group_9">
<g id="Group_10">
<path id="Vector_5" d="M15 0C7.73016 0 1.81641 5.91375 1.81641 13.1836V13.206C2.34006 12.8096 2.94592 12.5195 3.61447 12.3896C4.02527 6.46002 8.96801 1.75781 15 1.75781C21.032 1.75781 25.9747 6.46002 26.3855 12.3895C27.054 12.5194 27.6599 12.8096 28.1836 13.206V13.1836C28.1836 5.91375 22.2698 0 15 0Z" />
</g>
</g>
</g>
</svg>
