<svg width="46" height="46" viewBox="0 0 46 46" fill="none" xmlns="http://www.w3.org/2000/svg">
<g clip-path="url(#clip0_210_60)">
<path d="M33.1276 16.8542L23.1387 12.032C23.0502 11.9893 22.9471 11.9893 22.8585 12.032L12.8696 16.8542C12.7583 16.908 12.6875 17.0208 12.6875 17.1445V28.8555C12.6875 28.9792 12.7583 29.092 12.8696 29.1458L22.8585 33.968C22.9028 33.9893 22.9507 34 22.9986 34C23.0465 34 23.0944 33.9893 23.1387 33.968L33.1276 29.1458C33.239 29.092 33.3097 28.9792 33.3097 28.8555V17.1445C33.3097 17.0207 33.2389 16.908 33.1276 16.8542ZM22.9986 12.6801L32.2462 17.1445L29.5655 18.4386C29.5486 18.4257 29.5306 18.4137 29.511 18.4042L20.3262 13.9703L22.9986 12.6801ZM19.5984 14.3346L28.8325 18.7925L26.9413 19.7055L17.7109 15.2495L19.5984 14.3346ZM29.0486 19.4038V22.7789L27.282 23.6317V20.2567L29.0486 19.4038ZM32.6652 28.6533L23.3209 33.1643V22.1689L25.5498 21.0929C25.7101 21.0155 25.7773 20.8229 25.6999 20.6626C25.6225 20.5023 25.4299 20.435 25.2696 20.5125L22.9986 21.6088L22.105 21.1774C21.9447 21.0999 21.7521 21.1672 21.6747 21.3275C21.5973 21.4878 21.6645 21.6805 21.8248 21.7578L22.6764 22.1689V33.1643L13.332 28.6532V17.6579L20.4477 21.093C20.4928 21.1149 20.5406 21.1252 20.5875 21.1252C20.7073 21.1252 20.8224 21.058 20.8779 20.9429C20.9553 20.7827 20.8881 20.59 20.7279 20.5126L13.751 17.1445L16.9524 15.599L26.633 20.2724C26.6344 20.2743 26.636 20.2761 26.6375 20.278V24.1452C26.6375 24.2561 26.6945 24.3592 26.7884 24.4182C26.8406 24.4509 26.9001 24.4674 26.9598 24.4674C27.0076 24.4674 27.0555 24.4568 27.0999 24.4354L29.511 23.2714C29.6223 23.2177 29.6931 23.1049 29.6931 22.9812V19.0927L32.6652 17.6579V28.6533Z" fill="#009E3B"/>
<path d="M15.9947 27.4039L14.5289 26.6962C14.3685 26.6188 14.1759 26.686 14.0985 26.8463C14.0211 27.0066 14.0884 27.1993 14.2486 27.2767L15.7145 27.9843C15.7597 28.0061 15.8074 28.0164 15.8544 28.0164C15.9742 28.0164 16.0892 27.9493 16.1448 27.8342C16.2222 27.6739 16.155 27.4813 15.9947 27.4039Z" fill="#009E3B"/>
<path d="M17.3418 26.5229L14.5288 25.1649C14.3685 25.0876 14.1759 25.1548 14.0985 25.3151C14.0212 25.4753 14.0884 25.668 14.2486 25.7454L17.0616 27.1034C17.1068 27.1252 17.1545 27.1355 17.2015 27.1355C17.3213 27.1355 17.4363 27.0684 17.4919 26.9533C17.5693 26.7929 17.5021 26.6003 17.3418 26.5229Z" fill="#009E3B"/>
</g>
<circle cx="23" cy="23" r="22.5" stroke="#009E3B"/>
<defs>
<clipPath id="clip0_210_60">
<rect width="22" height="22" fill="white" transform="translate(12 12)"/>
</clipPath>
</defs>
</svg>
