<svg width="46" height="46" viewBox="0 0 46 46" fill="none" xmlns="http://www.w3.org/2000/svg">
<circle cx="23" cy="23" r="22.5" stroke="#009E3B"/>
<g clip-path="url(#clip0_210_61)">
<path d="M33.609 16.1602C33.324 15.8233 32.9248 15.6175 32.4849 15.5807L16.9923 14.2871C16.5524 14.2504 16.1247 14.3871 15.7877 14.6722C15.4521 14.956 15.2465 15.3532 15.2086 15.7909L14.8969 18.7152H13.6524C12.7413 18.7152 12 19.4564 12 20.3676V30.0656C12 30.9768 12.7413 31.718 13.6524 31.718H29.1989C30.1101 31.718 30.8513 30.9768 30.8513 30.0656V28.4924L31.403 28.5385C31.4496 28.5424 31.4958 28.5443 31.5417 28.5443C32.3911 28.5443 33.1152 27.8908 33.1872 27.0294L33.9942 17.3649C34.0309 16.925 33.8941 16.4972 33.609 16.1602ZM13.6524 19.5746H29.1989C29.6362 19.5746 29.992 19.9303 29.992 20.3676V21.2512H12.8594V20.3676C12.8594 19.9303 13.2151 19.5746 13.6524 19.5746ZM12.8594 22.1106H29.992V23.8933H12.8594V22.1106ZM29.1989 30.8586H13.6524C13.2151 30.8586 12.8594 30.5029 12.8594 30.0656V24.7527H29.992V30.0656C29.992 30.5029 29.6362 30.8586 29.1989 30.8586ZM33.1377 17.2934L32.3308 26.9578C32.2944 27.3936 31.9102 27.7186 31.4745 27.6821L30.8513 27.6301V20.3676C30.8513 19.4564 30.1101 18.7152 29.1989 18.7152H15.7612L16.0637 15.8776C16.064 15.8743 16.0643 15.8711 16.0646 15.8678C16.101 15.432 16.4849 15.107 16.9208 15.1435L32.4135 16.4371C32.6246 16.4548 32.8162 16.5535 32.9529 16.7153C33.0897 16.877 33.1554 17.0823 33.1377 17.2934Z" fill="#009E3B"/>
<path d="M28.194 26.0312H24.0586C23.8213 26.0312 23.6289 26.2236 23.6289 26.4609V29.1589C23.6289 29.3962 23.8213 29.5886 24.0586 29.5886H28.194C28.4313 29.5886 28.6237 29.3962 28.6237 29.1589V26.4609C28.6237 26.2236 28.4313 26.0312 28.194 26.0312ZM27.7643 28.7292H24.4883V26.8906H27.7643V28.7292Z" fill="#009E3B"/>
</g>
<defs>
<clipPath id="clip0_210_61">
<rect width="22" height="22" fill="white" transform="translate(12 12)"/>
</clipPath>
</defs>
</svg>
