<svg width="46" height="46" viewBox="0 0 46 46" fill="none" xmlns="http://www.w3.org/2000/svg">
<circle cx="23" cy="23" r="22.5" stroke="#009E3B"/>
<g clip-path="url(#clip0_210_62)">
<path d="M26.4578 19.9302L24.6034 19.4133L23.5387 17.8095C23.2927 17.428 22.7107 17.4282 22.4647 17.8095L21.4001 19.4133L19.5457 19.9302C19.3377 19.9882 19.1725 20.1465 19.1058 20.3519C19.039 20.5573 19.0796 20.7824 19.2138 20.9517L20.4102 22.4598L20.3289 24.383C20.3197 24.5988 20.4193 24.8048 20.594 24.9317C20.7686 25.0586 20.9952 25.0896 21.1977 25.0143L23.0018 24.3426L24.8058 25.0143C25.0082 25.0896 25.2349 25.0586 25.4096 24.9317C25.5843 24.8048 25.6838 24.5988 25.6747 24.383L25.5933 22.4598L26.7897 20.9517C26.9239 20.7824 26.9644 20.5573 26.8978 20.3519C26.8309 20.1465 26.6658 19.9882 26.4578 19.9302ZM24.4343 21.8467C24.3381 21.968 24.2887 22.1198 24.2953 22.2745L24.3457 23.4675L23.2266 23.0508C23.0816 22.9968 22.9219 22.9968 22.7768 23.0508L21.6577 23.4675L21.7082 22.2745C21.7147 22.1198 21.6654 21.968 21.5692 21.8467L20.8271 20.9112L21.9774 20.5905C22.1265 20.5489 22.2557 20.4551 22.3413 20.3261L23.0017 19.3313L23.6622 20.3261C23.7478 20.4551 23.877 20.5489 24.0261 20.5905L25.1764 20.9112L24.4343 21.8467Z" fill="#009E3B"/>
<path d="M33.8108 28.9947L31.2971 26.4807C35.0723 20.2181 30.3558 11.9283 22.9997 12.0005C15.6446 11.928 10.9265 20.2195 14.7026 26.4807L12.1888 28.9947C12.0308 29.1527 11.9659 29.3812 12.0173 29.5986C12.0686 29.816 12.2288 29.9913 12.4407 30.0619L15.0638 30.9362L15.9381 33.5593C16.0087 33.7712 16.184 33.9315 16.4015 33.9828C16.6189 34.0341 16.8473 33.9692 17.0053 33.8112L20.0436 30.7732C21.8897 31.3898 24.1098 31.3898 25.956 30.7732L28.9943 33.8112C29.1523 33.9692 29.3808 34.0341 29.5982 33.9828C29.8156 33.9315 29.9909 33.7712 30.0615 33.5593L30.9358 30.9362L33.5589 30.0619C33.7708 29.9913 33.9311 29.816 33.9824 29.5986C34.0337 29.3812 33.9688 29.1527 33.8108 28.9947ZM16.8315 32.1624L16.1848 30.2227C16.1206 30.0303 15.9696 29.8793 15.7772 29.8151L13.8377 29.1686L15.441 27.5654C16.3289 28.6895 17.4672 29.6123 18.7467 30.2471L16.8315 32.1624ZM22.9998 29.9496C18.4066 29.9496 14.6698 26.2127 14.6698 21.6195C15.1273 10.5685 30.874 10.5717 31.3299 21.6196C31.3299 26.2127 27.593 29.9496 22.9998 29.9496ZM30.2225 29.8151C30.03 29.8793 29.879 30.0303 29.8149 30.2227L29.1682 32.1624L27.253 30.2471C28.5325 29.6124 29.6708 28.6895 30.5588 27.5654L32.162 29.1686L30.2225 29.8151Z" fill="#009E3B"/>
<path d="M22.9983 14.7617C19.217 14.7617 16.1406 17.8381 16.1406 21.6194C16.5173 30.7171 29.4807 30.7144 29.856 21.6194C29.856 17.8381 26.7797 14.7617 22.9983 14.7617ZM22.9983 27.1881C19.9277 27.1881 17.4297 24.69 17.4297 21.6194C17.7356 14.2318 28.2622 14.234 28.567 21.6195C28.567 24.69 26.0689 27.1881 22.9983 27.1881Z" fill="#009E3B"/>
</g>
<defs>
<clipPath id="clip0_210_62">
<rect width="22" height="22" fill="white" transform="translate(12 12)"/>
</clipPath>
</defs>
</svg>
