<svg width="97" height="48" viewBox="0 0 97 48" fill="none" xmlns="http://www.w3.org/2000/svg">
<g id="logo">
<path id="path90" fill-rule="evenodd" clip-rule="evenodd" d="M17.3745 18.8964V25.9025H14.5978C14.5466 25.0658 14.4577 24.378 14.3303 23.8472C14.2029 23.3122 14.0202 22.8622 13.7783 22.497C13.4895 22.0683 13.1117 21.7625 12.653 21.5844C12.1945 21.4058 11.3156 21.3166 10.0163 21.3166H7.8211V26.0043H8.48355C9.25208 26.0043 9.79538 25.8175 10.1055 25.4438C10.4156 25.0702 10.5726 24.408 10.5726 23.4524V23.3037H12.7125V31.0994H10.5726C10.5386 29.9064 10.3858 29.1336 10.1055 28.7811C9.82942 28.4244 9.29459 28.2461 8.50888 28.2461H7.8211V32.0971C7.8211 32.8064 7.91025 33.2267 8.0886 33.3625C8.26696 33.5026 8.64497 33.5706 9.2182 33.5706H10.1649V35.9908H0V33.5706H0.857746C1.42258 33.5706 1.79616 33.5026 1.97436 33.371C2.15271 33.2395 2.24185 32.853 2.24185 32.2246V32.0971V22.7688C2.24185 22.1064 2.15707 21.6989 1.99146 21.5459C1.82593 21.3932 1.43945 21.3166 0.836451 21.3166H0V18.8964H17.3745ZM20.2157 22.3314C20.2157 21.8433 20.1352 21.5206 19.9779 21.3676C19.821 21.2149 19.5023 21.1385 19.0184 21.1385H18.4579V18.8964H25.2345V32.5558C25.2345 33.0527 25.3108 33.3753 25.4638 33.5239C25.6165 33.6725 25.9351 33.7489 26.4148 33.7489H26.814V35.9908H18.4579V33.7489H19.0184C19.5023 33.7489 19.821 33.6725 19.9779 33.5196C20.1352 33.3668 20.2157 33.0442 20.2157 32.5558V22.3314ZM35.7483 30.4116C35.451 30.5771 35.0519 30.7808 34.5594 31.0187C33.4341 31.5665 32.8694 32.0888 32.8694 32.5813C32.8694 32.9294 32.9926 33.2182 33.2432 33.4388C33.4892 33.6641 33.8078 33.7743 34.1985 33.7743C34.6784 33.7743 35.0604 33.6172 35.3448 33.3072C35.6294 32.9973 35.7736 32.577 35.7736 32.0462V31.9615L35.7483 30.4116ZM36.2831 34.7212C35.8459 35.2689 35.2472 35.6894 34.4915 35.9823C33.7399 36.2752 32.8737 36.4239 31.893 36.4239C30.6275 36.4239 29.647 36.131 28.9589 35.5407C28.2711 34.9506 27.9272 34.1141 27.9272 33.027C27.9272 31.9656 28.2329 31.1673 28.8487 30.6366C29.4599 30.1059 30.6362 29.6899 32.3771 29.3924C33.8291 29.142 34.7419 28.8701 35.1199 28.5731C35.4979 28.2715 35.6847 27.813 35.6847 27.1931C35.6847 26.5775 35.4763 26.0893 35.0519 25.7282C34.6314 25.3674 34.0541 25.1891 33.3281 25.1891C33.0859 25.1891 32.8442 25.2229 32.5936 25.2951C32.3471 25.3631 32.0882 25.4694 31.825 25.6137C32.2707 25.7452 32.602 25.9448 32.8229 26.2164C33.0393 26.484 33.1497 26.8323 33.1497 27.2569C33.1497 27.7789 32.9459 28.1994 32.5385 28.5262C32.1351 28.8491 31.5957 29.0106 30.925 29.0106C30.1265 29.0106 29.5153 28.8237 29.0822 28.4501C28.6532 28.0764 28.4367 27.5498 28.4367 26.8704C28.4367 25.8216 28.9758 25.0063 30.0545 24.4164C31.1328 23.826 32.6361 23.5331 34.572 23.5331C35.6337 23.5331 36.5806 23.6179 37.4127 23.7837C38.2448 23.9493 38.8775 24.1743 39.3107 24.4672C39.8329 24.8154 40.1981 25.2272 40.4062 25.707C40.6142 26.1826 40.716 26.9342 40.716 27.9657V32.6067C40.716 32.921 40.7499 33.129 40.8221 33.2223C40.8901 33.3202 41.0261 33.3668 41.2255 33.3668C41.4251 33.3668 41.5653 33.3158 41.6416 33.2182C41.7222 33.1162 41.7605 32.9125 41.7605 32.6067V31.1504H43.4419V32.7298C43.4419 34.0503 43.1446 34.9929 42.546 35.5664C41.9474 36.1394 40.9751 36.4239 39.6207 36.4239C38.8562 36.4239 38.2023 36.2837 37.659 36.0079C37.1154 35.7275 36.657 35.2986 36.2831 34.7212ZM68.2885 20.9853C67.1333 20.9853 66.2927 21.4948 65.7663 22.5098C65.2397 23.5244 64.9765 25.1591 64.9765 27.4052C64.9765 29.694 65.2397 31.35 65.762 32.3733C66.2842 33.3922 67.1164 33.9017 68.2629 33.9017C69.4263 33.9017 70.2669 33.3966 70.7892 32.3818C71.3117 31.3713 71.5747 29.7363 71.5747 27.4819C71.5747 25.2057 71.3117 23.5584 70.7892 22.5267C70.2669 21.499 69.4346 20.9853 68.2885 20.9853ZM58.3525 27.4563C58.3525 24.6283 59.2315 22.4078 60.9895 20.7984C62.7473 19.1891 65.1803 18.3867 68.2798 18.3867C71.3668 18.3867 73.787 19.1891 75.5404 20.7984C77.2943 22.4078 78.173 24.6283 78.173 27.4563C78.173 30.2842 77.2943 32.4963 75.5363 34.0972C73.7785 35.6981 71.3414 36.5004 68.2332 36.5004C65.1549 36.5004 62.7388 35.6981 60.9854 34.0885C59.2315 32.4794 58.3525 30.2673 58.3525 27.4563ZM85.9723 32.5558C85.9723 33.0442 86.049 33.3668 86.2018 33.5196C86.3545 33.6725 86.6774 33.7489 87.1656 33.7489H87.603V35.9908H79.2466V33.7489H79.7561C80.2486 33.7489 80.5672 33.6725 80.7245 33.5196C80.877 33.3668 80.9537 33.0442 80.9537 32.5558V27.4011C80.9537 26.9043 80.877 26.5814 80.7245 26.4328C80.5672 26.2844 80.2486 26.208 79.7561 26.208H79.2466V23.9661H85.9723V32.5558ZM90.4016 22.3312C90.4016 21.843 90.3209 21.5204 90.1638 21.3674C90.0067 21.2146 89.6882 21.1382 89.2043 21.1382H88.6437V18.8962H95.4204V32.5558C95.4204 33.0524 95.497 33.3753 95.6497 33.5239C95.8025 33.6725 96.121 33.7489 96.601 33.7489H97V35.9908H88.6437V33.7489H89.2043C89.6882 33.7489 90.0067 33.6725 90.1638 33.5196C90.3209 33.3668 90.4016 33.0442 90.4016 32.5558V22.3312ZM83.0654 19.4765C82.8557 19.4765 82.6853 19.6467 82.6853 19.8566C82.6853 20.0662 82.8557 20.2364 83.0654 20.2364C83.2755 20.2364 83.4452 20.0662 83.4452 19.8566C83.4452 19.6467 83.2755 19.4765 83.0654 19.4765ZM83.0654 22.6067C83.7154 22.6067 84.3487 22.6792 84.9578 22.8153L85.4686 21.4063C85.4092 21.3902 85.3527 21.3651 85.301 21.331C85.0689 21.575 84.7359 21.7248 84.3999 21.7177C83.6592 21.7031 83.2471 21.0495 83.1788 20.4346C83.1419 20.4419 83.1042 20.4456 83.0654 20.4456C83.0267 20.4456 82.9885 20.4416 82.9521 20.4346C82.8836 21.0495 82.4715 21.7031 81.7309 21.7177C81.3949 21.7249 81.0617 21.575 80.8299 21.331C80.7784 21.3651 80.7217 21.3902 80.662 21.4063L81.1729 22.8153C81.7821 22.6792 82.4153 22.6067 83.0654 22.6067ZM85.4821 21.1979C85.6715 21.2716 85.8851 21.1787 85.9591 20.9892C86.033 20.7996 85.9397 20.5862 85.7501 20.5124C85.561 20.4381 85.3474 20.5318 85.2734 20.7212C85.1991 20.9103 85.293 21.1241 85.4821 21.1979ZM80.6486 21.1979C80.459 21.2716 80.2459 21.1787 80.1716 20.9892C80.0978 20.7996 80.1913 20.5862 80.3806 20.5124C80.5702 20.4381 80.7835 20.5318 80.8576 20.7212C80.9315 20.9103 80.8379 21.1241 80.6486 21.1979Z" fill="#151616"/>
<path id="path92" fill-rule="evenodd" clip-rule="evenodd" d="M36.7502 3.95728C36.8568 4.054 36.9698 4.13701 37.0715 4.24107C42.8442 9.59389 47.9579 19.6282 50.8587 29.2415C52.0158 18.2006 63.1838 -0.96653 74.3532 0.246316C56.7054 6.90434 54.2048 28.7737 53.3871 44.1201C53.4419 46.6986 52.535 47.7306 51.2698 47.8041C50.0819 47.8728 49.0257 46.828 48.9477 45.4512C48.9481 45.4512 48.9477 45.4505 48.9477 45.4512C48.8738 34.856 41.4353 15.5257 33.2607 8.62982L33.2671 8.62256L33.2296 8.59491C31.9481 7.62326 31.6976 5.79668 32.6687 4.51615C33.6409 3.23426 35.4666 2.98361 36.748 3.95526L36.7502 3.95728Z" fill="#009E3B"/>
</g>
</svg>
