<svg width="21" height="23" viewBox="0 0 21 23" fill="none" xmlns="http://www.w3.org/2000/svg">
<path id="olive-oil (2) 1 (Traced)" fill-rule="evenodd" clip-rule="evenodd" d="M9.50404 0.0374874C9.28572 0.126709 9.11452 0.341428 9.06174 0.592153C9.04839 0.655474 9.08532 0.972921 9.15638 1.40613C9.22044 1.7967 9.27286 2.14028 9.27286 2.16962C9.27286 2.2125 9.23327 2.22297 9.07115 2.22297C8.78801 2.22297 8.62063 2.2834 8.46654 2.44123C8.28617 2.62597 8.25345 2.76396 8.25345 3.34018C8.25345 3.79855 8.25845 3.83672 8.34049 4.00536C8.43987 4.2096 8.63191 4.35655 8.8451 4.39148L8.9769 4.41307V7.25747C8.9769 10.088 8.97654 10.1028 8.906 10.296C8.79222 10.6075 8.60215 10.7815 7.97456 11.1485C7.27662 11.5568 6.82147 11.9042 6.34413 12.3928C5.76125 12.9895 5.40587 13.5 5.04142 14.2641C4.81376 14.7414 4.60876 15.3427 4.51599 15.8053C4.48347 15.9675 4.44911 16.0956 4.43964 16.0898C4.43017 16.0841 4.29347 16.0153 4.13582 15.9369C3.72648 15.7334 3.41612 15.6566 2.9242 15.637C2.24475 15.61 1.79726 15.7396 1.58844 16.0238C1.39568 16.2862 1.41656 16.6276 1.65806 17.163C1.77158 17.4146 1.99305 17.7707 2.08421 17.8482C2.1728 17.9235 2.14419 17.9699 1.98177 18.0144C1.77763 18.0703 1.32777 18.2875 1.12833 18.4265C0.397475 18.9355 -0.00141027 19.6419 3.74655e-06 20.4247C0.00112181 21.0467 0.232495 21.5843 0.70491 22.0626C1.10432 22.4668 1.56273 22.7218 2.20032 22.8944C2.61775 23.0074 3.38701 23.0217 3.79764 22.9243C4.21517 22.8251 4.58061 22.6757 4.8862 22.4792C5.04198 22.379 5.17374 22.2971 5.179 22.2971C5.1843 22.2971 5.26779 22.3518 5.36457 22.4186C5.77233 22.7002 6.27553 22.8991 6.75801 22.9693C6.94584 22.9967 8.26206 23.0047 11.3946 22.9975L15.7689 22.9876L15.9902 22.8759C16.1941 22.7732 16.252 22.7159 16.7236 22.1518C17.5669 21.1429 17.9899 20.4204 18.2971 19.4641C18.64 18.3968 18.7331 17.1694 18.5496 16.1334C18.4771 15.7243 18.4369 15.7991 18.8915 15.4968C20.9776 14.1095 21.6208 11.2609 20.3457 9.05686C19.8621 8.22099 19.2066 7.60718 18.3325 7.17175C17.6041 6.80893 17.0079 6.68367 16.1471 6.71267C15.3995 6.7379 14.8623 6.87074 14.263 7.17865L14.0082 7.30961V5.86629V4.42297L14.1827 4.38299C14.3954 4.33422 14.586 4.18178 14.6694 3.99364C14.7205 3.87848 14.7303 3.76861 14.7309 3.30785C14.7315 2.83314 14.7232 2.74234 14.6689 2.63422C14.5265 2.35069 14.3004 2.22297 13.9409 2.22297H13.707L13.7255 2.13035C13.7885 1.81452 13.9424 0.794544 13.9424 0.692624C13.9424 0.437319 13.7733 0.178579 13.5314 0.0638599C13.4126 0.00754463 13.3031 0.00141462 12.4056 0.000740991L11.4114 0L11.3047 0.0976087C11.2165 0.178377 11.1981 0.219603 11.1981 0.336814C11.1981 0.454025 11.2165 0.495251 11.3047 0.576019L11.4114 0.673628H12.3495H13.2877L13.2681 0.783093C13.2574 0.843315 13.2006 1.18811 13.1421 1.54934L13.0357 2.20613L11.4996 2.21489C10.6547 2.21971 9.96323 2.21213 9.963 2.19805C9.96277 2.18397 9.91118 1.86174 9.84833 1.48198C9.78549 1.10222 9.7339 0.764972 9.73367 0.732571C9.7333 0.680769 9.76908 0.673628 10.0287 0.673628C10.3082 0.673628 10.3299 0.668374 10.4307 0.576019C10.519 0.495251 10.5374 0.454025 10.5374 0.336814C10.5374 0.219603 10.519 0.178377 10.4307 0.0976087C10.3261 0.00185248 10.3171 3.36815e-05 9.95468 0.00212193C9.75149 0.00330078 9.54869 0.0191984 9.50404 0.0374874ZM14.074 3.30078V3.70495H11.509H8.94402V3.30078V2.8966H11.509H14.074V3.30078ZM13.3505 6.07451V7.73675L13.4245 7.8481C13.5881 8.09435 13.8538 8.18003 14.074 8.0576C14.1373 8.02241 14.3 7.9313 14.4357 7.85508C14.7616 7.67202 15.3062 7.48845 15.707 7.42658C17.8718 7.09236 19.898 8.59445 20.2751 10.813C20.3546 11.2812 20.3257 12.0597 20.2123 12.5042C19.9194 13.6515 19.152 14.6377 18.1469 15.1583C17.7786 15.3491 17.707 15.4707 17.7907 15.7631C17.8454 15.9544 17.9479 16.6643 17.9706 17.0091C18.0115 17.6292 17.8878 18.5493 17.6723 19.228C17.5326 19.6681 17.2034 20.36 16.9413 20.7646C16.7247 21.0988 15.7861 22.2424 15.7008 22.276C15.6712 22.2876 14.1096 22.2971 12.2306 22.2971H8.81422L8.99009 22.0326C9.0868 21.8871 9.18374 21.7128 9.20551 21.6452L9.24507 21.5224L9.56316 21.5223C9.95896 21.5223 10.0915 21.467 10.1522 21.2764C10.186 21.1706 10.1847 21.128 10.1452 21.031C10.0815 20.8749 9.93581 20.8151 9.6192 20.8151H9.37151V20.5815C9.37151 19.81 8.93428 18.8692 8.28344 18.2404C7.83375 17.8059 7.25423 17.4763 6.72187 17.3524L6.4777 17.2956L6.4779 17.1271C6.47816 16.8954 6.56261 16.3418 6.64584 16.0257C6.70105 15.8163 6.73759 15.7432 6.82765 15.6622L6.94038 15.5608H11.4888H16.0373L16.149 15.6374C16.3498 15.775 16.472 16.299 16.4977 17.1327C16.5186 17.8111 16.4692 18.1966 16.2893 18.7596C16.084 19.4016 15.8068 19.8961 15.3212 20.4867L15.0511 20.8151H13.0712H11.0912L10.9805 20.8915C10.8337 20.9928 10.7888 21.1481 10.8612 21.3038C10.9678 21.5327 10.8884 21.5254 13.1616 21.515L15.2085 21.5056L15.3478 21.4238C15.5005 21.3342 15.9887 20.7665 16.2716 20.3494C16.4827 20.0382 16.8015 19.3825 16.9198 19.0161C17.1442 18.3211 17.2341 17.5383 17.1712 16.8255C17.128 16.3361 16.9868 15.696 16.8704 15.4623C16.7647 15.2502 16.5348 15.0373 16.3243 14.9566C16.1445 14.8877 16.1087 14.8872 11.4831 14.8872L6.82299 14.8872L6.62568 14.983C6.41502 15.0852 6.22535 15.2739 6.11946 15.4864C5.99174 15.7429 5.85698 16.3997 5.82442 16.9244L5.80357 17.2608L5.68161 17.281C5.56227 17.3008 5.55717 17.2971 5.44602 17.1126C5.38351 17.0089 5.27003 16.8515 5.1938 16.7628L5.0552 16.6016L5.09453 16.3422C5.28384 15.0943 5.85261 13.9118 6.70565 12.9927C7.21046 12.4488 7.63634 12.1236 8.48124 11.6367C9.11242 11.2729 9.37891 10.985 9.56372 10.467L9.65103 10.2223L9.66047 7.31728L9.66987 4.41226H11.5102H13.3505V6.07451ZM15.7061 8.23689C15.2547 8.32874 14.7874 8.53608 14.4192 8.80789C13.9857 9.12796 13.4913 9.75043 13.4163 10.0706C13.3532 10.3399 13.486 10.7137 13.7733 11.0756C13.9156 11.255 14.1671 11.438 14.6823 11.7372C15.7352 12.3487 16.3722 12.9431 17.0007 13.9005C17.2698 14.3105 17.3967 14.3933 17.7282 14.3753C17.9155 14.3651 17.9732 14.3451 18.1393 14.2333C18.4142 14.048 18.8672 13.5671 19.0491 13.2672C19.5349 12.4668 19.6751 11.5005 19.4339 10.6155C19.1695 9.64501 18.4221 8.79095 17.5111 8.41823C16.9722 8.19778 16.2531 8.12554 15.7061 8.23689ZM16.9349 8.94332C17.6031 9.10715 18.2533 9.63339 18.5756 10.2712C18.7752 10.6662 18.8464 10.9402 18.8651 11.3843C18.8969 12.1394 18.6792 12.7415 18.1765 13.289C17.9661 13.5181 17.7058 13.7345 17.6766 13.7045C17.6692 13.6969 17.5905 13.5772 17.5019 13.4385C17.2544 13.0513 16.9778 12.7168 16.5685 12.3094C16.0974 11.8407 15.736 11.566 15.0982 11.192C14.4663 10.8214 14.3471 10.732 14.2132 10.5282C14.0482 10.2771 14.0464 10.2303 14.1932 10.0105C14.7921 9.11335 15.8882 8.6867 16.9349 8.94332ZM3.4688 16.4048C3.97396 16.5654 4.41132 16.8648 4.72662 17.2657C4.82155 17.3864 4.89926 17.4981 4.89926 17.5138C4.89926 17.5296 4.84378 17.5772 4.77594 17.6196C4.70814 17.662 4.57012 17.7767 4.46926 17.8745L4.2859 18.0523L3.96841 17.9698C3.79379 17.9245 3.5152 17.8768 3.34929 17.864C3.05837 17.8415 3.04176 17.8358 2.88007 17.7008C2.54021 17.4172 2.2039 16.8857 2.15142 16.5493L2.12959 16.4094L2.32239 16.3687C2.4284 16.3463 2.52995 16.3222 2.54804 16.3152C2.64235 16.2783 3.26001 16.3384 3.4688 16.4048ZM6.5678 18.0192C7.02654 18.1318 7.4493 18.3779 7.83786 18.7585C8.21659 19.1295 8.46776 19.5417 8.61958 20.0416C8.72517 20.3893 8.72554 20.9727 8.62034 21.2671C8.37598 21.9511 7.86768 22.2957 7.10184 22.2967C6.45534 22.2975 5.88279 22.0418 5.33093 21.5057C4.76161 20.9527 4.46584 20.2997 4.46127 19.5857C4.45815 19.1005 4.58416 18.7494 4.87407 18.4354C5.10252 18.188 5.3891 18.0324 5.72136 17.9755C5.93876 17.9382 6.31762 17.9578 6.5678 18.0192ZM3.71816 18.6119L3.93766 18.663L3.86959 18.8718C3.76972 19.1782 3.77242 19.9446 3.87465 20.3267C3.97189 20.69 4.22684 21.215 4.46742 21.5474C4.66427 21.8193 4.66479 21.8207 4.59307 21.8688C4.4231 21.9829 4.09784 22.1322 3.87422 22.1987C3.53608 22.2994 2.80989 22.3261 2.45507 22.251C1.51291 22.0514 0.817341 21.4194 0.690211 20.6474C0.571893 19.9291 1.02826 19.1895 1.82458 18.8091C2.38598 18.5409 3.09609 18.467 3.71816 18.6119Z" fill="#009E3B"/>
</svg>
