<svg width="62" height="62" viewBox="0 0 62 62" fill="none" xmlns="http://www.w3.org/2000/svg">
<g id="quality (1) 2">
<path id="Vector" d="M37.0653 25.3458L28.8753 33.9723L24.9447 29.4629C24.509 28.9626 23.7915 28.9512 23.3433 29.4371C22.8947 29.9236 22.8845 30.7232 23.3202 31.2235L28.0344 36.6202C28.4724 37.1115 29.1802 37.1284 29.6363 36.6578L38.6446 27.1827C38.8633 26.9526 38.9911 26.6349 38.9996 26.2999C39.008 25.9649 38.8966 25.6398 38.6898 25.3963C38.2514 24.8881 37.5286 24.8658 37.0653 25.3458Z" fill="#009E3B"/>
<path id="Vector_2" d="M31.4998 14C21.848 14 14 21.6238 14 30.9998C14 40.3762 21.848 48 31.4998 48C41.152 48 49 40.3762 49 30.9998C49 21.6238 41.152 14 31.4998 14ZM31.4998 45.7242C23.1365 45.7242 16.3427 39.113 16.3427 30.9998C16.3427 22.8866 23.1365 16.2758 31.4998 16.2758C39.8713 16.2758 46.6573 22.8679 46.6573 30.9998C46.6573 39.1316 39.8713 45.7242 31.4998 45.7242Z" fill="#009E3B"/>
<path id="Vector_3" d="M55.0126 24.5842L55.398 17.6636C55.4249 17.1991 55.1722 16.7628 54.7558 16.555L48.5906 13.4391L45.473 7.27709C45.261 6.86453 44.8272 6.61334 44.3638 6.63522L37.4277 7.00904L31.6479 3.19249C31.2584 2.93584 30.7535 2.93584 30.3635 3.19249L24.5837 7.00904L17.6599 6.62383C17.1947 6.59647 16.7587 6.84903 16.5507 7.26569L13.4327 13.4277L7.26793 16.5436C6.8547 16.7551 6.60384 17.1886 6.62573 17.6522L7.01069 24.5728L3.19259 30.3496C2.9358 30.7389 2.9358 31.2435 3.19259 31.6333L6.99928 37.4215L6.61387 44.3421C6.58696 44.8066 6.83919 45.2429 7.25607 45.4507L13.4213 48.5666L16.5388 54.7286C16.7505 55.1416 17.1842 55.3924 17.6481 55.3705L24.5723 54.9853L30.3521 58.8014C30.7393 59.0662 31.2493 59.0662 31.6365 58.8014L37.4163 54.9853L44.3405 55.3705C44.8053 55.3974 45.2413 55.1448 45.4498 54.7286L48.5673 48.5666L54.7325 45.4507C55.1453 45.2388 55.3966 44.8057 55.3747 44.3421L54.9893 37.4215L58.8074 31.6447C59.0642 31.2554 59.0642 30.7503 58.8074 30.361L55.0126 24.5842ZM52.8406 36.4646C52.6983 36.6734 52.6321 36.9246 52.654 37.1767L53.0157 43.7234L47.1894 46.6643C46.9673 46.7755 46.7871 46.956 46.6758 47.178L43.733 53.0013L37.1828 52.6398C36.9319 52.6307 36.6843 52.6954 36.4704 52.8263L31.0057 56.4327L25.5415 52.8263C25.3518 52.6982 25.1283 52.6289 24.8993 52.628H24.8409L18.2903 52.9899L15.3479 47.1662C15.2366 46.9442 15.0565 46.7641 14.8339 46.6529L8.99568 43.7234L9.35783 37.1767C9.36695 36.926 9.30172 36.6784 9.17082 36.4646L5.56299 31.0028L9.17082 25.5411C9.31358 25.3327 9.37972 25.0811 9.35783 24.8295L8.99568 18.2822L14.8225 15.3414C15.0446 15.2302 15.2248 15.0501 15.3361 14.8281L18.2784 9.00438L24.8291 9.36634C25.0795 9.375 25.3271 9.31027 25.5415 9.17943L31.0057 5.5735L36.4704 9.17943C36.6792 9.32212 36.931 9.38822 37.1828 9.36634L43.733 9.00438L46.6758 14.8281C46.7871 15.0501 46.9673 15.2302 47.1894 15.3414L53.0157 18.2822L52.654 24.8295C52.6449 25.0797 52.7101 25.3273 52.8406 25.5411L56.4489 31.0028L52.8406 36.4646Z" fill="#009E3B"/>
</g>
</svg>
