<svg xmlns="http://www.w3.org/2000/svg" xmlns:xlink="http://www.w3.org/1999/xlink"><defs>
<filter id="filter0_d_54_1898" x="517" y="149" width="17" height="17" filterUnits="userSpaceOnUse" color-interpolation-filters="sRGB">
<feFlood flood-opacity="0" result="BackgroundImageFix"/>
<feColorMatrix in="SourceAlpha" type="matrix" values="0 0 0 0 0 0 0 0 0 0 0 0 0 0 0 0 0 0 127 0" result="hardAlpha"/>
<feOffset/>
<feGaussianBlur stdDeviation="3.5"/>
<feColorMatrix type="matrix" values="0 0 0 0 0.0431373 0 0 0 0 0.219608 0 0 0 0 0.219608 0 0 0 1 0"/>
<feBlend mode="normal" in2="BackgroundImageFix" result="effect1_dropShadow_54_1898"/>
<feBlend mode="normal" in="SourceGraphic" in2="effect1_dropShadow_54_1898" result="shape"/>
</filter>
<filter id="filter1_d_54_1898" x="485" y="192" width="17" height="17" filterUnits="userSpaceOnUse" color-interpolation-filters="sRGB">
<feFlood flood-opacity="0" result="BackgroundImageFix"/>
<feColorMatrix in="SourceAlpha" type="matrix" values="0 0 0 0 0 0 0 0 0 0 0 0 0 0 0 0 0 0 127 0" result="hardAlpha"/>
<feOffset/>
<feGaussianBlur stdDeviation="3.5"/>
<feColorMatrix type="matrix" values="0 0 0 0 0.0431373 0 0 0 0 0.219608 0 0 0 0 0.219608 0 0 0 1 0"/>
<feBlend mode="normal" in2="BackgroundImageFix" result="effect1_dropShadow_54_1898"/>
<feBlend mode="normal" in="SourceGraphic" in2="effect1_dropShadow_54_1898" result="shape"/>
</filter>

<clipPath id="clip0_54_201">
<rect width="62" height="62" fill="white"/>
</clipPath>

<clipPath id="clip0_54_67">
<rect width="12" height="12"/>
</clipPath>

<filter id="filter0_d_56_2371" x="-24" y="-20" width="69" height="69" filterUnits="userSpaceOnUse" color-interpolation-filters="sRGB">
<feFlood flood-opacity="0" result="BackgroundImageFix"/>
<feColorMatrix in="SourceAlpha" type="matrix" values="0 0 0 0 0 0 0 0 0 0 0 0 0 0 0 0 0 0 127 0" result="hardAlpha"/>
<feOffset dy="4"/>
<feGaussianBlur stdDeviation="12"/>
<feComposite in2="hardAlpha" operator="out"/>
<feColorMatrix type="matrix" values="0 0 0 0 0 0 0 0 0 0 0 0 0 0 0 0 0 0 0.09 0"/>
<feBlend mode="normal" in2="BackgroundImageFix" result="effect1_dropShadow_56_2371"/>
<feBlend mode="normal" in="SourceGraphic" in2="effect1_dropShadow_56_2371" result="shape"/>
</filter>
<clipPath id="clip0_56_2371">
<rect width="21" height="21" fill="white"/>
</clipPath>

<clipPath id="clip0_54_195">
<rect width="62" height="62" fill="white"/>
</clipPath>

<clipPath id="clip0_210_60">
<rect width="22" height="22" fill="white" transform="translate(12 12)"/>
</clipPath>

<clipPath id="clip0_210_61">
<rect width="22" height="22" fill="white" transform="translate(12 12)"/>
</clipPath>

<clipPath id="clip0_210_62">
<rect width="22" height="22" fill="white" transform="translate(12 12)"/>
</clipPath>

<linearGradient id="paint0_linear_54_342" x1="1.35251" y1="19.661" x2="20.8698" y2="2.76906" gradientUnits="userSpaceOnUse">
<stop stop-color="#FFDD55"/>
<stop offset="0.5" stop-color="#FF543E"/>
<stop offset="1" stop-color="#C837AB"/>
</linearGradient>
<clipPath id="clip0_54_342">
<rect width="21" height="21" fill="white"/>
</clipPath>

<clipPath id="clip0_54_345">
<rect width="21" height="21" rx="4" fill="white"/>
</clipPath>

<filter id="filter0_d_54_54" x="-24" y="-20" width="69" height="69" filterUnits="userSpaceOnUse" color-interpolation-filters="sRGB">
<feFlood flood-opacity="0" result="BackgroundImageFix"/>
<feColorMatrix in="SourceAlpha" type="matrix" values="0 0 0 0 0 0 0 0 0 0 0 0 0 0 0 0 0 0 127 0" result="hardAlpha"/>
<feOffset dy="4"/>
<feGaussianBlur stdDeviation="12"/>
<feComposite in2="hardAlpha" operator="out"/>
<feColorMatrix type="matrix" values="0 0 0 0 0 0 0 0 0 0 0 0 0 0 0 0 0 0 0.09 0"/>
<feBlend mode="normal" in2="BackgroundImageFix" result="effect1_dropShadow_54_54"/>
<feBlend mode="normal" in="SourceGraphic" in2="effect1_dropShadow_54_54" result="shape"/>
</filter>
<clipPath id="clip0_54_54">
<rect width="21" height="21" fill="white"/>
</clipPath>
</defs><symbol id="404" viewBox="0 0 534 209">
<path fill-rule="evenodd" clip-rule="evenodd" d="M96 157.6H1V123.6L102 0H135.5V123.6H167V157.6H135.5V201H96V157.6ZM47 123H96.5V61L47 123Z" fill="white" stroke="#009E3B"/>
<path fill-rule="evenodd" clip-rule="evenodd" d="M454 157.6H359V123.6L460 0H493.5V123.6H525V157.6H493.5V201H454V157.6ZM405 123H454.5V61L405 123Z" fill="white" stroke="#009E3B"/>
<g filter="url(#filter0_d_54_1898)">
<path d="M525.5 156C524.672 156 524 156.672 524 157.5C524 158.328 524.672 159 525.5 159C526.328 159 527 158.328 527 157.5C527 156.672 526.328 156 525.5 156Z" fill="#151616"/>
</g>
<path d="M525.5 156C524.672 156 524 156.672 524 157.5C524 158.328 524.672 159 525.5 159C526.328 159 527 158.328 527 157.5C527 156.672 526.328 156 525.5 156Z" fill="#3EACF8"/>
<g filter="url(#filter1_d_54_1898)">
<path d="M493.5 199C492.672 199 492 199.672 492 200.5C492 201.328 492.672 202 493.5 202C494.328 202 495 201.328 495 200.5C495 199.672 494.328 199 493.5 199Z" fill="#151616"/>
</g>
<path d="M493.5 199C492.672 199 492 199.672 492 200.5C492 201.328 492.672 202 493.5 202C494.328 202 495 201.328 495 200.5C495 199.672 494.328 199 493.5 199Z" fill="#3EACF8"/>
<path fill-rule="evenodd" clip-rule="evenodd" d="M268.5 202H241.5L220 191L198.4 163L193 141V63L198.4 41L220 13L241.5 2H295.5L317 13L338.6 41L344 63V141L338.6 163L317 191L295.5 202H268.5ZM250.5 162H287.5L294 158.7L305 144.7L307 136.2V68.8L305 60.4L294 46.4L287.5 43H250.5L244 46.3L233 60.3L231 68.8V136.2L233 144.6L244 158.6L250.5 162Z" fill="white" stroke="#009E3B"/>

</symbol><symbol id="aroow-top" viewBox="0 0 18 10">
<path id="XMLID_222_" d="M8.42123 0.24411L0.239638 8.57746C-0.0798885 8.90285 -0.0798886 9.43052 0.239693 9.75596C0.55922 10.0814 1.07724 10.0814 1.39676 9.75591L8.99985 2.01184L16.6033 9.75596C16.9228 10.0814 17.4409 10.0814 17.7604 9.75591C17.9201 9.59324 18 9.37996 18 9.16669C18 8.95341 17.9201 8.74013 17.7603 8.57741L9.5783 0.24411C9.42487 0.0877761 9.21677 -1.74772e-06 8.99979 -1.75031e-06C8.78281 -1.7529e-06 8.57467 0.0877761 8.42123 0.24411Z" fill="#009E3B"/>
</symbol><symbol id="arrow-bottom" viewBox="0 0 18 10">
<path id="XMLID_222_" d="M9.57877 9.75589L17.7604 1.42254C18.0799 1.09715 18.0799 0.56948 17.7603 0.244035C17.4408 -0.0813543 16.9228 -0.0813543 16.6032 0.244091L9.00015 7.98816L1.39669 0.244035C1.07716 -0.0813541 0.559145 -0.0813541 0.239618 0.244091C0.0798544 0.406758 -3.42897e-07 0.620036 -3.40354e-07 0.833315C-3.3781e-07 1.04659 0.0798548 1.25987 0.239673 1.42259L8.4217 9.75589C8.57513 9.91222 8.78323 10 9.00021 10C9.21719 10 9.42533 9.91222 9.57877 9.75589Z" fill="#009E3B"/>
</symbol><symbol id="arrow-diagonal" viewBox="0 0 10 10">
<path id="XMLID_27_" d="M1.05755 9.81856L8.76104 2.11509L8.76104 5.00003C8.76101 5.34215 9.03839 5.61952 9.38054 5.61952C9.55158 5.61949 9.70648 5.55016 9.81859 5.43805C9.9307 5.32594 10 5.17104 10 5L10 0.619492C10 0.277375 9.72265 7.79815e-07 9.38051 7.79815e-07L4.99999 0C4.6579 0 4.38052 0.277374 4.38049 0.619491C4.38046 0.961609 4.65784 1.23898 4.99999 1.23898L7.88494 1.23898L0.181441 8.94246C-0.0604804 9.18438 -0.0604804 9.57664 0.181441 9.81856C0.423363 10.0605 0.815624 10.0605 1.05755 9.81856Z"/>
</symbol><symbol id="arrow-left" viewBox="0 0 14 14">
<g id="right-arrow (2) 1" clip-path="url(#clip0_54_353)">
<path id="XMLID_222_" d="M3.36647 7.45015L9.73011 13.8136C9.97859 14.0621 10.3815 14.0621 10.6301 13.8136C10.8785 13.5651 10.8785 13.1621 10.63 12.9136L4.71637 7.00011L10.6301 1.0863C10.8785 0.837778 10.8785 0.434875 10.63 0.186355C10.5058 0.0620937 10.3429 -1.53002e-05 10.1801 -1.53144e-05C10.0172 -1.53287e-05 9.85433 0.0620937 9.73007 0.186397L3.36647 6.5502C3.24709 6.66954 3.18006 6.83139 3.18006 7.00015C3.18006 7.16892 3.24709 7.33081 3.36647 7.45015Z"/>
</g>
</symbol><symbol id="arrow-right" viewBox="0 0 14 14">
<g id="right-arrow (2) 2" clip-path="url(#clip0_54_357)">
<path id="XMLID_222_" d="M10.6335 6.54985L4.26989 0.186386C4.02141 -0.0621356 3.61847 -0.0621356 3.36995 0.186428C3.12147 0.434949 3.12147 0.837852 3.36999 1.08637L9.28363 6.99989L3.36995 12.9137C3.12147 13.1622 3.12147 13.5651 3.36999 13.8136C3.49421 13.9379 3.65707 14 3.81994 14C3.98281 14 4.14567 13.9379 4.26994 13.8136L10.6335 7.4498C10.7529 7.33046 10.8199 7.16861 10.8199 6.99985C10.8199 6.83108 10.7529 6.66919 10.6335 6.54985Z"/>
</g>
</symbol><symbol id="calendar" viewBox="0 0 14 13">
<path id="calendar (3) 1 (Traced)" fill-rule="evenodd" clip-rule="evenodd" d="M0.868559 0.0393599C0.579232 0.11687 0.307759 0.344824 0.160125 0.634279C0.0234754 0.902168 0.00220263 1.08857 0.00165197 2.0227L0.00115928 2.87929H6.98762H13.9741L13.965 1.96512L13.9559 1.05094L13.8622 0.85443C13.6777 0.46728 13.2406 0.137198 12.7855 0.0413754C12.6516 0.0131872 12.3817 0.000835 11.891 0.000489485L11.1882 0L11.188 0.655039C11.1879 1.01532 11.175 1.356 11.1593 1.41212C11.1436 1.46827 11.0854 1.55787 11.03 1.61122C10.9472 1.69089 10.9018 1.71047 10.7761 1.72049C10.6504 1.73051 10.6053 1.72064 10.5243 1.66535C10.3049 1.51577 10.3053 1.51756 10.2948 0.717779L10.2853 0H6.80968H3.33408L3.3328 0.626246C3.3313 1.37742 3.31698 1.47008 3.18155 1.60463C2.99151 1.79342 2.65671 1.75524 2.51485 1.52862C2.45317 1.43012 2.4497 1.39176 2.44106 0.712625L2.43196 0L1.71651 0.00192911C1.24654 0.00322479 0.955591 0.0160665 0.868559 0.0393599ZM0.0078251 7.91085L0.0156502 12.0498L0.0906554 12.2412C0.233188 12.6048 0.459479 12.8323 0.793843 12.9483C0.935565 12.9974 1.24095 13 6.86987 13H12.7967L12.9906 12.9334C13.3863 12.7976 13.7277 12.5124 13.8922 12.1805L13.9849 11.9935L13.9925 7.88266L14 3.77187H7H0L0.0078251 7.91085ZM4.08483 5.4207C4.12314 5.44025 4.18183 5.4928 4.21524 5.53745C4.27141 5.61257 4.27669 5.66279 4.28535 6.20519C4.29387 6.73913 4.28958 6.80328 4.23736 6.92055C4.13607 7.14804 4.11027 7.15504 3.37375 7.15504C2.46114 7.15504 2.49465 7.18881 2.49404 6.26822C2.4934 5.34863 2.45506 5.38689 3.37755 5.38586C3.82796 5.38534 4.03561 5.39556 4.08483 5.4207ZM7.53367 5.4207C7.57199 5.44025 7.63068 5.4928 7.66409 5.53748C7.72037 5.61272 7.7255 5.66239 7.73391 6.21412C7.74399 6.87474 7.72414 6.99213 7.58506 7.09469C7.50759 7.15181 7.46794 7.15504 6.84089 7.15504C5.90701 7.15504 5.94349 7.19109 5.94288 6.26822C5.94225 5.34863 5.9039 5.38689 6.8264 5.38586C7.27681 5.38534 7.48446 5.39556 7.53367 5.4207ZM11.0442 5.42795C11.2037 5.50987 11.2172 5.57604 11.2172 6.27685C11.2172 7.19987 11.2629 7.15504 10.3216 7.15504C9.68512 7.15504 9.66399 7.15317 9.57345 7.08902C9.44051 6.99481 9.42063 6.8864 9.42045 6.25434C9.42025 5.64793 9.4381 5.55764 9.58009 5.4467C9.65663 5.38687 9.68706 5.38427 10.3096 5.38427C10.8336 5.38427 10.9757 5.39271 11.0442 5.42795ZM4.13731 9.35174C4.26982 9.44563 4.29013 9.55458 4.29031 10.172C4.29048 10.7586 4.2744 10.84 4.13253 10.9701C4.05437 11.0418 4.0517 11.0421 3.40294 11.0508C2.78745 11.0591 2.74653 11.0563 2.65509 11.0002C2.49957 10.9047 2.48949 10.8482 2.49928 10.1276C2.50801 9.48312 2.50873 9.47673 2.57896 9.4025C2.61794 9.36132 2.68967 9.31569 2.73836 9.30106C2.78705 9.28643 3.10077 9.27699 3.43552 9.2801C4.01904 9.28548 4.04799 9.28845 4.13731 9.35174ZM7.5679 9.3363C7.71443 9.43524 7.72484 9.48994 7.72484 10.161C7.72484 10.5031 7.71469 10.819 7.70232 10.863C7.68994 10.9071 7.63778 10.9685 7.58639 10.9997C7.50092 11.0514 7.43806 11.0563 6.84669 11.0564C5.89654 11.0565 5.93544 11.0964 5.94819 10.1359C5.95688 9.48257 5.95749 9.47678 6.0278 9.40253C6.06678 9.36132 6.13851 9.31569 6.1872 9.30106C6.23589 9.28643 6.54962 9.27699 6.88436 9.2801C7.41108 9.28497 7.50307 9.29251 7.5679 9.3363ZM10.9585 9.30023C11.0154 9.31595 11.0937 9.36227 11.1324 9.40316L11.2027 9.4775V10.18V10.8824L11.1223 10.9622L11.042 11.0421H10.3349H9.62782L9.55255 10.9718C9.43126 10.8586 9.41486 10.7464 9.42521 10.1011C9.43871 9.2596 9.42187 9.27546 10.3042 9.2731C10.6071 9.2723 10.9015 9.2845 10.9585 9.30023Z" fill="#999DB4"/>
</symbol><symbol id="charity" viewBox="0 0 62 62">
<g id="charity 1" clip-path="url(#clip0_54_201)">
<path id="Vector" d="M44.3795 7.08603C41.2413 4.12911 35.864 3.45426 30.9994 8.31888C26.1419 3.45903 20.7575 4.12911 17.6193 7.08364C13.9637 10.5246 13.8993 16.2811 17.4238 19.8056L30.9994 33.3836L44.575 19.808C48.0995 16.2835 48.0351 10.527 44.3795 7.08603ZM42.8891 18.1196L30.9994 30.0117L19.1097 18.122C16.5295 15.5395 16.5796 11.3402 19.2552 8.82203C20.395 7.74418 21.9212 7.1528 23.5522 7.1528C26.967 7.1528 28.5027 9.19403 30.9994 11.6907C33.4293 9.2608 34.9936 7.1528 38.4465 7.1528C40.0776 7.1528 41.6038 7.74418 42.746 8.81964C45.4144 11.333 45.4764 15.5323 42.8891 18.1196Z" fill="#009E3B"/>
<path id="Vector_2" d="M57.925 7.15625C55.8241 7.15625 54.081 8.7301 53.8711 10.819L52.3617 25.7253C51.6344 25.8802 50.9667 26.2332 50.4492 26.7506L38.4045 37.9631C36.7472 39.4726 35.7862 41.6259 35.7695 43.8769V57.2332H50.0772V50.9473C50.0772 49.9768 50.485 49.0325 51.2242 48.3314L60.2738 39.1983C61.3874 38.0728 62.0003 36.5824 62.0003 35.0014V11.2316C62.0003 8.98525 60.1713 7.15625 57.925 7.15625ZM59.6157 35.0014C59.6157 35.9505 59.2485 36.8447 58.5784 37.5219L49.5574 46.6264C48.3722 47.7472 47.6926 49.321 47.6926 50.9473V54.8486H38.1541V43.8913C38.1661 42.3103 38.8409 40.796 40.0213 39.7229L52.1041 28.4699C52.4285 28.1456 52.872 27.9859 53.3418 28.0336C53.6017 28.0574 53.9761 28.1504 54.2956 28.4699C54.5889 28.7633 54.7511 29.1543 54.7511 29.5669C54.7511 29.9794 54.5865 30.3705 54.3361 30.6232L45.0338 39.06L46.6362 40.8246L55.9815 32.3473C56.7255 31.6033 57.1357 30.6161 57.1357 29.5645C57.1357 28.5129 56.7279 27.5256 55.9839 26.784C55.6215 26.4168 55.1994 26.1354 54.7368 25.9423L56.2415 11.0623C56.3297 10.1943 57.0546 9.54087 57.925 9.54087C58.8574 9.54087 59.6157 10.2992 59.6157 11.2316V35.0014Z" fill="#009E3B"/>
<path id="Vector_3" d="M23.5958 37.9631L11.5511 26.7506C11.0336 26.2332 10.3659 25.8779 9.63861 25.7253L8.12915 10.819C7.91931 8.7301 6.17615 7.15625 4.07531 7.15625C1.829 7.15625 0 8.98525 0 11.2316V35.0014C0 36.5824 0.612846 38.0728 1.72646 39.1959L10.7761 48.329C11.5153 49.0301 11.9231 49.9768 11.9231 50.9473V57.2332H26.2308V43.8769C26.2165 41.6259 25.2531 39.4749 23.5958 37.9631ZM23.8462 54.8486H14.3077V50.9473C14.3077 49.3234 13.6281 47.7472 12.4429 46.6264L3.42192 37.5219C2.75185 36.8447 2.38462 35.9505 2.38462 35.0014V11.2316C2.38462 10.2992 3.14292 9.54087 4.07531 9.54087C4.94569 9.54087 5.67061 10.1942 5.75885 11.0575L7.26354 25.9375C6.80092 26.133 6.37885 26.4144 6.01638 26.7793C5.27477 27.5209 4.86461 28.5081 4.86461 29.5597C4.86461 30.6113 5.27477 31.5986 6.01877 32.3426L15.3641 40.8199L16.9665 39.0552L7.66415 30.6185C7.41138 30.3657 7.24923 29.977 7.24923 29.5621C7.24923 29.1472 7.41138 28.7585 7.70469 28.4652C8.02185 28.1456 8.39861 28.0526 8.65854 28.0288C9.13069 27.9835 9.57185 28.1409 9.89615 28.4652L21.979 39.7182C23.1594 40.7913 23.8342 42.3055 23.8462 43.8865V54.8486Z" fill="#009E3B"/>
</g>

</symbol><symbol id="ecology" viewBox="0 0 62 62">
<g id="ecology 2">
<g id="Group">
<path id="Vector" d="M58.6094 30.1523H45.4102V27.3517H46.5C48.2658 27.3497 49.9587 26.6474 51.2073 25.3988C52.4559 24.1502 53.1582 22.4573 53.1602 20.6915V18.754C53.1602 18.5292 53.0709 18.3136 52.9119 18.1546C52.7529 17.9957 52.5373 17.9064 52.3125 17.9064H50.375C49.4363 17.9068 48.5085 18.1063 47.6526 18.4918C46.7968 18.8773 46.0325 19.44 45.4102 20.1427V19.0611L46.5315 17.9393C47.15 17.3209 47.6407 16.5867 47.9754 15.7787C48.3102 14.9707 48.4825 14.1046 48.4825 13.23C48.4825 12.3553 48.3102 11.4893 47.9754 10.6812C47.6407 9.87318 47.15 9.139 46.5315 8.52062L45.1617 7.15081C44.9998 6.99765 44.7854 6.9123 44.5625 6.9123C44.3396 6.9123 44.1252 6.99765 43.9633 7.15081L42.5935 8.52062C41.975 9.139 41.4843 9.87318 41.1496 10.6812C40.8148 11.4893 40.6425 12.3553 40.6425 13.23C40.6425 14.1046 40.8148 14.9707 41.1496 15.7787C41.4843 16.5867 41.975 17.3209 42.5935 17.9393L43.7148 19.0611V20.1427C43.0925 19.44 42.3282 18.8773 41.4724 18.4918C40.6165 18.1063 39.6887 17.9068 38.75 17.9064H36.8125C36.5877 17.9064 36.3721 17.9957 36.2131 18.1546C36.0541 18.3136 35.9648 18.5292 35.9648 18.754V20.6915C35.9668 22.4573 36.6691 24.1502 37.9177 25.3988C39.1663 26.6474 40.8592 27.3497 42.625 27.3517H43.7148V30.1523H18.2852V27.3517H19.375C21.1408 27.3496 22.8336 26.6473 24.0822 25.3987C25.3308 24.1501 26.0331 22.4573 26.0352 20.6915V18.754C26.035 18.5292 25.9457 18.3137 25.7867 18.1548C25.6278 17.9958 25.4123 17.9065 25.1875 17.9064H23.25C22.3113 17.9068 21.3835 18.1063 20.5276 18.4918C19.6718 18.8773 18.9075 19.44 18.2852 20.1427V19.0611L19.407 17.9393C20.6542 16.6893 21.3546 14.9957 21.3546 13.23C21.3546 11.4642 20.6542 9.77057 19.407 8.52062L18.0367 7.15081C17.958 7.07204 17.8646 7.00956 17.7618 6.96692C17.659 6.92429 17.5488 6.90234 17.4375 6.90234C17.3262 6.90234 17.216 6.92429 17.1132 6.96692C17.0104 7.00956 16.917 7.07204 16.8383 7.15081L15.468 8.52062C14.2209 9.77057 13.5204 11.4642 13.5204 13.23C13.5204 14.9957 14.2209 16.6893 15.468 17.9393L16.5898 19.0611V20.1427C15.9675 19.44 15.2032 18.8773 14.3474 18.4918C13.4915 18.1063 12.5637 17.9068 11.625 17.9064H9.6875C9.46273 17.9065 9.2472 17.9958 9.08826 18.1548C8.92932 18.3137 8.83997 18.5292 8.83984 18.754V20.6915C8.84177 22.4573 9.54408 24.1502 10.7927 25.3988C12.0413 26.6474 13.7342 27.3497 15.5 27.3517H16.5898V30.1523H3.39062C3.16585 30.1525 2.95032 30.2418 2.79138 30.4007C2.63244 30.5597 2.5431 30.7752 2.54297 31C2.54297 38.5473 5.54111 45.7854 10.8778 51.1221C16.2146 56.4589 23.4527 59.457 31 59.457C38.5473 59.457 45.7854 56.4589 51.1222 51.1221C56.4589 45.7854 59.457 38.5473 59.457 31C59.457 30.7752 59.3677 30.5596 59.2088 30.4006C59.0498 30.2416 58.8342 30.1523 58.6094 30.1523ZM50.375 19.6017H51.4648V20.6915C51.4634 22.0078 50.9399 23.2698 50.0091 24.2006C49.0783 25.1314 47.8163 25.6549 46.5 25.6564H45.4102V24.5665C45.4116 23.2502 45.9351 21.9882 46.8659 21.0574C47.7967 20.1266 49.0587 19.6031 50.375 19.6017ZM42.3378 13.2302C42.3359 12.578 42.4634 11.9319 42.7129 11.3293C42.9623 10.7267 43.3287 10.1796 43.7909 9.71945L44.5625 8.94881L45.3331 9.71945C45.7945 10.1805 46.1605 10.728 46.4101 11.3305C46.6598 11.9331 46.7884 12.5789 46.7884 13.2312C46.7884 13.8834 46.6598 14.5293 46.4101 15.1318C46.1605 15.7344 45.7945 16.2818 45.3331 16.7429L44.5625 17.5111L43.7919 16.7405C43.3294 16.2805 42.9628 15.7335 42.7132 15.131C42.4637 14.5284 42.336 13.8824 42.3378 13.2302ZM37.6602 20.6896V19.5997H38.75C40.0663 19.6011 41.3283 20.1247 42.2591 21.0555C43.1899 21.9862 43.7134 23.2482 43.7148 24.5646V25.6544H42.625C41.309 25.653 40.0473 25.1297 39.1166 24.1994C38.1858 23.269 37.6621 22.0075 37.6602 20.6915V20.6896ZM23.25 19.6017H24.3398V20.6915C24.3384 22.0078 23.8149 23.2698 22.8841 24.2006C21.9533 25.1314 20.6913 25.6549 19.375 25.6564H18.2852V24.5665C18.2866 23.2502 18.8101 21.9882 19.7409 21.0574C20.6717 20.1266 21.9337 19.6031 23.25 19.6017ZM15.2128 13.2302C15.2108 12.578 15.3383 11.9319 15.5877 11.3293C15.8371 10.7267 16.2036 10.1795 16.6659 9.71945L17.4375 8.94881L18.2081 9.71945C18.6695 10.1805 19.0355 10.728 19.2851 11.3305C19.5348 11.9331 19.6634 12.5789 19.6634 13.2312C19.6634 13.8834 19.5348 14.5293 19.2851 15.1318C19.0355 15.7344 18.6695 16.2818 18.2081 16.7429L17.4375 17.5111L16.6669 16.7405C16.2044 16.2806 15.8377 15.7336 15.5881 15.131C15.3385 14.5285 15.2109 13.8824 15.2128 13.2302ZM10.5352 20.6896V19.5997H11.625C12.9413 19.6011 14.2033 20.1247 15.1341 21.0555C16.0649 21.9862 16.5884 23.2482 16.5898 24.5646V25.6544H15.5C14.184 25.653 12.9223 25.1297 11.9916 24.1994C11.0608 23.269 10.5371 22.0075 10.5352 20.6915V20.6896ZM4.25136 31.8476H35.2761L34.7215 34.4221C34.6509 34.7528 34.4834 35.055 34.2405 35.2902C33.9976 35.5254 33.6902 35.683 33.3575 35.743L29.7295 36.4041C28.8751 36.5608 28.1011 37.0079 27.5387 37.6698L24.2522 41.5472C23.9179 41.9429 23.6688 42.4032 23.5205 42.8994C23.3722 43.3956 23.3277 43.9171 23.39 44.4312L23.6806 46.7964C23.7701 47.5356 24.0785 48.2312 24.566 48.794L27.1332 51.7661C27.3673 52.0367 27.5104 52.374 27.5424 52.7304C27.5743 53.0867 27.4936 53.4441 27.3115 53.752L25.3086 57.1461C19.4855 55.8706 14.2537 52.6907 10.4402 48.1091C6.62662 43.5275 4.44893 37.8054 4.25136 31.8476ZM31 57.7617C29.6889 57.7615 28.3795 57.6653 27.0824 57.474L28.7704 54.6128C29.1328 53.9994 29.2935 53.2877 29.2297 52.578C29.1659 51.8684 28.8809 51.1968 28.4149 50.6579L25.8477 47.6857C25.5808 47.3768 25.4122 46.9953 25.3633 46.5901L25.0727 44.2249C25.0385 43.9429 25.0628 43.6569 25.1442 43.3848C25.2255 43.1127 25.3621 42.8603 25.5455 42.6434L28.8319 38.7684C29.1395 38.4049 29.5631 38.1589 30.0312 38.0719L33.6592 37.4112C34.3224 37.2917 34.935 36.9774 35.4189 36.5085C35.9029 36.0396 36.2362 35.4372 36.3766 34.7781L37.0087 31.8462H48.5169C48.4731 32.1353 48.3681 32.4117 48.2089 32.657L47.1297 34.2937C46.8734 34.6811 46.7025 35.1185 46.6284 35.5771C46.5543 36.0356 46.5788 36.5046 46.7 36.9529L46.9747 37.9672C47.1352 38.5533 47.4824 39.0711 47.9636 39.4422C48.4449 39.8132 49.034 40.0173 49.6417 40.0234L51.3113 40.0365C51.7929 40.0403 52.2666 40.1589 52.6932 40.3823L55.4672 41.8354C53.3651 46.5713 49.9352 50.5962 45.5927 53.4228C41.2502 56.2494 36.1814 57.7565 31 57.7617ZM56.1032 40.2564L53.4789 38.8812C52.8131 38.5332 52.0741 38.3485 51.3229 38.3421L49.6538 38.3291C49.416 38.3267 49.1854 38.2468 48.9971 38.1017C48.8087 37.9565 48.6728 37.7539 48.6099 37.5245L48.3353 36.5107C48.2767 36.2948 48.2648 36.069 48.3004 35.8481C48.336 35.6273 48.4182 35.4166 48.5416 35.23L49.6247 33.5938C49.9689 33.0713 50.1771 32.4711 50.2302 31.8476H57.7486C57.6583 34.7211 57.1026 37.5608 56.1032 40.2564Z" fill="#009E3B"/>
<path id="Vector_2" d="M31.0016 13.3703C31.7296 13.3703 32.4414 13.1544 33.0468 12.7499C33.6521 12.3454 34.124 11.7705 34.4026 11.0978C34.6812 10.4252 34.7541 9.68498 34.6121 8.97089C34.47 8.2568 34.1194 7.60086 33.6046 7.08603C33.0898 6.5712 32.4338 6.22059 31.7197 6.07855C31.0056 5.93651 30.2655 6.00941 29.5928 6.28803C28.9201 6.56666 28.3452 7.03849 27.9407 7.64387C27.5362 8.24925 27.3203 8.96098 27.3203 9.68906C27.3211 10.6652 27.7092 11.601 28.3994 12.2913C29.0896 12.9815 30.0255 13.3695 31.0016 13.3703ZM31.0016 7.70313C31.3943 7.70313 31.7783 7.8196 32.1049 8.03782C32.4315 8.25604 32.686 8.5662 32.8363 8.92908C32.9866 9.29196 33.026 9.69127 32.9493 10.0765C32.8727 10.4617 32.6836 10.8156 32.4058 11.0933C32.1281 11.3711 31.7742 11.5602 31.389 11.6368C31.0038 11.7135 30.6045 11.6741 30.2416 11.5238C29.8787 11.3735 29.5685 11.119 29.3503 10.7924C29.1321 10.4658 29.0156 10.0818 29.0156 9.68906C29.0156 9.16236 29.2249 8.65723 29.5973 8.28479C29.9697 7.91236 30.4749 7.70313 31.0016 7.70313Z" fill="#009E3B"/>
<path id="Vector_3" d="M31 5.04719C31.2248 5.04719 31.4404 4.95788 31.5994 4.79891C31.7583 4.63995 31.8477 4.42434 31.8477 4.19953V3.39062C31.8477 3.16581 31.7583 2.95021 31.5994 2.79124C31.4404 2.63228 31.2248 2.54297 31 2.54297C30.7752 2.54297 30.5596 2.63228 30.4006 2.79124C30.2416 2.95021 30.1523 3.16581 30.1523 3.39062V4.19953C30.1523 4.42434 30.2416 4.63995 30.4006 4.79891C30.5596 4.95788 30.7752 5.04719 31 5.04719Z" fill="#009E3B"/>
<path id="Vector_4" d="M30.1523 15.1758V15.9847C30.1523 16.2095 30.2416 16.4251 30.4006 16.5841C30.5596 16.743 30.7752 16.8323 31 16.8323C31.2248 16.8323 31.4404 16.743 31.5994 16.5841C31.7583 16.4251 31.8477 16.2095 31.8477 15.9847V15.1758C31.8477 14.951 31.7583 14.7354 31.5994 14.5764C31.4404 14.4174 31.2248 14.3281 31 14.3281C30.7752 14.3281 30.5596 14.4174 30.4006 14.5764C30.2416 14.7354 30.1523 14.951 30.1523 15.1758Z" fill="#009E3B"/>
<path id="Vector_5" d="M25.1232 7.27338L25.8236 7.67784C25.9201 7.73437 26.0268 7.77128 26.1375 7.78642C26.2483 7.80156 26.3609 7.79465 26.469 7.76608C26.5771 7.7375 26.6784 7.68783 26.7672 7.61993C26.856 7.55203 26.9305 7.46723 26.9864 7.37042C27.0423 7.2736 27.0785 7.16669 27.0929 7.05584C27.1073 6.94498 27.0997 6.83237 27.0704 6.72448C27.0411 6.6166 26.9908 6.51558 26.9223 6.42723C26.8538 6.33888 26.7685 6.26495 26.6713 6.2097L25.9709 5.80476C25.8745 5.7491 25.768 5.71298 25.6576 5.69846C25.5472 5.68394 25.4351 5.69131 25.3275 5.72014C25.22 5.74897 25.1192 5.7987 25.0308 5.8665C24.9425 5.93429 24.8684 6.01881 24.8128 6.11524C24.7571 6.21167 24.721 6.31812 24.7065 6.42851C24.6919 6.5389 24.6993 6.65107 24.7281 6.75862C24.757 6.86616 24.8067 6.96697 24.8745 7.05529C24.9423 7.14362 25.0268 7.21773 25.1232 7.27338Z" fill="#009E3B"/>
<path id="Vector_6" d="M35.3291 13.1649L36.03 13.5693C36.1265 13.6281 36.2338 13.6669 36.3455 13.6837C36.4572 13.7004 36.5712 13.6946 36.6806 13.6666C36.7901 13.6387 36.8928 13.5891 36.9829 13.5209C37.0729 13.4526 37.1484 13.3671 37.2049 13.2693C37.2614 13.1714 37.2978 13.0633 37.3119 12.9512C37.326 12.8391 37.3176 12.7253 37.2871 12.6166C37.2566 12.5078 37.2047 12.4062 37.1344 12.3178C37.0641 12.2293 36.9768 12.1559 36.8777 12.1017L36.1768 11.6967C35.9822 11.5861 35.7517 11.5569 35.5357 11.6156C35.3197 11.6742 35.1357 11.8159 35.0237 12.0098C34.9118 12.2036 34.8811 12.4339 34.9383 12.6503C34.9955 12.8667 35.136 13.0516 35.3291 13.1649Z" fill="#009E3B"/>
<path id="Vector_7" d="M25.9709 13.5676L26.6713 13.1627C26.7685 13.1074 26.8538 13.0335 26.9223 12.9451C26.9908 12.8568 27.0411 12.7558 27.0704 12.6479C27.0997 12.54 27.1073 12.4274 27.0929 12.3165C27.0785 12.2057 27.0423 12.0988 26.9864 12.0019C26.9305 11.9051 26.856 11.8203 26.7672 11.7524C26.6784 11.6845 26.5771 11.6349 26.469 11.6063C26.3609 11.5777 26.2483 11.5708 26.1375 11.5859C26.0268 11.6011 25.9201 11.638 25.8236 11.6945L25.1232 12.099C24.9285 12.2114 24.7864 12.3965 24.7281 12.6137C24.6699 12.8309 24.7004 13.0624 24.8128 13.2571C24.9252 13.4519 25.1103 13.594 25.3275 13.6522C25.5447 13.7104 25.7761 13.68 25.9709 13.5676Z" fill="#009E3B"/>
<path id="Vector_8" d="M36.1768 7.67595L36.8777 7.27101C36.9768 7.2168 37.0641 7.14332 37.1344 7.05489C37.2047 6.96646 37.2566 6.86488 37.2871 6.75609C37.3176 6.64731 37.326 6.53354 37.3119 6.42145C37.2978 6.30936 37.2614 6.20123 37.2049 6.1034C37.1484 6.00557 37.0729 5.92003 36.9829 5.85179C36.8928 5.78355 36.7901 5.734 36.6806 5.70605C36.5712 5.67809 36.4572 5.6723 36.3455 5.68901C36.2338 5.70572 36.1265 5.7446 36.03 5.80336L35.3291 6.20781C35.136 6.32101 34.9955 6.506 34.9383 6.72241C34.8811 6.93881 34.9118 7.16906 35.0237 7.36291C35.1357 7.55675 35.3197 7.69846 35.5357 7.75711C35.7517 7.81576 35.9822 7.78658 36.1768 7.67595Z" fill="#009E3B"/>
</g>
</g>
</symbol><symbol id="email" viewBox="0 0 12 12">
<g id="email (1) 1" clip-path="url(#clip0_54_67)">
<g id="Group">
<g id="Group_2">
<path id="Vector" d="M7.77414 6.5L6.76912 7.50842C6.36156 7.91741 5.64447 7.92622 5.2281 7.50842L4.22303 6.5L0.613281 10.1215C0.747648 10.1836 0.895797 10.2207 1.0533 10.2207H10.9439C11.1014 10.2207 11.2495 10.1836 11.3838 10.1215L7.77414 6.5Z"/>
</g>
</g>
<g id="Group_3">
<g id="Group_4">
<path id="Vector_2" d="M10.9439 1.78125H1.05325C0.89575 1.78125 0.747602 1.81833 0.613281 1.88046L4.47055 5.75053C4.47081 5.75079 4.47112 5.75084 4.47137 5.75109C4.47163 5.75135 4.47168 5.7517 4.47168 5.7517L5.72589 7.01006C5.85911 7.14328 6.13806 7.14328 6.27128 7.01006L7.52523 5.75191C7.52523 5.75191 7.52554 5.75135 7.5258 5.75109C7.5258 5.75109 7.52636 5.75079 7.52662 5.75053L11.3838 1.88044C11.2495 1.81828 11.1014 1.78125 10.9439 1.78125Z"/>
</g>
</g>
<g id="Group_5">
<g id="Group_6">
<path id="Vector_3" d="M0.112172 2.375C0.0426562 2.51558 0 2.67163 0 2.83878V9.16691C0 9.33406 0.0426094 9.49011 0.112148 9.63069L3.72816 6.00296L0.112172 2.375Z"/>
</g>
</g>
<g id="Group_7">
<g id="Group_8">
<path id="Vector_4" d="M11.8894 2.37109L8.27344 5.9991L11.8894 9.62688C11.9589 9.4863 12.0016 9.33025 12.0016 9.16305V2.83492C12.0016 2.66772 11.9589 2.51167 11.8894 2.37109Z"/>
</g>
</g>
</g>

</symbol><symbol id="facebook" viewBox="0 0 21 21">
<g id="facebook" clip-path="url(#clip0_56_2371)">
<g id="Rectangle 4711" filter="url(#filter0_d_56_2371)">
<rect width="21" height="21" rx="4" fill="#3C5A9A"/>
</g>
<path id="Vector" d="M12.9926 5H11.2944C10.2867 5 9.16581 5.43878 9.16581 6.95102C9.17073 7.47795 9.16581 7.98259 9.16581 8.55052H8V10.4711H9.20188V16H11.4104V10.4346H12.8681L13 8.54513H11.3724C11.3724 8.54513 11.376 7.70463 11.3724 7.46054C11.3724 6.86293 11.973 6.89716 12.0091 6.89716C12.295 6.89716 12.8507 6.89802 12.9934 6.89716V5H12.9926Z" fill="white"/>
</g>

</symbol><symbol id="feedback" viewBox="0 0 62 62">
<g id="good-feedback 1" clip-path="url(#clip0_54_195)">
<path id="Vector" d="M39.1455 6.11527C38.8799 5.3165 38.2093 4.73163 37.396 4.5911L34.4066 4.0734L33.0033 1.25447C32.6158 0.481533 31.8491 0 31.0007 0C30.1524 0 29.3856 0.481533 28.9981 1.2555L27.5949 4.07443L24.6065 4.59213C23.7922 4.73267 23.1205 5.3165 22.856 6.1163C22.5822 6.93677 22.7785 7.83163 23.3665 8.45473L25.5158 10.7301L25.0591 13.8983C24.933 14.7684 25.2947 15.6209 26.0015 16.1221C26.3838 16.3938 26.8312 16.5313 27.2797 16.5313C27.6279 16.5313 27.9782 16.4486 28.2996 16.2802L30.9997 14.8738L33.6998 16.2802C34.4376 16.6666 35.319 16.6036 35.999 16.1221C36.7068 15.6209 37.0674 14.7674 36.9414 13.8983L36.4846 10.7301L38.634 8.45473C39.2219 7.83163 39.4183 6.93677 39.1444 6.1163L39.1455 6.11527ZM37.1336 7.03493L34.6412 9.67407C34.4242 9.90347 34.3239 10.2186 34.3694 10.5307L34.8985 14.1928C34.9191 14.3396 34.8396 14.4119 34.8055 14.4367C34.7331 14.4853 34.6835 14.4615 34.6556 14.4481L31.4781 12.7916C31.1795 12.6366 30.822 12.6366 30.5233 12.7916L27.3458 14.4481C27.3179 14.4625 27.2673 14.4853 27.196 14.4367C27.1619 14.4119 27.0834 14.3385 27.103 14.1928L27.6321 10.5307C27.6775 10.2186 27.5773 9.90347 27.3603 9.67407L24.8679 7.03493C24.7739 6.9347 24.8007 6.81483 24.8162 6.76833C24.8431 6.6867 24.8906 6.6402 24.9588 6.6278L28.4639 6.0202C28.7873 5.96337 29.0653 5.7567 29.2131 5.4622L30.8499 2.1762C30.8633 2.14933 30.9046 2.06667 31.0007 2.06667C31.0968 2.06667 31.1392 2.1483 31.1516 2.17517L32.7884 5.4622C32.9362 5.7567 33.2131 5.96337 33.5376 6.0202L37.0437 6.6278C37.1098 6.6402 37.1573 6.6867 37.1852 6.76833C37.2018 6.81483 37.2276 6.9347 37.1336 7.03493Z" fill="#009E3B"/>
<path id="Vector_2" d="M20.5429 14.3809C20.2773 13.5821 19.6067 12.9973 18.7934 12.8567L15.804 12.339L14.4007 9.52009C14.0153 8.74716 13.2486 8.26562 12.3992 8.26562C11.5498 8.26562 10.7841 8.74716 10.3966 9.52113L8.99331 12.3401L6.00491 12.8578C5.19064 12.9983 4.51897 13.5821 4.25444 14.3819C3.98061 15.2024 4.17694 16.0973 4.76491 16.7204L6.91424 18.9958L6.45751 22.164C6.33144 23.034 6.69311 23.8865 7.39991 24.3877C7.78224 24.6595 8.22967 24.7969 8.67814 24.7969C9.02637 24.7969 9.37667 24.7142 9.69804 24.5458L12.3981 23.1394L15.0982 24.5458C15.8371 24.9323 16.7185 24.8692 17.3974 24.3877C18.1052 23.8865 18.4659 23.033 18.3398 22.164L17.8831 18.9958L20.0324 16.7204C20.6204 16.0973 20.8167 15.2014 20.5429 14.3809ZM18.531 15.3006L16.0386 17.9397C15.8216 18.1691 15.7213 18.4843 15.7668 18.7963L16.2959 22.4585C16.3165 22.6052 16.237 22.6775 16.2029 22.7023C16.1305 22.7509 16.0809 22.7282 16.053 22.7137L12.8755 21.0573C12.5769 20.9023 12.2194 20.9023 11.9207 21.0573L8.74324 22.7137C8.71534 22.7292 8.66574 22.7509 8.59341 22.7023C8.55931 22.6775 8.48077 22.6042 8.50041 22.4585L9.02947 18.7963C9.07494 18.4843 8.97471 18.1691 8.75771 17.9397L6.26531 15.3006C6.17127 15.2003 6.19814 15.0805 6.21364 15.034C6.24051 14.9523 6.28804 14.9058 6.35624 14.8934L9.86131 14.2858C10.1847 14.229 10.4627 14.0223 10.6105 13.7278L12.2473 10.4418C12.2607 10.415 12.302 10.3323 12.3981 10.3323C12.4942 10.3323 12.5366 10.4139 12.549 10.4408L14.1858 13.7278C14.3336 14.0223 14.6105 14.229 14.935 14.2858L18.4411 14.8934C18.5072 14.9058 18.5547 14.9523 18.5826 15.034C18.5992 15.0805 18.625 15.2003 18.531 15.3006Z" fill="#009E3B"/>
<path id="Vector_3" d="M57.746 14.3809C57.4804 13.5821 56.8098 12.9973 55.9966 12.8567L53.0071 12.339L51.6039 9.52009C51.2184 8.74716 50.4517 8.26562 49.6023 8.26562C48.7529 8.26562 47.9872 8.74716 47.5997 9.52113L46.1964 12.3401L43.208 12.8578C42.3938 12.9983 41.7221 13.5821 41.4576 14.3819C41.1837 15.2024 41.3801 16.0973 41.968 16.7204L44.1174 18.9958L43.6606 22.164C43.5346 23.034 43.8962 23.8865 44.603 24.3877C44.9854 24.6595 45.4328 24.7969 45.8813 24.7969C46.2295 24.7969 46.5798 24.7142 46.9012 24.5458L49.6013 23.1394L52.3014 24.5458C53.0392 24.9323 53.9216 24.8692 54.6005 24.3877C55.3084 23.8865 55.669 23.033 55.5429 22.164L55.0862 18.9958L57.2355 16.7204C57.8235 16.0973 58.0198 15.2014 57.746 14.3809ZM55.7341 15.3006L53.2417 17.9397C53.0247 18.1691 52.9245 18.4843 52.9699 18.7963L53.499 22.4585C53.5197 22.6052 53.4401 22.6775 53.406 22.7023C53.3337 22.7509 53.2841 22.7282 53.2562 22.7137L50.0787 21.0573C49.78 20.9023 49.4225 20.9023 49.1239 21.0573L45.9464 22.7137C45.9195 22.7292 45.8678 22.7509 45.7965 22.7023C45.7624 22.6775 45.6839 22.6042 45.7035 22.4585L46.2326 18.7963C46.2781 18.4843 46.1778 18.1691 45.9608 17.9397L43.4684 15.3006C43.3744 15.2003 43.4013 15.0805 43.4168 15.034C43.4436 14.9523 43.4912 14.9058 43.5594 14.8934L47.0644 14.2858C47.3879 14.229 47.6658 14.0223 47.8136 13.7278L49.4504 10.4418C49.4638 10.415 49.5052 10.3323 49.6013 10.3323C49.6974 10.3323 49.7397 10.4139 49.7521 10.4408L51.3889 13.7278C51.5367 14.0223 51.8136 14.229 52.1381 14.2858L55.6442 14.8934C55.7103 14.9058 55.7579 14.9523 55.7858 15.034C55.8023 15.0805 55.8281 15.2003 55.7341 15.3006Z" fill="#009E3B"/>
<path id="Vector_4" d="M31 24.8008C13.9066 24.8008 0 38.7074 0 55.8008C0 56.9405 0.9269 57.8674 2.06667 57.8674H14.4667C15.6064 57.8674 16.5333 56.9405 16.5333 55.8008C16.5333 47.8234 23.0227 41.3341 31 41.3341C35.8928 41.3341 40.4157 43.81 43.0807 47.8648C38.472 49.4943 34.8988 50.8098 32.2679 51.8431C31.8597 51.7387 31.4402 51.6674 31 51.6674C28.1511 51.6674 25.8333 53.9852 25.8333 56.8341C25.8333 59.683 28.1511 62.0008 31 62.0008C33.0346 62.0008 34.782 60.8083 35.6242 59.094C38.3243 57.6236 41.7901 55.6272 45.2765 53.5812C45.3902 54.3128 45.4667 55.0526 45.4667 55.8008C45.4667 56.9405 46.3936 57.8674 47.5333 57.8674H59.9333C61.0731 57.8674 62 56.9405 62 55.8008C62 38.7074 48.0934 24.8008 31 24.8008ZM41.9296 43.4101C39.2078 41.0065 35.7399 39.534 32.0333 39.3026V26.8933C39.2315 27.1475 45.7674 30.0408 50.7015 34.6381L41.9296 43.4101ZM14.4667 55.8008H2.06667C2.06667 48.1944 5.02097 41.269 9.83733 36.0992L18.6186 44.8805C16.0435 47.7966 14.4667 51.6137 14.4667 55.8008ZM20.0797 43.4194L11.2985 34.6381C16.2326 30.0418 22.7674 27.1485 29.9667 26.8933V39.3191C26.1867 39.5547 22.753 41.0582 20.0797 43.4194ZM52.9635 46.6155C48.0045 49.5832 41.1349 53.6669 36.1274 56.4559C36.0323 55.1673 35.4836 54.0048 34.6136 53.1513C38.7727 51.5651 44.8074 49.4148 52.9635 46.6155ZM30.999 59.9341C29.2898 59.9341 27.899 58.5432 27.899 56.8341C27.899 55.125 29.2898 53.7341 30.999 53.7341C32.7081 53.7341 34.099 55.125 34.099 56.8341C34.099 58.5432 32.7081 59.9341 30.999 59.9341ZM47.5323 55.8008C47.5323 54.6703 47.4124 53.5502 47.1861 52.4569C49.6155 51.0226 51.9839 49.6101 54.0289 48.3876C54.9578 47.8245 55.2999 46.7074 54.8442 45.7309C54.3905 44.7606 53.3262 44.3039 52.3011 44.6573C49.6754 45.5584 47.276 46.3912 45.0792 47.1621C44.577 46.3447 44.0097 45.5821 43.3866 44.8753L52.1606 36.1013C56.977 41.2711 59.9313 48.1965 59.9313 55.8028H47.5313L47.5323 55.8008Z" fill="#009E3B"/>
</g>

</symbol><symbol id="geo" viewBox="0 0 12 12">
<g id="maps-and-flags 1">
<g id="Group">
<g id="Group_2">
<path id="Vector" d="M5.99829 0C3.60192 0 1.65234 1.94958 1.65234 4.34592C1.65234 7.31986 5.54154 11.6858 5.70712 11.8702C5.86266 12.0434 6.1342 12.0431 6.28945 11.8702C6.45504 11.6858 10.3442 7.31986 10.3442 4.34592C10.3442 1.94958 8.39463 0 5.99829 0ZM5.99829 6.53248C4.79262 6.53248 3.81176 5.55159 3.81176 4.34592C3.81176 3.14025 4.79264 2.15939 5.99829 2.15939C7.20394 2.15939 8.1848 3.14027 8.1848 4.34595C8.1848 5.55162 7.20394 6.53248 5.99829 6.53248Z"/>
</g>
</g>
</g>
</symbol><symbol id="headphones" viewBox="0 0 30 30">
<g id="headphones 2">
<g id="Group">
<g id="Group_2">
<path id="Vector" d="M7.96875 12.3047C6.5148 12.3047 5.33203 13.4875 5.33203 14.9414V22.0898C5.33203 23.5438 6.5148 24.7266 7.96875 24.7266C9.4227 24.7266 10.6055 23.5438 10.6055 22.0898V14.9414C10.6055 13.4875 9.4227 12.3047 7.96875 12.3047Z"/>
</g>
</g>
<g id="Group_3">
<g id="Group_4">
<path id="Vector_2" d="M3.57422 14.9395C3.57422 14.686 3.60768 14.441 3.6491 14.1992C2.58984 14.5416 1.81641 15.5255 1.81641 16.6973V20.3301C1.81641 21.5019 2.58984 22.4858 3.6491 22.8282C3.60768 22.5864 3.57422 22.3415 3.57422 22.0879V14.9395Z"/>
</g>
</g>
<g id="Group_5">
<g id="Group_6">
<path id="Vector_3" d="M22.0312 12.3047C20.5773 12.3047 19.3945 13.4875 19.3945 14.9414V22.0898C19.3945 23.5438 20.5773 24.7266 22.0312 24.7266C22.2955 24.7266 22.5458 24.6757 22.7866 24.603C22.4595 25.6876 21.4632 26.4844 20.2734 26.4844H17.4748C17.1108 25.4636 16.1443 24.7266 15 24.7266C13.5461 24.7266 12.3633 25.9093 12.3633 27.3633C12.3633 28.8172 13.5461 30 15 30C16.1443 30 17.1108 29.263 17.4748 28.2422H20.2734C22.6965 28.2422 24.668 26.2707 24.668 23.8477V22.0898V14.9414C24.668 13.4875 23.4852 12.3047 22.0312 12.3047Z"/>
</g>
</g>
<g id="Group_7">
<g id="Group_8">
<path id="Vector_4" d="M26.3516 14.2031C26.393 14.4449 26.4264 14.6899 26.4264 14.9434V22.0918C26.4264 22.3454 26.393 22.5903 26.3516 22.8321C27.4108 22.4897 28.1843 21.5058 28.1843 20.334V16.7012C28.1843 15.5294 27.4108 14.5455 26.3516 14.2031Z"/>
</g>
</g>
<g id="Group_9">
<g id="Group_10">
<path id="Vector_5" d="M15 0C7.73016 0 1.81641 5.91375 1.81641 13.1836V13.206C2.34006 12.8096 2.94592 12.5195 3.61447 12.3896C4.02527 6.46002 8.96801 1.75781 15 1.75781C21.032 1.75781 25.9747 6.46002 26.3855 12.3895C27.054 12.5194 27.6599 12.8096 28.1836 13.206V13.1836C28.1836 5.91375 22.2698 0 15 0Z"/>
</g>
</g>
</g>
</symbol><symbol id="icon" viewBox="0 0 46 46">
<circle cx="23" cy="23" r="22.5" stroke="#009E3B"/>
<path fill-rule="evenodd" clip-rule="evenodd" d="M23.7745 12.0065C25.8977 12.2252 27.7153 13.052 29.194 14.4718C29.6662 14.9252 30.0362 15.363 30.1436 15.5953C30.2608 15.849 30.2574 16.1646 30.1349 16.4147L30.0469 16.5944L30.225 16.9092C30.7013 17.7506 31.0243 18.7103 31.1827 19.7541C31.2311 20.0733 31.2538 20.4276 31.2679 21.0842L31.287 21.9791L31.3709 21.9959C31.9678 22.1153 32.5273 22.3662 32.9166 22.6892C33.374 23.0685 33.7241 23.6068 33.9115 24.2192C33.9932 24.4858 34 24.5505 34 25.056C34 25.5591 33.9929 25.6271 33.9132 25.8872C33.542 27.0981 32.6076 27.9072 31.3388 28.116C31.2379 28.1326 31.2179 28.1514 31.1852 28.2604C31.123 28.4678 30.8997 28.7683 30.7038 28.9084C29.9785 29.4272 28.9805 29.1327 28.6256 28.2952L28.5505 28.118L28.5415 25.1529C28.5355 23.1963 28.5438 22.1349 28.5659 22.0322C28.6549 21.6175 28.9494 21.2464 29.331 21.0679C29.5151 20.9818 29.5982 20.963 29.8414 20.9525C30.125 20.9403 30.2215 20.9595 30.5482 21.0933C30.6076 21.1176 30.609 21.1006 30.5908 20.5893C30.5524 19.512 30.2808 18.4628 29.7907 17.4979C29.5205 16.9661 29.558 17.0002 29.2424 16.9992C28.8651 16.998 28.6776 16.9046 28.3814 16.5706C28.2614 16.4353 28.0725 16.2266 27.9616 16.1068C27.7822 15.913 27.7599 15.8743 27.7599 15.7562C27.7599 15.489 28.0542 15.3417 28.2748 15.4986C28.3238 15.5334 28.4931 15.7097 28.6509 15.8902C29.0482 16.3448 29.0393 16.3377 29.2101 16.3369C29.4341 16.3358 29.5671 16.1998 29.5671 15.972C29.5671 15.8191 29.4141 15.6286 28.8125 15.032C28.1303 14.3557 27.5731 13.9498 26.7515 13.531C24.2665 12.2641 21.2517 12.3528 18.833 13.7639C18.0589 14.2154 17.2506 14.8891 16.7087 15.5342C16.4466 15.8461 16.4172 15.9057 16.4471 16.0645C16.4773 16.2253 16.6275 16.3376 16.8123 16.3376C16.9513 16.3376 16.9702 16.3268 17.1077 16.1684C17.456 15.7671 18.1536 15.1024 18.4783 14.8626C19.5107 14.1002 20.5622 13.6623 21.9189 13.43C22.3019 13.3645 23.7874 13.3754 24.194 13.4468C25.1048 13.6067 25.9229 13.8909 26.6871 14.3129C27.1078 14.5453 27.2113 14.6456 27.2113 14.821C27.2113 14.9279 27.1914 14.9765 27.117 15.0508C26.9733 15.1943 26.87 15.1778 26.4774 14.9486C25.0476 14.1139 23.3265 13.8267 21.6729 14.1468C20.1113 14.4492 18.6854 15.2999 17.6628 16.5393C17.4963 16.741 17.4155 16.8094 17.2439 16.8938C17.0558 16.9863 16.9999 16.9984 16.759 16.9992L16.4868 17L16.3771 17.1926C15.796 18.2126 15.4641 19.3986 15.41 20.6483C15.3929 21.0444 15.3968 21.1137 15.4353 21.098C15.4604 21.0877 15.5801 21.0477 15.7013 21.0091C16.3428 20.8045 17.0248 21.1005 17.3292 21.7156L17.4494 21.9585V25.056V28.1535L17.3292 28.3965C17.1822 28.6936 16.9675 28.904 16.666 29.0467C16.465 29.1418 16.4241 29.1493 16.1102 29.1493C15.8264 29.1493 15.7456 29.1375 15.6131 29.0764C15.526 29.0363 15.4493 29.0091 15.4425 29.0158C15.4194 29.0389 15.5553 29.5997 15.6352 29.8112C16.1207 31.0959 17.2205 32.0116 18.5574 32.2445C18.7653 32.2807 19.1253 32.2918 20.0847 32.2918C21.2517 32.2918 21.3414 32.2879 21.3587 32.2354C21.5189 31.7495 21.9302 31.3883 22.4317 31.2934C22.6611 31.2499 23.3419 31.2513 23.583 31.2957C23.8586 31.3465 24.1033 31.4757 24.3091 31.6792C25.0575 32.4189 24.7055 33.683 23.6765 33.9507C23.4554 34.0082 22.6014 34.0182 22.3743 33.9659C21.9591 33.8703 21.5832 33.5636 21.4185 33.1861L21.3262 32.9746L19.9848 32.9599C18.7641 32.9466 18.6153 32.9391 18.3304 32.8761C16.216 32.4086 14.7548 30.634 14.7548 28.5333V28.1353L14.6661 28.1174C13.8473 27.9522 13.3612 27.7053 12.8795 27.2102C12.2717 26.5852 12 25.9199 12 25.056C12 24.3883 12.1424 23.9025 12.4936 23.3719C12.998 22.6097 13.6799 22.179 14.6788 21.9915C14.7473 21.9786 14.7481 21.9692 14.7639 20.9871C14.7811 19.9143 14.809 19.6555 14.9834 18.9527C15.1627 18.2301 15.4351 17.5377 15.7825 16.9211L15.9713 16.5861L15.8875 16.4377C15.8144 16.3083 15.8036 16.252 15.8036 15.9992C15.8036 15.6444 15.8552 15.524 16.1644 15.1567C17.4202 13.665 19.2445 12.5711 21.1333 12.1771C21.7559 12.0473 22.0892 12.014 22.8709 12.0035C23.2969 11.9978 23.7035 11.9992 23.7745 12.0065ZM29.6936 21.628C29.525 21.6785 29.3447 21.8345 29.2732 21.9918C29.2165 22.1164 29.2135 22.2717 29.2135 25.056C29.2135 28.3521 29.198 28.1404 29.4548 28.3518C29.7711 28.6123 30.2459 28.5439 30.4854 28.2036L30.5836 28.0641L30.5932 25.1258C30.6001 23.0315 30.5925 22.1519 30.5668 22.0636C30.5466 21.9941 30.4702 21.8792 30.3931 21.8021C30.203 21.6123 29.9536 21.5502 29.6936 21.628ZM15.7384 21.7027C15.6488 21.7552 15.5622 21.843 15.5061 21.9386C15.4207 22.0837 15.4158 22.1149 15.4003 22.6096C15.3827 23.173 15.3712 23.2099 15.1905 23.2854C15.057 23.3411 14.9303 23.3094 14.8351 23.1965C14.7663 23.1147 14.7548 23.0689 14.7548 22.8751V22.6492L14.6177 22.6719C14.2492 22.7329 13.8117 22.9477 13.4572 23.2417C13.1303 23.5128 12.7984 24.0725 12.7061 24.5081C12.642 24.8107 12.6436 25.3514 12.7094 25.618C12.8593 26.2253 13.2326 26.7516 13.751 27.0866C13.9937 27.2433 14.3794 27.4007 14.6177 27.4402L14.7548 27.4629V25.846V24.2292L14.8491 24.135C14.9523 24.032 15.0785 24.0132 15.2236 24.0793C15.4018 24.1603 15.4002 24.1426 15.4002 26.0941C15.4002 27.1632 15.413 27.9371 15.4316 28.0021C15.5369 28.3687 15.9266 28.5896 16.2892 28.4882C16.3686 28.466 16.4985 28.3907 16.5779 28.3209C16.831 28.0985 16.8201 28.2447 16.8201 25.0398C16.8201 21.8899 16.8298 22.0305 16.5974 21.8038C16.362 21.5742 16.0255 21.5346 15.7384 21.7027ZM31.2774 25.0575V27.4602L31.3984 27.4391C31.9716 27.3395 32.5735 26.9492 32.925 26.4493C33.8756 25.0973 33.2188 23.2078 31.6324 22.731C31.4993 22.691 31.365 22.6575 31.3339 22.6566C31.2806 22.6549 31.2774 22.7901 31.2774 25.0575ZM22.2688 32.0515C21.8303 32.3595 21.8693 33.0197 22.3403 33.2597C22.4495 33.3154 22.5313 33.3232 23 33.3232C23.4631 33.3232 23.5511 33.315 23.6548 33.2617C24.1844 32.9896 24.1789 32.2485 23.6454 31.9973C23.532 31.9439 23.4491 31.9376 22.9623 31.945L22.4083 31.9534L22.2688 32.0515Z" fill="#009E3B"/>
</symbol><symbol id="icon2" viewBox="0 0 46 46">
<g clip-path="url(#clip0_210_60)">
<path d="M33.1276 16.8542L23.1387 12.032C23.0502 11.9893 22.9471 11.9893 22.8585 12.032L12.8696 16.8542C12.7583 16.908 12.6875 17.0208 12.6875 17.1445V28.8555C12.6875 28.9792 12.7583 29.092 12.8696 29.1458L22.8585 33.968C22.9028 33.9893 22.9507 34 22.9986 34C23.0465 34 23.0944 33.9893 23.1387 33.968L33.1276 29.1458C33.239 29.092 33.3097 28.9792 33.3097 28.8555V17.1445C33.3097 17.0207 33.2389 16.908 33.1276 16.8542ZM22.9986 12.6801L32.2462 17.1445L29.5655 18.4386C29.5486 18.4257 29.5306 18.4137 29.511 18.4042L20.3262 13.9703L22.9986 12.6801ZM19.5984 14.3346L28.8325 18.7925L26.9413 19.7055L17.7109 15.2495L19.5984 14.3346ZM29.0486 19.4038V22.7789L27.282 23.6317V20.2567L29.0486 19.4038ZM32.6652 28.6533L23.3209 33.1643V22.1689L25.5498 21.0929C25.7101 21.0155 25.7773 20.8229 25.6999 20.6626C25.6225 20.5023 25.4299 20.435 25.2696 20.5125L22.9986 21.6088L22.105 21.1774C21.9447 21.0999 21.7521 21.1672 21.6747 21.3275C21.5973 21.4878 21.6645 21.6805 21.8248 21.7578L22.6764 22.1689V33.1643L13.332 28.6532V17.6579L20.4477 21.093C20.4928 21.1149 20.5406 21.1252 20.5875 21.1252C20.7073 21.1252 20.8224 21.058 20.8779 20.9429C20.9553 20.7827 20.8881 20.59 20.7279 20.5126L13.751 17.1445L16.9524 15.599L26.633 20.2724C26.6344 20.2743 26.636 20.2761 26.6375 20.278V24.1452C26.6375 24.2561 26.6945 24.3592 26.7884 24.4182C26.8406 24.4509 26.9001 24.4674 26.9598 24.4674C27.0076 24.4674 27.0555 24.4568 27.0999 24.4354L29.511 23.2714C29.6223 23.2177 29.6931 23.1049 29.6931 22.9812V19.0927L32.6652 17.6579V28.6533Z" fill="#009E3B"/>
<path d="M15.9947 27.4039L14.5289 26.6962C14.3685 26.6188 14.1759 26.686 14.0985 26.8463C14.0211 27.0066 14.0884 27.1993 14.2486 27.2767L15.7145 27.9843C15.7597 28.0061 15.8074 28.0164 15.8544 28.0164C15.9742 28.0164 16.0892 27.9493 16.1448 27.8342C16.2222 27.6739 16.155 27.4813 15.9947 27.4039Z" fill="#009E3B"/>
<path d="M17.3418 26.5229L14.5288 25.1649C14.3685 25.0876 14.1759 25.1548 14.0985 25.3151C14.0212 25.4753 14.0884 25.668 14.2486 25.7454L17.0616 27.1034C17.1068 27.1252 17.1545 27.1355 17.2015 27.1355C17.3213 27.1355 17.4363 27.0684 17.4919 26.9533C17.5693 26.7929 17.5021 26.6003 17.3418 26.5229Z" fill="#009E3B"/>
</g>
<circle cx="23" cy="23" r="22.5" stroke="#009E3B"/>

</symbol><symbol id="icon3" viewBox="0 0 46 46">
<circle cx="23" cy="23" r="22.5" stroke="#009E3B"/>
<g clip-path="url(#clip0_210_61)">
<path d="M33.609 16.1602C33.324 15.8233 32.9248 15.6175 32.4849 15.5807L16.9923 14.2871C16.5524 14.2504 16.1247 14.3871 15.7877 14.6722C15.4521 14.956 15.2465 15.3532 15.2086 15.7909L14.8969 18.7152H13.6524C12.7413 18.7152 12 19.4564 12 20.3676V30.0656C12 30.9768 12.7413 31.718 13.6524 31.718H29.1989C30.1101 31.718 30.8513 30.9768 30.8513 30.0656V28.4924L31.403 28.5385C31.4496 28.5424 31.4958 28.5443 31.5417 28.5443C32.3911 28.5443 33.1152 27.8908 33.1872 27.0294L33.9942 17.3649C34.0309 16.925 33.8941 16.4972 33.609 16.1602ZM13.6524 19.5746H29.1989C29.6362 19.5746 29.992 19.9303 29.992 20.3676V21.2512H12.8594V20.3676C12.8594 19.9303 13.2151 19.5746 13.6524 19.5746ZM12.8594 22.1106H29.992V23.8933H12.8594V22.1106ZM29.1989 30.8586H13.6524C13.2151 30.8586 12.8594 30.5029 12.8594 30.0656V24.7527H29.992V30.0656C29.992 30.5029 29.6362 30.8586 29.1989 30.8586ZM33.1377 17.2934L32.3308 26.9578C32.2944 27.3936 31.9102 27.7186 31.4745 27.6821L30.8513 27.6301V20.3676C30.8513 19.4564 30.1101 18.7152 29.1989 18.7152H15.7612L16.0637 15.8776C16.064 15.8743 16.0643 15.8711 16.0646 15.8678C16.101 15.432 16.4849 15.107 16.9208 15.1435L32.4135 16.4371C32.6246 16.4548 32.8162 16.5535 32.9529 16.7153C33.0897 16.877 33.1554 17.0823 33.1377 17.2934Z" fill="#009E3B"/>
<path d="M28.194 26.0312H24.0586C23.8213 26.0312 23.6289 26.2236 23.6289 26.4609V29.1589C23.6289 29.3962 23.8213 29.5886 24.0586 29.5886H28.194C28.4313 29.5886 28.6237 29.3962 28.6237 29.1589V26.4609C28.6237 26.2236 28.4313 26.0312 28.194 26.0312ZM27.7643 28.7292H24.4883V26.8906H27.7643V28.7292Z" fill="#009E3B"/>
</g>

</symbol><symbol id="icon4" viewBox="0 0 46 46">
<circle cx="23" cy="23" r="22.5" stroke="#009E3B"/>
<g clip-path="url(#clip0_210_62)">
<path d="M26.4578 19.9302L24.6034 19.4133L23.5387 17.8095C23.2927 17.428 22.7107 17.4282 22.4647 17.8095L21.4001 19.4133L19.5457 19.9302C19.3377 19.9882 19.1725 20.1465 19.1058 20.3519C19.039 20.5573 19.0796 20.7824 19.2138 20.9517L20.4102 22.4598L20.3289 24.383C20.3197 24.5988 20.4193 24.8048 20.594 24.9317C20.7686 25.0586 20.9952 25.0896 21.1977 25.0143L23.0018 24.3426L24.8058 25.0143C25.0082 25.0896 25.2349 25.0586 25.4096 24.9317C25.5843 24.8048 25.6838 24.5988 25.6747 24.383L25.5933 22.4598L26.7897 20.9517C26.9239 20.7824 26.9644 20.5573 26.8978 20.3519C26.8309 20.1465 26.6658 19.9882 26.4578 19.9302ZM24.4343 21.8467C24.3381 21.968 24.2887 22.1198 24.2953 22.2745L24.3457 23.4675L23.2266 23.0508C23.0816 22.9968 22.9219 22.9968 22.7768 23.0508L21.6577 23.4675L21.7082 22.2745C21.7147 22.1198 21.6654 21.968 21.5692 21.8467L20.8271 20.9112L21.9774 20.5905C22.1265 20.5489 22.2557 20.4551 22.3413 20.3261L23.0017 19.3313L23.6622 20.3261C23.7478 20.4551 23.877 20.5489 24.0261 20.5905L25.1764 20.9112L24.4343 21.8467Z" fill="#009E3B"/>
<path d="M33.8108 28.9947L31.2971 26.4807C35.0723 20.2181 30.3558 11.9283 22.9997 12.0005C15.6446 11.928 10.9265 20.2195 14.7026 26.4807L12.1888 28.9947C12.0308 29.1527 11.9659 29.3812 12.0173 29.5986C12.0686 29.816 12.2288 29.9913 12.4407 30.0619L15.0638 30.9362L15.9381 33.5593C16.0087 33.7712 16.184 33.9315 16.4015 33.9828C16.6189 34.0341 16.8473 33.9692 17.0053 33.8112L20.0436 30.7732C21.8897 31.3898 24.1098 31.3898 25.956 30.7732L28.9943 33.8112C29.1523 33.9692 29.3808 34.0341 29.5982 33.9828C29.8156 33.9315 29.9909 33.7712 30.0615 33.5593L30.9358 30.9362L33.5589 30.0619C33.7708 29.9913 33.9311 29.816 33.9824 29.5986C34.0337 29.3812 33.9688 29.1527 33.8108 28.9947ZM16.8315 32.1624L16.1848 30.2227C16.1206 30.0303 15.9696 29.8793 15.7772 29.8151L13.8377 29.1686L15.441 27.5654C16.3289 28.6895 17.4672 29.6123 18.7467 30.2471L16.8315 32.1624ZM22.9998 29.9496C18.4066 29.9496 14.6698 26.2127 14.6698 21.6195C15.1273 10.5685 30.874 10.5717 31.3299 21.6196C31.3299 26.2127 27.593 29.9496 22.9998 29.9496ZM30.2225 29.8151C30.03 29.8793 29.879 30.0303 29.8149 30.2227L29.1682 32.1624L27.253 30.2471C28.5325 29.6124 29.6708 28.6895 30.5588 27.5654L32.162 29.1686L30.2225 29.8151Z" fill="#009E3B"/>
<path d="M22.9983 14.7617C19.217 14.7617 16.1406 17.8381 16.1406 21.6194C16.5173 30.7171 29.4807 30.7144 29.856 21.6194C29.856 17.8381 26.7797 14.7617 22.9983 14.7617ZM22.9983 27.1881C19.9277 27.1881 17.4297 24.69 17.4297 21.6194C17.7356 14.2318 28.2622 14.234 28.567 21.6195C28.567 24.69 26.0689 27.1881 22.9983 27.1881Z" fill="#009E3B"/>
</g>

</symbol><symbol id="instagram" viewBox="0 0 21 21">
<g id="instagram" clip-path="url(#clip0_54_342)">
<path id="Vector" d="M1.31225 1.4312C-0.338003 3.14533 -0.000252895 4.96621 -0.000252895 10.498C-0.000252895 15.0917 -0.801753 19.6968 3.393 20.781C4.70287 21.1178 16.3089 21.1178 17.617 20.7792C19.3635 20.3286 20.7845 18.912 20.9787 16.4418C21.0059 16.0971 21.0059 4.90495 20.9779 4.55321C20.7714 1.92208 19.1517 0.405704 17.0176 0.0985794C16.5285 0.0277044 16.4305 0.00670442 13.921 0.00232942C5.01962 0.00670442 3.06837 -0.389671 1.31225 1.4312Z" fill="url(#paint0_linear_54_342)"/>
<path id="Vector_2" d="M10.4981 2.74576C7.32096 2.74576 4.30396 2.46314 3.15159 5.42064C2.67559 6.64214 2.74471 8.22852 2.74471 10.5C2.74471 12.4933 2.68084 14.3666 3.15159 15.5785C4.30134 18.5378 7.34284 18.2543 10.4963 18.2543C13.5387 18.2543 16.6756 18.571 17.842 15.5785C18.3188 14.3448 18.2488 12.782 18.2488 10.5C18.2488 7.47077 18.416 5.51514 16.9468 4.04689C15.4593 2.55939 13.4477 2.74576 10.4946 2.74576H10.4981ZM9.80334 4.14314C16.4306 4.13264 17.2741 3.39589 16.8086 13.6308C16.6432 17.2506 13.887 16.8534 10.499 16.8534C4.32146 16.8534 4.14384 16.6766 4.14384 10.4965C4.14384 4.24464 4.63384 4.14664 9.80334 4.14139V4.14314ZM14.6368 5.43026C14.1232 5.43026 13.7067 5.84676 13.7067 6.36039C13.7067 6.87401 14.1232 7.29051 14.6368 7.29051C15.1505 7.29051 15.567 6.87401 15.567 6.36039C15.567 5.84676 15.1505 5.43026 14.6368 5.43026ZM10.4981 6.51789C8.29921 6.51789 6.51684 8.30114 6.51684 10.5C6.51684 12.6989 8.29921 14.4813 10.4981 14.4813C12.697 14.4813 14.4785 12.6989 14.4785 10.5C14.4785 8.30114 12.697 6.51789 10.4981 6.51789ZM10.4981 7.91526C13.915 7.91526 13.9193 13.0848 10.4981 13.0848C7.08209 13.0848 7.07684 7.91526 10.4981 7.91526Z" fill="white"/>
</g>

</symbol><symbol id="logo" viewBox="0 0 97 48">
<g id="logo">
<path id="path90" fill-rule="evenodd" clip-rule="evenodd" d="M17.3745 18.8964V25.9025H14.5978C14.5466 25.0658 14.4577 24.378 14.3303 23.8472C14.2029 23.3122 14.0202 22.8622 13.7783 22.497C13.4895 22.0683 13.1117 21.7625 12.653 21.5844C12.1945 21.4058 11.3156 21.3166 10.0163 21.3166H7.8211V26.0043H8.48355C9.25208 26.0043 9.79538 25.8175 10.1055 25.4438C10.4156 25.0702 10.5726 24.408 10.5726 23.4524V23.3037H12.7125V31.0994H10.5726C10.5386 29.9064 10.3858 29.1336 10.1055 28.7811C9.82942 28.4244 9.29459 28.2461 8.50888 28.2461H7.8211V32.0971C7.8211 32.8064 7.91025 33.2267 8.0886 33.3625C8.26696 33.5026 8.64497 33.5706 9.2182 33.5706H10.1649V35.9908H0V33.5706H0.857746C1.42258 33.5706 1.79616 33.5026 1.97436 33.371C2.15271 33.2395 2.24185 32.853 2.24185 32.2246V32.0971V22.7688C2.24185 22.1064 2.15707 21.6989 1.99146 21.5459C1.82593 21.3932 1.43945 21.3166 0.836451 21.3166H0V18.8964H17.3745ZM20.2157 22.3314C20.2157 21.8433 20.1352 21.5206 19.9779 21.3676C19.821 21.2149 19.5023 21.1385 19.0184 21.1385H18.4579V18.8964H25.2345V32.5558C25.2345 33.0527 25.3108 33.3753 25.4638 33.5239C25.6165 33.6725 25.9351 33.7489 26.4148 33.7489H26.814V35.9908H18.4579V33.7489H19.0184C19.5023 33.7489 19.821 33.6725 19.9779 33.5196C20.1352 33.3668 20.2157 33.0442 20.2157 32.5558V22.3314ZM35.7483 30.4116C35.451 30.5771 35.0519 30.7808 34.5594 31.0187C33.4341 31.5665 32.8694 32.0888 32.8694 32.5813C32.8694 32.9294 32.9926 33.2182 33.2432 33.4388C33.4892 33.6641 33.8078 33.7743 34.1985 33.7743C34.6784 33.7743 35.0604 33.6172 35.3448 33.3072C35.6294 32.9973 35.7736 32.577 35.7736 32.0462V31.9615L35.7483 30.4116ZM36.2831 34.7212C35.8459 35.2689 35.2472 35.6894 34.4915 35.9823C33.7399 36.2752 32.8737 36.4239 31.893 36.4239C30.6275 36.4239 29.647 36.131 28.9589 35.5407C28.2711 34.9506 27.9272 34.1141 27.9272 33.027C27.9272 31.9656 28.2329 31.1673 28.8487 30.6366C29.4599 30.1059 30.6362 29.6899 32.3771 29.3924C33.8291 29.142 34.7419 28.8701 35.1199 28.5731C35.4979 28.2715 35.6847 27.813 35.6847 27.1931C35.6847 26.5775 35.4763 26.0893 35.0519 25.7282C34.6314 25.3674 34.0541 25.1891 33.3281 25.1891C33.0859 25.1891 32.8442 25.2229 32.5936 25.2951C32.3471 25.3631 32.0882 25.4694 31.825 25.6137C32.2707 25.7452 32.602 25.9448 32.8229 26.2164C33.0393 26.484 33.1497 26.8323 33.1497 27.2569C33.1497 27.7789 32.9459 28.1994 32.5385 28.5262C32.1351 28.8491 31.5957 29.0106 30.925 29.0106C30.1265 29.0106 29.5153 28.8237 29.0822 28.4501C28.6532 28.0764 28.4367 27.5498 28.4367 26.8704C28.4367 25.8216 28.9758 25.0063 30.0545 24.4164C31.1328 23.826 32.6361 23.5331 34.572 23.5331C35.6337 23.5331 36.5806 23.6179 37.4127 23.7837C38.2448 23.9493 38.8775 24.1743 39.3107 24.4672C39.8329 24.8154 40.1981 25.2272 40.4062 25.707C40.6142 26.1826 40.716 26.9342 40.716 27.9657V32.6067C40.716 32.921 40.7499 33.129 40.8221 33.2223C40.8901 33.3202 41.0261 33.3668 41.2255 33.3668C41.4251 33.3668 41.5653 33.3158 41.6416 33.2182C41.7222 33.1162 41.7605 32.9125 41.7605 32.6067V31.1504H43.4419V32.7298C43.4419 34.0503 43.1446 34.9929 42.546 35.5664C41.9474 36.1394 40.9751 36.4239 39.6207 36.4239C38.8562 36.4239 38.2023 36.2837 37.659 36.0079C37.1154 35.7275 36.657 35.2986 36.2831 34.7212ZM68.2885 20.9853C67.1333 20.9853 66.2927 21.4948 65.7663 22.5098C65.2397 23.5244 64.9765 25.1591 64.9765 27.4052C64.9765 29.694 65.2397 31.35 65.762 32.3733C66.2842 33.3922 67.1164 33.9017 68.2629 33.9017C69.4263 33.9017 70.2669 33.3966 70.7892 32.3818C71.3117 31.3713 71.5747 29.7363 71.5747 27.4819C71.5747 25.2057 71.3117 23.5584 70.7892 22.5267C70.2669 21.499 69.4346 20.9853 68.2885 20.9853ZM58.3525 27.4563C58.3525 24.6283 59.2315 22.4078 60.9895 20.7984C62.7473 19.1891 65.1803 18.3867 68.2798 18.3867C71.3668 18.3867 73.787 19.1891 75.5404 20.7984C77.2943 22.4078 78.173 24.6283 78.173 27.4563C78.173 30.2842 77.2943 32.4963 75.5363 34.0972C73.7785 35.6981 71.3414 36.5004 68.2332 36.5004C65.1549 36.5004 62.7388 35.6981 60.9854 34.0885C59.2315 32.4794 58.3525 30.2673 58.3525 27.4563ZM85.9723 32.5558C85.9723 33.0442 86.049 33.3668 86.2018 33.5196C86.3545 33.6725 86.6774 33.7489 87.1656 33.7489H87.603V35.9908H79.2466V33.7489H79.7561C80.2486 33.7489 80.5672 33.6725 80.7245 33.5196C80.877 33.3668 80.9537 33.0442 80.9537 32.5558V27.4011C80.9537 26.9043 80.877 26.5814 80.7245 26.4328C80.5672 26.2844 80.2486 26.208 79.7561 26.208H79.2466V23.9661H85.9723V32.5558ZM90.4016 22.3312C90.4016 21.843 90.3209 21.5204 90.1638 21.3674C90.0067 21.2146 89.6882 21.1382 89.2043 21.1382H88.6437V18.8962H95.4204V32.5558C95.4204 33.0524 95.497 33.3753 95.6497 33.5239C95.8025 33.6725 96.121 33.7489 96.601 33.7489H97V35.9908H88.6437V33.7489H89.2043C89.6882 33.7489 90.0067 33.6725 90.1638 33.5196C90.3209 33.3668 90.4016 33.0442 90.4016 32.5558V22.3312ZM83.0654 19.4765C82.8557 19.4765 82.6853 19.6467 82.6853 19.8566C82.6853 20.0662 82.8557 20.2364 83.0654 20.2364C83.2755 20.2364 83.4452 20.0662 83.4452 19.8566C83.4452 19.6467 83.2755 19.4765 83.0654 19.4765ZM83.0654 22.6067C83.7154 22.6067 84.3487 22.6792 84.9578 22.8153L85.4686 21.4063C85.4092 21.3902 85.3527 21.3651 85.301 21.331C85.0689 21.575 84.7359 21.7248 84.3999 21.7177C83.6592 21.7031 83.2471 21.0495 83.1788 20.4346C83.1419 20.4419 83.1042 20.4456 83.0654 20.4456C83.0267 20.4456 82.9885 20.4416 82.9521 20.4346C82.8836 21.0495 82.4715 21.7031 81.7309 21.7177C81.3949 21.7249 81.0617 21.575 80.8299 21.331C80.7784 21.3651 80.7217 21.3902 80.662 21.4063L81.1729 22.8153C81.7821 22.6792 82.4153 22.6067 83.0654 22.6067ZM85.4821 21.1979C85.6715 21.2716 85.8851 21.1787 85.9591 20.9892C86.033 20.7996 85.9397 20.5862 85.7501 20.5124C85.561 20.4381 85.3474 20.5318 85.2734 20.7212C85.1991 20.9103 85.293 21.1241 85.4821 21.1979ZM80.6486 21.1979C80.459 21.2716 80.2459 21.1787 80.1716 20.9892C80.0978 20.7996 80.1913 20.5862 80.3806 20.5124C80.5702 20.4381 80.7835 20.5318 80.8576 20.7212C80.9315 20.9103 80.8379 21.1241 80.6486 21.1979Z" fill="#151616"/>
<path id="path92" fill-rule="evenodd" clip-rule="evenodd" d="M36.7502 3.95728C36.8568 4.054 36.9698 4.13701 37.0715 4.24107C42.8442 9.59389 47.9579 19.6282 50.8587 29.2415C52.0158 18.2006 63.1838 -0.96653 74.3532 0.246316C56.7054 6.90434 54.2048 28.7737 53.3871 44.1201C53.4419 46.6986 52.535 47.7306 51.2698 47.8041C50.0819 47.8728 49.0257 46.828 48.9477 45.4512C48.9481 45.4512 48.9477 45.4505 48.9477 45.4512C48.8738 34.856 41.4353 15.5257 33.2607 8.62982L33.2671 8.62256L33.2296 8.59491C31.9481 7.62326 31.6976 5.79668 32.6687 4.51615C33.6409 3.23426 35.4666 2.98361 36.748 3.95526L36.7502 3.95728Z" fill="#009E3B"/>
</g>
</symbol><symbol id="olive" viewBox="0 0 21 23">
<path id="olive-oil (2) 1 (Traced)" fill-rule="evenodd" clip-rule="evenodd" d="M9.50404 0.0374874C9.28572 0.126709 9.11452 0.341428 9.06174 0.592153C9.04839 0.655474 9.08532 0.972921 9.15638 1.40613C9.22044 1.7967 9.27286 2.14028 9.27286 2.16962C9.27286 2.2125 9.23327 2.22297 9.07115 2.22297C8.78801 2.22297 8.62063 2.2834 8.46654 2.44123C8.28617 2.62597 8.25345 2.76396 8.25345 3.34018C8.25345 3.79855 8.25845 3.83672 8.34049 4.00536C8.43987 4.2096 8.63191 4.35655 8.8451 4.39148L8.9769 4.41307V7.25747C8.9769 10.088 8.97654 10.1028 8.906 10.296C8.79222 10.6075 8.60215 10.7815 7.97456 11.1485C7.27662 11.5568 6.82147 11.9042 6.34413 12.3928C5.76125 12.9895 5.40587 13.5 5.04142 14.2641C4.81376 14.7414 4.60876 15.3427 4.51599 15.8053C4.48347 15.9675 4.44911 16.0956 4.43964 16.0898C4.43017 16.0841 4.29347 16.0153 4.13582 15.9369C3.72648 15.7334 3.41612 15.6566 2.9242 15.637C2.24475 15.61 1.79726 15.7396 1.58844 16.0238C1.39568 16.2862 1.41656 16.6276 1.65806 17.163C1.77158 17.4146 1.99305 17.7707 2.08421 17.8482C2.1728 17.9235 2.14419 17.9699 1.98177 18.0144C1.77763 18.0703 1.32777 18.2875 1.12833 18.4265C0.397475 18.9355 -0.00141027 19.6419 3.74655e-06 20.4247C0.00112181 21.0467 0.232495 21.5843 0.70491 22.0626C1.10432 22.4668 1.56273 22.7218 2.20032 22.8944C2.61775 23.0074 3.38701 23.0217 3.79764 22.9243C4.21517 22.8251 4.58061 22.6757 4.8862 22.4792C5.04198 22.379 5.17374 22.2971 5.179 22.2971C5.1843 22.2971 5.26779 22.3518 5.36457 22.4186C5.77233 22.7002 6.27553 22.8991 6.75801 22.9693C6.94584 22.9967 8.26206 23.0047 11.3946 22.9975L15.7689 22.9876L15.9902 22.8759C16.1941 22.7732 16.252 22.7159 16.7236 22.1518C17.5669 21.1429 17.9899 20.4204 18.2971 19.4641C18.64 18.3968 18.7331 17.1694 18.5496 16.1334C18.4771 15.7243 18.4369 15.7991 18.8915 15.4968C20.9776 14.1095 21.6208 11.2609 20.3457 9.05686C19.8621 8.22099 19.2066 7.60718 18.3325 7.17175C17.6041 6.80893 17.0079 6.68367 16.1471 6.71267C15.3995 6.7379 14.8623 6.87074 14.263 7.17865L14.0082 7.30961V5.86629V4.42297L14.1827 4.38299C14.3954 4.33422 14.586 4.18178 14.6694 3.99364C14.7205 3.87848 14.7303 3.76861 14.7309 3.30785C14.7315 2.83314 14.7232 2.74234 14.6689 2.63422C14.5265 2.35069 14.3004 2.22297 13.9409 2.22297H13.707L13.7255 2.13035C13.7885 1.81452 13.9424 0.794544 13.9424 0.692624C13.9424 0.437319 13.7733 0.178579 13.5314 0.0638599C13.4126 0.00754463 13.3031 0.00141462 12.4056 0.000740991L11.4114 0L11.3047 0.0976087C11.2165 0.178377 11.1981 0.219603 11.1981 0.336814C11.1981 0.454025 11.2165 0.495251 11.3047 0.576019L11.4114 0.673628H12.3495H13.2877L13.2681 0.783093C13.2574 0.843315 13.2006 1.18811 13.1421 1.54934L13.0357 2.20613L11.4996 2.21489C10.6547 2.21971 9.96323 2.21213 9.963 2.19805C9.96277 2.18397 9.91118 1.86174 9.84833 1.48198C9.78549 1.10222 9.7339 0.764972 9.73367 0.732571C9.7333 0.680769 9.76908 0.673628 10.0287 0.673628C10.3082 0.673628 10.3299 0.668374 10.4307 0.576019C10.519 0.495251 10.5374 0.454025 10.5374 0.336814C10.5374 0.219603 10.519 0.178377 10.4307 0.0976087C10.3261 0.00185248 10.3171 3.36815e-05 9.95468 0.00212193C9.75149 0.00330078 9.54869 0.0191984 9.50404 0.0374874ZM14.074 3.30078V3.70495H11.509H8.94402V3.30078V2.8966H11.509H14.074V3.30078ZM13.3505 6.07451V7.73675L13.4245 7.8481C13.5881 8.09435 13.8538 8.18003 14.074 8.0576C14.1373 8.02241 14.3 7.9313 14.4357 7.85508C14.7616 7.67202 15.3062 7.48845 15.707 7.42658C17.8718 7.09236 19.898 8.59445 20.2751 10.813C20.3546 11.2812 20.3257 12.0597 20.2123 12.5042C19.9194 13.6515 19.152 14.6377 18.1469 15.1583C17.7786 15.3491 17.707 15.4707 17.7907 15.7631C17.8454 15.9544 17.9479 16.6643 17.9706 17.0091C18.0115 17.6292 17.8878 18.5493 17.6723 19.228C17.5326 19.6681 17.2034 20.36 16.9413 20.7646C16.7247 21.0988 15.7861 22.2424 15.7008 22.276C15.6712 22.2876 14.1096 22.2971 12.2306 22.2971H8.81422L8.99009 22.0326C9.0868 21.8871 9.18374 21.7128 9.20551 21.6452L9.24507 21.5224L9.56316 21.5223C9.95896 21.5223 10.0915 21.467 10.1522 21.2764C10.186 21.1706 10.1847 21.128 10.1452 21.031C10.0815 20.8749 9.93581 20.8151 9.6192 20.8151H9.37151V20.5815C9.37151 19.81 8.93428 18.8692 8.28344 18.2404C7.83375 17.8059 7.25423 17.4763 6.72187 17.3524L6.4777 17.2956L6.4779 17.1271C6.47816 16.8954 6.56261 16.3418 6.64584 16.0257C6.70105 15.8163 6.73759 15.7432 6.82765 15.6622L6.94038 15.5608H11.4888H16.0373L16.149 15.6374C16.3498 15.775 16.472 16.299 16.4977 17.1327C16.5186 17.8111 16.4692 18.1966 16.2893 18.7596C16.084 19.4016 15.8068 19.8961 15.3212 20.4867L15.0511 20.8151H13.0712H11.0912L10.9805 20.8915C10.8337 20.9928 10.7888 21.1481 10.8612 21.3038C10.9678 21.5327 10.8884 21.5254 13.1616 21.515L15.2085 21.5056L15.3478 21.4238C15.5005 21.3342 15.9887 20.7665 16.2716 20.3494C16.4827 20.0382 16.8015 19.3825 16.9198 19.0161C17.1442 18.3211 17.2341 17.5383 17.1712 16.8255C17.128 16.3361 16.9868 15.696 16.8704 15.4623C16.7647 15.2502 16.5348 15.0373 16.3243 14.9566C16.1445 14.8877 16.1087 14.8872 11.4831 14.8872L6.82299 14.8872L6.62568 14.983C6.41502 15.0852 6.22535 15.2739 6.11946 15.4864C5.99174 15.7429 5.85698 16.3997 5.82442 16.9244L5.80357 17.2608L5.68161 17.281C5.56227 17.3008 5.55717 17.2971 5.44602 17.1126C5.38351 17.0089 5.27003 16.8515 5.1938 16.7628L5.0552 16.6016L5.09453 16.3422C5.28384 15.0943 5.85261 13.9118 6.70565 12.9927C7.21046 12.4488 7.63634 12.1236 8.48124 11.6367C9.11242 11.2729 9.37891 10.985 9.56372 10.467L9.65103 10.2223L9.66047 7.31728L9.66987 4.41226H11.5102H13.3505V6.07451ZM15.7061 8.23689C15.2547 8.32874 14.7874 8.53608 14.4192 8.80789C13.9857 9.12796 13.4913 9.75043 13.4163 10.0706C13.3532 10.3399 13.486 10.7137 13.7733 11.0756C13.9156 11.255 14.1671 11.438 14.6823 11.7372C15.7352 12.3487 16.3722 12.9431 17.0007 13.9005C17.2698 14.3105 17.3967 14.3933 17.7282 14.3753C17.9155 14.3651 17.9732 14.3451 18.1393 14.2333C18.4142 14.048 18.8672 13.5671 19.0491 13.2672C19.5349 12.4668 19.6751 11.5005 19.4339 10.6155C19.1695 9.64501 18.4221 8.79095 17.5111 8.41823C16.9722 8.19778 16.2531 8.12554 15.7061 8.23689ZM16.9349 8.94332C17.6031 9.10715 18.2533 9.63339 18.5756 10.2712C18.7752 10.6662 18.8464 10.9402 18.8651 11.3843C18.8969 12.1394 18.6792 12.7415 18.1765 13.289C17.9661 13.5181 17.7058 13.7345 17.6766 13.7045C17.6692 13.6969 17.5905 13.5772 17.5019 13.4385C17.2544 13.0513 16.9778 12.7168 16.5685 12.3094C16.0974 11.8407 15.736 11.566 15.0982 11.192C14.4663 10.8214 14.3471 10.732 14.2132 10.5282C14.0482 10.2771 14.0464 10.2303 14.1932 10.0105C14.7921 9.11335 15.8882 8.6867 16.9349 8.94332ZM3.4688 16.4048C3.97396 16.5654 4.41132 16.8648 4.72662 17.2657C4.82155 17.3864 4.89926 17.4981 4.89926 17.5138C4.89926 17.5296 4.84378 17.5772 4.77594 17.6196C4.70814 17.662 4.57012 17.7767 4.46926 17.8745L4.2859 18.0523L3.96841 17.9698C3.79379 17.9245 3.5152 17.8768 3.34929 17.864C3.05837 17.8415 3.04176 17.8358 2.88007 17.7008C2.54021 17.4172 2.2039 16.8857 2.15142 16.5493L2.12959 16.4094L2.32239 16.3687C2.4284 16.3463 2.52995 16.3222 2.54804 16.3152C2.64235 16.2783 3.26001 16.3384 3.4688 16.4048ZM6.5678 18.0192C7.02654 18.1318 7.4493 18.3779 7.83786 18.7585C8.21659 19.1295 8.46776 19.5417 8.61958 20.0416C8.72517 20.3893 8.72554 20.9727 8.62034 21.2671C8.37598 21.9511 7.86768 22.2957 7.10184 22.2967C6.45534 22.2975 5.88279 22.0418 5.33093 21.5057C4.76161 20.9527 4.46584 20.2997 4.46127 19.5857C4.45815 19.1005 4.58416 18.7494 4.87407 18.4354C5.10252 18.188 5.3891 18.0324 5.72136 17.9755C5.93876 17.9382 6.31762 17.9578 6.5678 18.0192ZM3.71816 18.6119L3.93766 18.663L3.86959 18.8718C3.76972 19.1782 3.77242 19.9446 3.87465 20.3267C3.97189 20.69 4.22684 21.215 4.46742 21.5474C4.66427 21.8193 4.66479 21.8207 4.59307 21.8688C4.4231 21.9829 4.09784 22.1322 3.87422 22.1987C3.53608 22.2994 2.80989 22.3261 2.45507 22.251C1.51291 22.0514 0.817341 21.4194 0.690211 20.6474C0.571893 19.9291 1.02826 19.1895 1.82458 18.8091C2.38598 18.5409 3.09609 18.467 3.71816 18.6119Z" fill="#009E3B"/>
</symbol><symbol id="phone" viewBox="0 0 16 16">
<g id="Group 103751">
<g id="Group 103738">
<g id="Group 103578">
<path id="telephone (1) 1 (Traced)" fill-rule="evenodd" clip-rule="evenodd" d="M8.26113 0.0189243C8.26113 0.0363755 8.22593 0.292544 8.1829 0.58815C8.13987 0.883755 8.10466 1.15053 8.10466 1.18099C8.10466 1.22583 8.1506 1.24363 8.34719 1.27497C9.30774 1.42793 10.4598 1.88103 11.2951 2.43437C11.809 2.77482 12.1344 3.03831 12.5598 3.45836C13.6623 4.54705 14.3865 5.86411 14.7218 7.39033C14.7808 7.65885 14.7991 7.70236 14.8507 7.69804C15.0059 7.68503 15.9775 7.51971 15.9969 7.50304C16.0089 7.49263 15.9851 7.32847 15.9439 7.1382C15.3531 4.40829 13.5428 2.0901 11.0412 0.860206C10.248 0.470183 9.44828 0.201285 8.69886 0.0725287C8.53557 0.0444755 8.37028 0.0137953 8.33154 0.00431919C8.2928 -0.00512567 8.26113 0.00144195 8.26113 0.0189243ZM2.45166 1.55759C2.15052 1.62017 2.01252 1.72735 1.20853 2.5231C0.780497 2.94677 0.382851 3.36635 0.324865 3.45551C-0.237072 4.31972 -0.0689007 5.75215 0.820834 7.67999C1.81678 9.83802 3.60852 12.0157 5.66378 13.5662C6.87402 14.4792 8.31671 15.2656 9.51287 15.6643C10.5013 15.9939 11.4308 16.0871 12.0227 15.9159C12.4656 15.7879 12.564 15.7133 13.4463 14.8358C14.1889 14.0972 14.2755 14.0001 14.3674 13.8034C14.4538 13.6183 14.4687 13.5511 14.4687 13.3481C14.4687 13.1454 14.4537 13.0776 14.3677 12.8928C14.2741 12.692 14.1816 12.591 13.1336 11.5464C12.2103 10.626 11.9689 10.402 11.8286 10.335C11.5915 10.2218 11.367 10.1836 11.1636 10.2219C10.8262 10.2855 10.7003 10.3793 9.91599 11.151C9.50949 11.551 9.15293 11.8782 9.12361 11.8782C9.04769 11.8782 8.31017 11.4984 8.02568 11.3128C6.92021 10.5916 5.664 9.36906 4.86035 8.23233C4.58393 7.84134 4.4545 7.62442 4.26975 7.24253C4.15549 7.00631 4.12783 6.9199 4.14476 6.852C4.15878 6.79587 4.42133 6.50858 4.88272 6.04453C5.52286 5.40072 5.6092 5.30161 5.69544 5.11149C5.85949 4.74993 5.82466 4.40522 5.5883 4.05088C5.5284 3.96106 4.99632 3.40647 4.40591 2.81842C3.44194 1.85833 3.31167 1.7397 3.12901 1.65554C2.90538 1.55253 2.65228 1.5159 2.45166 1.55759ZM8.09512 3.27428C8.05181 3.5007 7.93762 4.40347 7.95064 4.41648C7.9589 4.42474 8.07791 4.45463 8.2151 4.48291C9.81923 4.81345 11.1007 6.06151 11.4852 7.6678C11.5176 7.80318 11.5483 7.91734 11.5534 7.92143C11.5679 7.93319 12.7358 7.72941 12.7532 7.71208C12.7726 7.69269 12.7189 7.42758 12.6374 7.14014C12.0726 5.1489 10.3941 3.62086 8.35022 3.2375L8.11077 3.19259L8.09512 3.27428Z"/>
</g>
</g>
</g>
</symbol><symbol id="quality" viewBox="0 0 62 62">
<g id="quality (1) 2">
<path id="Vector" d="M37.0653 25.3458L28.8753 33.9723L24.9447 29.4629C24.509 28.9626 23.7915 28.9512 23.3433 29.4371C22.8947 29.9236 22.8845 30.7232 23.3202 31.2235L28.0344 36.6202C28.4724 37.1115 29.1802 37.1284 29.6363 36.6578L38.6446 27.1827C38.8633 26.9526 38.9911 26.6349 38.9996 26.2999C39.008 25.9649 38.8966 25.6398 38.6898 25.3963C38.2514 24.8881 37.5286 24.8658 37.0653 25.3458Z" fill="#009E3B"/>
<path id="Vector_2" d="M31.4998 14C21.848 14 14 21.6238 14 30.9998C14 40.3762 21.848 48 31.4998 48C41.152 48 49 40.3762 49 30.9998C49 21.6238 41.152 14 31.4998 14ZM31.4998 45.7242C23.1365 45.7242 16.3427 39.113 16.3427 30.9998C16.3427 22.8866 23.1365 16.2758 31.4998 16.2758C39.8713 16.2758 46.6573 22.8679 46.6573 30.9998C46.6573 39.1316 39.8713 45.7242 31.4998 45.7242Z" fill="#009E3B"/>
<path id="Vector_3" d="M55.0126 24.5842L55.398 17.6636C55.4249 17.1991 55.1722 16.7628 54.7558 16.555L48.5906 13.4391L45.473 7.27709C45.261 6.86453 44.8272 6.61334 44.3638 6.63522L37.4277 7.00904L31.6479 3.19249C31.2584 2.93584 30.7535 2.93584 30.3635 3.19249L24.5837 7.00904L17.6599 6.62383C17.1947 6.59647 16.7587 6.84903 16.5507 7.26569L13.4327 13.4277L7.26793 16.5436C6.8547 16.7551 6.60384 17.1886 6.62573 17.6522L7.01069 24.5728L3.19259 30.3496C2.9358 30.7389 2.9358 31.2435 3.19259 31.6333L6.99928 37.4215L6.61387 44.3421C6.58696 44.8066 6.83919 45.2429 7.25607 45.4507L13.4213 48.5666L16.5388 54.7286C16.7505 55.1416 17.1842 55.3924 17.6481 55.3705L24.5723 54.9853L30.3521 58.8014C30.7393 59.0662 31.2493 59.0662 31.6365 58.8014L37.4163 54.9853L44.3405 55.3705C44.8053 55.3974 45.2413 55.1448 45.4498 54.7286L48.5673 48.5666L54.7325 45.4507C55.1453 45.2388 55.3966 44.8057 55.3747 44.3421L54.9893 37.4215L58.8074 31.6447C59.0642 31.2554 59.0642 30.7503 58.8074 30.361L55.0126 24.5842ZM52.8406 36.4646C52.6983 36.6734 52.6321 36.9246 52.654 37.1767L53.0157 43.7234L47.1894 46.6643C46.9673 46.7755 46.7871 46.956 46.6758 47.178L43.733 53.0013L37.1828 52.6398C36.9319 52.6307 36.6843 52.6954 36.4704 52.8263L31.0057 56.4327L25.5415 52.8263C25.3518 52.6982 25.1283 52.6289 24.8993 52.628H24.8409L18.2903 52.9899L15.3479 47.1662C15.2366 46.9442 15.0565 46.7641 14.8339 46.6529L8.99568 43.7234L9.35783 37.1767C9.36695 36.926 9.30172 36.6784 9.17082 36.4646L5.56299 31.0028L9.17082 25.5411C9.31358 25.3327 9.37972 25.0811 9.35783 24.8295L8.99568 18.2822L14.8225 15.3414C15.0446 15.2302 15.2248 15.0501 15.3361 14.8281L18.2784 9.00438L24.8291 9.36634C25.0795 9.375 25.3271 9.31027 25.5415 9.17943L31.0057 5.5735L36.4704 9.17943C36.6792 9.32212 36.931 9.38822 37.1828 9.36634L43.733 9.00438L46.6758 14.8281C46.7871 15.0501 46.9673 15.2302 47.1894 15.3414L53.0157 18.2822L52.654 24.8295C52.6449 25.0797 52.7101 25.3273 52.8406 25.5411L56.4489 31.0028L52.8406 36.4646Z" fill="#009E3B"/>
</g>
</symbol><symbol id="twitter" viewBox="0 0 21 21">
<g id="twitter">
<g clip-path="url(#clip0_54_345)">
<g id="Layer 2">
<g id="Color Icon">
<g id="04.Twitter">
<path id="Background" d="M19.3421 0H1.65789C0.742265 0 0 0.742265 0 1.65789V19.3421C0 20.2577 0.742265 21 1.65789 21H19.3421C20.2577 21 21 20.2577 21 19.3421V1.65789C21 0.742265 20.2577 0 19.3421 0Z" fill="#03A9F4"/>
<path id="Icon" d="M17.301 6.28201C16.7894 6.50545 16.2483 6.65389 15.6943 6.72274C16.2783 6.37642 16.7148 5.82777 16.9211 5.18089C16.3745 5.50534 15.7764 5.73383 15.1527 5.85649C14.7705 5.44775 14.2741 5.16347 13.7282 5.04065C13.1822 4.91782 12.612 4.96212 12.0915 5.16779C11.5711 5.37345 11.1246 5.73097 10.8101 6.19383C10.4956 6.65669 10.3277 7.20347 10.3282 7.76306C10.3262 7.97666 10.348 8.18981 10.3931 8.39859C9.28369 8.3441 8.19822 8.05617 7.20763 7.55361C6.21703 7.05105 5.3436 6.34517 4.64439 5.48208C4.28498 6.09606 4.17363 6.82413 4.3331 7.51747C4.49257 8.21081 4.91081 8.81707 5.50235 9.21234C5.06083 9.20044 4.62866 9.08245 4.24235 8.86833V8.89872C4.24359 9.5423 4.46635 10.1658 4.87319 10.6645C5.28003 11.1632 5.84614 11.5066 6.47636 11.637C6.23786 11.6997 5.99209 11.7303 5.7455 11.7282C5.56795 11.7315 5.39056 11.7157 5.21636 11.6812C5.39691 12.2347 5.74452 12.7187 6.21138 13.0665C6.67823 13.4144 7.24139 13.609 7.8234 13.6237C6.83712 14.3946 5.62126 14.8134 4.36945 14.8133C4.14641 14.8152 3.92348 14.8022 3.70215 14.7746C4.97855 15.5975 6.46636 16.0324 7.98504 16.0263C13.1176 16.0263 15.9236 11.7752 15.9236 8.0905C15.9236 7.96754 15.9236 7.84872 15.9139 7.72991C16.4604 7.33552 16.9304 6.84488 17.301 6.28201Z" fill="white"/>
</g>
</g>
</g>
</g>
</g>

</symbol><symbol id="whatsapp-big" viewBox="0 0 35 35">
<g id="whatsapp (1) 1" clip-path="url(#clip0_56_2363)">
<g id="Group">
<g id="Group_2">
<path id="Vector" d="M17.5044 0H17.4956C7.84656 0 0 7.84875 0 17.5C0 21.3281 1.23375 24.8762 3.33156 27.7572L1.15062 34.2584L7.87719 32.1081C10.6444 33.9412 13.9453 35 17.5044 35C27.1534 35 35 27.1491 35 17.5C35 7.85094 27.1534 0 17.5044 0ZM27.6872 24.7122C27.265 25.9044 25.5894 26.8931 24.2528 27.1819C23.3384 27.3766 22.1441 27.5319 18.1234 25.865C12.9806 23.7344 9.66875 18.5084 9.41063 18.1694C9.16344 17.8303 7.3325 15.4022 7.3325 12.8909C7.3325 10.3797 8.60781 9.15688 9.12187 8.63188C9.54406 8.20094 10.2419 8.00406 10.9113 8.00406C11.1278 8.00406 11.3225 8.015 11.4975 8.02375C12.0116 8.04562 12.2697 8.07625 12.6087 8.88781C13.0309 9.905 14.0591 12.4163 14.1816 12.6744C14.3062 12.9325 14.4309 13.2825 14.2559 13.6216C14.0919 13.9716 13.9475 14.1269 13.6894 14.4244C13.4312 14.7219 13.1862 14.9494 12.9281 15.2688C12.6919 15.5466 12.425 15.8441 12.7225 16.3581C13.02 16.8612 14.0481 18.5391 15.5619 19.8866C17.5153 21.6256 19.0991 22.1812 19.6656 22.4175C20.0878 22.5925 20.5909 22.5509 20.8994 22.2228C21.2909 21.8006 21.7744 21.1006 22.2666 20.4116C22.6166 19.9172 23.0584 19.8559 23.5222 20.0309C23.9947 20.195 26.495 21.4309 27.0091 21.6869C27.5231 21.945 27.8622 22.0675 27.9869 22.2841C28.1094 22.5006 28.1094 23.5178 27.6872 24.7122Z"/>
</g>
</g>
</g>
</symbol><symbol id="whatsapp" viewBox="0 0 21 21">
<g id="whatsapp" clip-path="url(#clip0_54_54)">
<g id="Rectangle 5635" filter="url(#filter0_d_54_54)">
<rect width="21" height="21" rx="4" fill="#23D766"/>
</g>
<path id="Vector" d="M10.5016 4H10.4984C6.91444 4 4 6.91525 4 10.5C4 11.9219 4.45825 13.2397 5.23744 14.3098L4.42738 16.7246L6.92581 15.9259C7.95362 16.6068 9.17969 17 10.5016 17C14.0856 17 17 14.0839 17 10.5C17 6.91606 14.0856 4 10.5016 4ZM14.2838 13.1788C14.127 13.6216 13.5046 13.9889 13.0082 14.0961C12.6686 14.1684 12.2249 14.2261 10.7316 13.607C8.82137 12.8156 7.59125 10.8746 7.49538 10.7486C7.40356 10.6227 6.7235 9.72081 6.7235 8.78806C6.7235 7.85531 7.19719 7.40113 7.38812 7.20613C7.54494 7.04606 7.80412 6.97294 8.05275 6.97294C8.13319 6.97294 8.2055 6.977 8.2705 6.98025C8.46144 6.98837 8.55731 6.99975 8.68325 7.30119C8.84006 7.679 9.22194 8.61175 9.26744 8.70762C9.31375 8.8035 9.36006 8.9335 9.29506 9.05944C9.23413 9.18944 9.1805 9.24712 9.08462 9.35763C8.98875 9.46812 8.89775 9.55263 8.80188 9.67125C8.71412 9.77444 8.615 9.88494 8.7255 10.0759C8.836 10.2628 9.21788 10.8859 9.78012 11.3864C10.5057 12.0324 11.0939 12.2388 11.3044 12.3265C11.4612 12.3915 11.6481 12.3761 11.7626 12.2542C11.9081 12.0974 12.0876 11.8374 12.2704 11.5814C12.4004 11.3978 12.5646 11.3751 12.7368 11.4401C12.9123 11.501 13.841 11.9601 14.0319 12.0551C14.2229 12.151 14.3488 12.1965 14.3951 12.2769C14.4406 12.3574 14.4406 12.7352 14.2838 13.1788Z" fill="white"/>
</g>

</symbol></svg>