<svg width="21" height="21" viewBox="0 0 21 21" fill="none" xmlns="http://www.w3.org/2000/svg">
<g id="twitter">
<g clip-path="url(#clip0_54_345)">
<g id="Layer 2">
<g id="Color Icon">
<g id="04.Twitter">
<path id="Background" d="M19.3421 0H1.65789C0.742265 0 0 0.742265 0 1.65789V19.3421C0 20.2577 0.742265 21 1.65789 21H19.3421C20.2577 21 21 20.2577 21 19.3421V1.65789C21 0.742265 20.2577 0 19.3421 0Z" fill="#03A9F4"/>
<path id="Icon" d="M17.301 6.28201C16.7894 6.50545 16.2483 6.65389 15.6943 6.72274C16.2783 6.37642 16.7148 5.82777 16.9211 5.18089C16.3745 5.50534 15.7764 5.73383 15.1527 5.85649C14.7705 5.44775 14.2741 5.16347 13.7282 5.04065C13.1822 4.91782 12.612 4.96212 12.0915 5.16779C11.5711 5.37345 11.1246 5.73097 10.8101 6.19383C10.4956 6.65669 10.3277 7.20347 10.3282 7.76306C10.3262 7.97666 10.348 8.18981 10.3931 8.39859C9.28369 8.3441 8.19822 8.05617 7.20763 7.55361C6.21703 7.05105 5.3436 6.34517 4.64439 5.48208C4.28498 6.09606 4.17363 6.82413 4.3331 7.51747C4.49257 8.21081 4.91081 8.81707 5.50235 9.21234C5.06083 9.20044 4.62866 9.08245 4.24235 8.86833V8.89872C4.24359 9.5423 4.46635 10.1658 4.87319 10.6645C5.28003 11.1632 5.84614 11.5066 6.47636 11.637C6.23786 11.6997 5.99209 11.7303 5.7455 11.7282C5.56795 11.7315 5.39056 11.7157 5.21636 11.6812C5.39691 12.2347 5.74452 12.7187 6.21138 13.0665C6.67823 13.4144 7.24139 13.609 7.8234 13.6237C6.83712 14.3946 5.62126 14.8134 4.36945 14.8133C4.14641 14.8152 3.92348 14.8022 3.70215 14.7746C4.97855 15.5975 6.46636 16.0324 7.98504 16.0263C13.1176 16.0263 15.9236 11.7752 15.9236 8.0905C15.9236 7.96754 15.9236 7.84872 15.9139 7.72991C16.4604 7.33552 16.9304 6.84488 17.301 6.28201Z" fill="white"/>
</g>
</g>
</g>
</g>
</g>
<defs>
<clipPath id="clip0_54_345">
<rect width="21" height="21" rx="4" fill="white"/>
</clipPath>
</defs>
</svg>
